  0
SECTION
  2
HEADER
  9
$ACADVER
  1
AC1015
  9
$ACADMAINTVER
 70
     6
  9
$DWGCODEPAGE
  3
ANSI_1252
  9
$INSBASE
 10
0.0
 20
0.0
 30
0.0
  9
$EXTMIN
 10
1.000000000000000E+20
 20
1.000000000000000E+20
 30
1.000000000000000E+20
  9
$EXTMAX
 10
-1.000000000000000E+20
 20
-1.000000000000000E+20
 30
-1.000000000000000E+20
  9
$LIMMIN
 10
0.0
 20
0.0
  9
$LIMMAX
 10
12.0
 20
9.0
  9
$ORTHOMODE
 70
     0
  9
$REGENMODE
 70
     1
  9
$FILLMODE
 70
     1
  9
$QTEXTMODE
 70
     0
  9
$MIRRTEXT
 70
     1
  9
$LTSCALE
 40
1.0
  9
$ATTMODE
 70
     1
  9
$TEXTSIZE
 40
4.0
  9
$TRACEWID
 40
0.05
  9
$TEXTSTYLE
  7
Standard
  9
$CLAYER
  8
0
  9
$CELTYPE
  6
ByLayer
  9
$CECOLOR
 62
     1
  9
$CELTSCALE
 40
1.0
  9
$DISPSILH
 70
     0
  9
$DIMSCALE
 40
1.0
  9
$DIMASZ
 40
2.5
  9
$DIMEXO
 40
0.0625
  9
$DIMDLI
 40
0.38
  9
$DIMRND
 40
0.0
  9
$DIMDLE
 40
0.0
  9
$DIMEXE
 40
10.0
  9
$DIMTP
 40
0.02
  9
$DIMTM
 40
-0.001
  9
$DIMTXT
 40
4.0
  9
$DIMCEN
 40
0.09
  9
$DIMTSZ
 40
0.0
  9
$DIMTOL
 70
     0
  9
$DIMLIM
 70
     0
  9
$DIMTIH
 70
     1
  9
$DIMTOH
 70
     1
  9
$DIMSE1
 70
     0
  9
$DIMSE2
 70
     0
  9
$DIMTAD
 70
     0
  9
$DIMZIN
 70
     0
  9
$DIMBLK
  1

  9
$DIMASO
 70
     1
  9
$DIMSHO
 70
     1
  9
$DIMPOST
  1

  9
$DIMAPOST
  1

  9
$DIMALT
 70
     0
  9
$DIMALTD
 70
     2
  9
$DIMALTF
 40
25.4
  9
$DIMLFAC
 40
1.0
  9
$DIMTOFL
 70
     0
  9
$DIMTVP
 40
0.0
  9
$DIMTIX
 70
     0
  9
$DIMSOXD
 70
     0
  9
$DIMSAH
 70
     0
  9
$DIMBLK1
  1

  9
$DIMBLK2
  1

  9
$DIMSTYLE
  2
Standard
  9
$DIMCLRD
 70
     0
  9
$DIMCLRE
 70
     0
  9
$DIMCLRT
 70
     0
  9
$DIMTFAC
 40
1.0
  9
$DIMGAP
 40
0.09
  9
$DIMJUST
 70
     0
  9
$DIMSD1
 70
     0
  9
$DIMSD2
 70
     0
  9
$DIMTOLJ
 70
     1
  9
$DIMTZIN
 70
     0
  9
$DIMALTZ
 70
     0
  9
$DIMALTTZ
 70
     0
  9
$DIMUPT
 70
     0
  9
$DIMDEC
 70
     4
  9
$DIMTDEC
 70
     4
  9
$DIMALTU
 70
     2
  9
$DIMALTTD
 70
     2
  9
$DIMTXSTY
  7
Standard
  9
$DIMAUNIT
 70
     0
  9
$DIMADEC
 70
     0
  9
$DIMALTRND
 40
0.0
  9
$DIMAZIN
 70
     0
  9
$DIMDSEP
 70
    46
  9
$DIMATFIT
 70
     3
  9
$DIMFRAC
 70
     0
  9
$DIMLDRBLK
  1

  9
$DIMLUNIT
 70
     2
  9
$DIMLWD
 70
    -2
  9
$DIMLWE
 70
    -2
  9
$DIMTMOVE
 70
     0
  9
$LUNITS
 70
     2
  9
$LUPREC
 70
     8
  9
$SKETCHINC
 40
0.1
  9
$FILLETRAD
 40
0.5
  9
$AUNITS
 70
     0
  9
$AUPREC
 70
     0
  9
$MENU
  1
.
  9
$ELEVATION
 40
0.0
  9
$PELEVATION
 40
0.0
  9
$THICKNESS
 40
0.0
  9
$LIMCHECK
 70
     0
  9
$CHAMFERA
 40
0.5
  9
$CHAMFERB
 40
0.5
  9
$CHAMFERC
 40
1.0
  9
$CHAMFERD
 40
0.0
  9
$SKPOLY
 70
     0
  9
$TDCREATE
 40
2457490.470738634
  9
$TDUCREATE
 40
2457490.345738634
  9
$TDUPDATE
 40
2457490.470738646
  9
$TDUUPDATE
 40
2457490.345738646
  9
$TDINDWG
 40
0.0000000116
  9
$TDUSRTIMER
 40
0.0000000116
  9
$USRTIMER
 70
     1
  9
$ANGBASE
 50
0.0
  9
$ANGDIR
 70
     0
  9
$PDMODE
 70
     2
  9
$PDSIZE
 40
0.03
  9
$PLINEWID
 40
0.0
  9
$SPLFRAME
 70
     0
  9
$SPLINETYPE
 70
     6
  9
$SPLINESEGS
 70
     8
  9
$HANDSEED
  5
2BA
  9
$SURFTAB1
 70
     6
  9
$SURFTAB2
 70
     6
  9
$SURFTYPE
 70
     6
  9
$SURFU
 70
     6
  9
$SURFV
 70
     6
  9
$UCSBASE
  2

  9
$UCSNAME
  2

  9
$UCSORG
 10
0.0
 20
0.0
 30
0.0
  9
$UCSXDIR
 10
1.0
 20
0.0
 30
0.0
  9
$UCSYDIR
 10
0.0
 20
1.0
 30
0.0
  9
$UCSORTHOREF
  2

  9
$UCSORTHOVIEW
 70
     0
  9
$UCSORGTOP
 10
0.0
 20
0.0
 30
0.0
  9
$UCSORGBOTTOM
 10
0.0
 20
0.0
 30
0.0
  9
$UCSORGLEFT
 10
0.0
 20
0.0
 30
0.0
  9
$UCSORGRIGHT
 10
0.0
 20
0.0
 30
0.0
  9
$UCSORGFRONT
 10
0.0
 20
0.0
 30
0.0
  9
$UCSORGBACK
 10
0.0
 20
0.0
 30
0.0
  9
$PUCSBASE
  2

  9
$PUCSNAME
  2

  9
$PUCSORG
 10
0.0
 20
0.0
 30
0.0
  9
$PUCSXDIR
 10
1.0
 20
0.0
 30
0.0
  9
$PUCSYDIR
 10
0.0
 20
1.0
 30
0.0
  9
$PUCSORTHOREF
  2

  9
$PUCSORTHOVIEW
 70
     0
  9
$PUCSORGTOP
 10
0.0
 20
0.0
 30
0.0
  9
$PUCSORGBOTTOM
 10
0.0
 20
0.0
 30
0.0
  9
$PUCSORGLEFT
 10
0.0
 20
0.0
 30
0.0
  9
$PUCSORGRIGHT
 10
0.0
 20
0.0
 30
0.0
  9
$PUCSORGFRONT
 10
0.0
 20
0.0
 30
0.0
  9
$PUCSORGBACK
 10
0.0
 20
0.0
 30
0.0
  9
$USERI1
 70
     0
  9
$USERI2
 70
     0
  9
$USERI3
 70
     0
  9
$USERI4
 70
     0
  9
$USERI5
 70
     0
  9
$USERR1
 40
0.0
  9
$USERR2
 40
0.0
  9
$USERR3
 40
0.0
  9
$USERR4
 40
0.0
  9
$USERR5
 40
0.0
  9
$WORLDVIEW
 70
     1
  9
$SHADEDGE
 70
     3
  9
$SHADEDIF
 70
    70
  9
$TILEMODE
 70
     1
  9
$MAXACTVP
 70
    64
  9
$PINSBASE
 10
0.0
 20
0.0
 30
0.0
  9
$PLIMCHECK
 70
     0
  9
$PEXTMIN
 10
1.000000000000000E+20
 20
1.000000000000000E+20
 30
1.000000000000000E+20
  9
$PEXTMAX
 10
-1.000000000000000E+20
 20
-1.000000000000000E+20
 30
-1.000000000000000E+20
  9
$PLIMMIN
 10
-20.0
 20
-7.5
  9
$PLIMMAX
 10
277.0
 20
202.5
  9
$UNITMODE
 70
     0
  9
$VISRETAIN
 70
     1
  9
$PLINEGEN
 70
     0
  9
$PSLTSCALE
 70
     1
  9
$TREEDEPTH
 70
  3020
  9
$CMLSTYLE
  2
Standard
  9
$CMLJUST
 70
     0
  9
$CMLSCALE
 40
1.0
  9
$PROXYGRAPHICS
 70
     1
  9
$MEASUREMENT
 70
     1
  9
$CELWEIGHT
370
    -1
  9
$ENDCAPS
280
     0
  9
$JOINSTYLE
280
     0
  9
$LWDISPLAY
290
     0
  9
$INSUNITS
 70
     1
  9
$HYPERLINKBASE
  1

  9
$STYLESHEET
  1

  9
$XEDIT
290
     1
  9
$CEPSNTYPE
380
     0
  9
$PSTYLEMODE
290
     1
  9
$FINGERPRINTGUID
  2
{E2559A66-F4DC-48B8-8FDD-5FBDE56BDF94}
  9
$VERSIONGUID
  2
{FAEB1C32-E019-11D5-929B-00C0DF256EC4}
  9
$EXTNAMES
290
     1
  9
$PSVPSCALE
 40
0.0
  9
$OLESTARTUP
290
     0
  0
ENDSEC
  0
SECTION
  2
CLASSES
  0
CLASS
  1
ACDBDICTIONARYWDFLT
  2
AcDbDictionaryWithDefault
  3
ObjectDBX Classes
 90
        0
280
     0
281
     0
  0
CLASS
  1
VISUALSTYLE
  2
AcDbVisualStyle
  3
ObjectDBX Classes
 90
     4095
280
     0
281
     0
  0
CLASS
  1
SCALE
  2
AcDbScale
  3
ObjectDBX Classes
 90
        0
280
     0
281
     0
  0
CLASS
  1
DICTIONARYVAR
  2
AcDbDictionaryVar
  3
ObjectDBX Classes
 90
        0
280
     0
281
     0
  0
CLASS
  1
ACDBPLACEHOLDER
  2
AcDbPlaceHolder
  3
ObjectDBX Classes
 90
        0
280
     0
281
     0
  0
CLASS
  1
LAYOUT
  2
AcDbLayout
  3
ObjectDBX Classes
 90
        0
280
     0
281
     0
  0
ENDSEC
  0
SECTION
  2
TABLES
  0
TABLE
  2
VPORT
  5
8
330
0
100
AcDbSymbolTable
 70
     1
  0
VPORT
  5
29
330
8
100
AcDbSymbolTableRecord
100
AcDbViewportTableRecord
  2
*Active
 70
     0
 10
0.0
 20
0.0
 11
1.0
 21
1.0
 12
0.0
 22
0.0
 13
0.0
 23
0.0
 14
0.5
 24
0.5
 15
0.5
 25
0.5
 16
0.0
 26
0.0
 36
1.0
 17
213.3936767578125
 27
135.2356231689453
 37
0.0
 40
167.35
 41
1.272781595458619
 42
50.0
 43
0.0
 44
0.0
 50
0.0
 51
0.0
 71
     0
 72
 10000
 73
     1
 74
     3
 75
     0
 76
     0
 77
     0
 78
     0
281
     0
 65
     1
110
0.0
120
0.0
130
0.0
111
1.0
121
0.0
131
0.0
112
0.0
122
1.0
132
0.0
 79
     0
146
0.0
  0
ENDTAB
  0
TABLE
  2
LTYPE
  5
5
330
0
100
AcDbSymbolTable
 70
     4
  0
LTYPE
  5
14
330
5
100
AcDbSymbolTableRecord
100
AcDbLinetypeTableRecord
  2
ByBlock
 70
     0
  3

 72
    65
 73
     0
 40
0.0
  0
LTYPE
  5
15
330
5
100
AcDbSymbolTableRecord
100
AcDbLinetypeTableRecord
  2
ByLayer
 70
     0
  3

 72
    65
 73
     0
 40
0.0
  0
LTYPE
  5
16
330
5
100
AcDbSymbolTableRecord
100
AcDbLinetypeTableRecord
  2
Continuous
 70
     0
  3
Solid line
 72
    65
 73
     0
 40
0.0
  0
LTYPE
  5
5D
330
5
100
AcDbSymbolTableRecord
100
AcDbLinetypeTableRecord
  2
DASHED
 70
     0
  3
_ _ _ _ _ _ _ _ _ _ _ _ _ _ _ _
 72
    65
 73
     2
 40
4.8
 49
2.4
 74
     0
 49
-2.4
 74
     0
  0
LTYPE
  5
5E
330
5
100
AcDbSymbolTableRecord
100
AcDbLinetypeTableRecord
  2
CENTER
 70
     0
  3
___ _ ___ _ ___ _ ___ _ ___ _ ___ _ ___ _ ___ _
 72
    65
 73
     4
 40
22.8
 49
15.0
 74
     0
 49
-3.0
 74
     0
 49
1.8
 74
     0
 49
-3.0
 74
     0
  0
LTYPE
  5
5F
330
5
100
AcDbSymbolTableRecord
100
AcDbLinetypeTableRecord
  2
PHANTOM
 70
     0
  3
______  __  __  ______  __  __  ______  __  __  
 72
    65
 73
     6
 40
27.6
 49
15.0
 74
     0
 49
-3.0
 74
     0
 49
1.8
 74
     0
 49
-3.0
 74
     0
 49
1.8
 74
     0
 49
-3.0
 74
     0
  0
ENDTAB
  0
TABLE
  2
LAYER
  5
2
330
0
100
AcDbSymbolTable
 70
     2
  0
LAYER
  5
10
330
2
100
AcDbSymbolTableRecord
100
AcDbLayerTableRecord
  2
0
 70
     0
 62
     7
  6
Continuous
370
    -3
390
F
  0
LAYER
  5
60
330
2
100
AcDbSymbolTableRecord
100
AcDbLayerTableRecord
  2
Unnamed [1]
 70
     0
 62
     5
  6
Continuous
370
     0
390
F
  0
ENDTAB
  0
TABLE
  2
STYLE
  5
3
330
0
100
AcDbSymbolTable
 70
     1
  0
STYLE
  5
11
330
3
100
AcDbSymbolTableRecord
100
AcDbTextStyleTableRecord
  2
Standard
 70
     0
 40
0.0
 41
1.0
 50
0.0
 71
     0
 42
0.2
  3
txt
  4

  0
ENDTAB
  0
TABLE
  2
VIEW
  5
6
330
0
100
AcDbSymbolTable
 70
     0
  0
ENDTAB
  0
TABLE
  2
UCS
  5
7
330
0
100
AcDbSymbolTable
 70
     0
  0
ENDTAB
  0
TABLE
  2
APPID
  5
9
330
0
100
AcDbSymbolTable
 70
     1
  0
APPID
  5
12
330
9
100
AcDbSymbolTableRecord
100
AcDbRegAppTableRecord
  2
ACAD
 70
     0
  0
ENDTAB
  0
TABLE
  2
DIMSTYLE
  5
A
330
0
100
AcDbSymbolTable
 70
     1
100
AcDbDimStyleTable
  0
DIMSTYLE
105
27
330
A
100
AcDbSymbolTableRecord
100
AcDbDimStyleTableRecord
  2
Standard
 70
     0
340
11
  0
ENDTAB
  0
TABLE
  2
BLOCK_RECORD
  5
1
330
0
100
AcDbSymbolTable
 70
     1
  0
BLOCK_RECORD
  5
1F
330
1
100
AcDbSymbolTableRecord
100
AcDbBlockTableRecord
  2
*Model_Space
340
22
  0
BLOCK_RECORD
  5
1B
330
1
100
AcDbSymbolTableRecord
100
AcDbBlockTableRecord
  2
*Paper_Space
340
1E
  0
ENDTAB
  0
ENDSEC
  0
SECTION
  2
BLOCKS
  0
BLOCK
  5
20
330
1F
100
AcDbEntity
  8
0
100
AcDbBlockBegin
  2
*Model_Space
 70
     0
 10
0.0
 20
0.0
 30
0.0
  3
*Model_Space
  1

  0
ENDBLK
  5
21
330
1F
100
AcDbEntity
  8
0
100
AcDbBlockEnd
  0
BLOCK
  5
1C
330
1B
100
AcDbEntity
 67
     1
  8
0
100
AcDbBlockBegin
  2
*Paper_Space
 70
     0
 10
0.0
 20
0.0
 30
0.0
  3
*Paper_Space
  1

  0
ENDBLK
  5
1D
330
1B
100
AcDbEntity
 67
     1
  8
0
100
AcDbBlockEnd
  0
ENDSEC
  0
SECTION
  2
ENTITIES
  0
LINE
  5
61
330
1F
100
AcDbEntity
  8
Unnamed [1]
  6
Continuous
 62
     1
370
     0
100
AcDbLine
 10
149.59291916273
 20
167.1606231689453
 30
0.0
 11
149.59291916273
 21
137.0606231689453
 31
0.0
  0
LINE
  5
62
330
1F
100
AcDbEntity
  8
Unnamed [1]
  6
Continuous
 62
     1
370
     0
100
AcDbLine
 10
243.59291916273
 20
167.1606231689453
 30
0.0
 11
149.59291916273
 21
167.1606231689453
 31
0.0
  0
LINE
  5
63
330
1F
100
AcDbEntity
  8
Unnamed [1]
  6
Continuous
 62
     1
370
     0
100
AcDbLine
 10
149.59291916273
 20
170.1606231689454
 30
0.0
 11
204.09291916273
 21
170.1606231689454
 31
0.0
  0
LINE
  5
64
330
1F
100
AcDbEntity
  8
Unnamed [1]
  6
Continuous
 62
     1
370
     0
100
AcDbLine
 10
149.59291916273
 20
175.1606231689454
 30
0.0
 11
149.59291916273
 21
170.1606231689454
 31
0.0
  0
LINE
  5
65
330
1F
100
AcDbEntity
  8
Unnamed [1]
  6
Continuous
 62
     1
370
     0
100
AcDbLine
 10
204.09291916273
 20
175.1606231689454
 30
0.0
 11
149.59291916273
 21
175.1606231689454
 31
0.0
  0
LINE
  5
66
330
1F
100
AcDbEntity
  8
Unnamed [1]
  6
Continuous
 62
     1
370
     0
100
AcDbLine
 10
149.59291916273
 20
178.1606231689454
 30
0.0
 11
204.09291916273
 21
178.1606231689454
 31
0.0
  0
LINE
  5
67
330
1F
100
AcDbEntity
  8
Unnamed [1]
  6
Continuous
 62
     1
370
     0
100
AcDbLine
 10
149.59291916273
 20
183.1606231689454
 30
0.0
 11
149.59291916273
 21
178.1606231689454
 31
0.0
  0
LINE
  5
68
330
1F
100
AcDbEntity
  8
Unnamed [1]
  6
Continuous
 62
     1
370
     0
100
AcDbLine
 10
204.09291916273
 20
183.1606231689454
 30
0.0
 11
149.59291916273
 21
183.1606231689454
 31
0.0
  0
LINE
  5
69
330
1F
100
AcDbEntity
  8
Unnamed [1]
  6
Continuous
 62
     1
370
     0
100
AcDbLine
 10
149.59291916273
 20
186.1606231689454
 30
0.0
 11
204.09291916273
 21
186.1606231689454
 31
0.0
  0
LINE
  5
6A
330
1F
100
AcDbEntity
  8
Unnamed [1]
  6
Continuous
 62
     1
370
     0
100
AcDbLine
 10
251.59291916273
 20
173.5606231689453
 30
0.0
 11
251.59291916273
 21
137.0606231689453
 31
0.0
  0
LINE
  5
6B
330
1F
100
AcDbEntity
  8
Unnamed [1]
  6
Continuous
 62
     1
370
     0
100
AcDbLine
 10
254.59291916273
 20
160.5606231689453
 30
0.0
 11
291.59291916273
 21
160.5606231689453
 31
0.0
  0
LINE
  5
6C
330
1F
100
AcDbEntity
  8
Unnamed [1]
  6
Continuous
 62
     1
370
     0
100
AcDbLine
 10
254.59291916273
 20
152.4356231689453
 30
0.0
 11
254.59291916273
 21
160.5606231689453
 31
0.0
  0
LINE
  5
6D
330
1F
100
AcDbEntity
  8
Unnamed [1]
  6
Continuous
 62
     1
370
     0
100
AcDbLine
 10
149.5929191627301
 20
194.1606231689454
 30
0.0
 11
186.0929191627301
 21
194.1606231689454
 31
0.0
  0
LINE
  5
6E
330
1F
100
AcDbEntity
  8
Unnamed [1]
  6
Continuous
 62
     1
370
     0
100
AcDbLine
 10
204.09291916273
 20
191.1606231689454
 30
0.0
 11
149.59291916273
 21
191.1606231689454
 31
0.0
  0
LINE
  5
6F
330
1F
100
AcDbEntity
  8
Unnamed [1]
  6
Continuous
 62
     1
370
     0
100
AcDbLine
 10
238.59291916273
 20
142.0606231689453
 30
0.0
 11
238.59291916273
 21
162.1606231689453
 31
0.0
  0
LINE
  5
70
330
1F
100
AcDbEntity
  8
Unnamed [1]
  6
Continuous
 62
     1
370
     0
100
AcDbLine
 10
262.7929191627299
 20
212.3106231689453
 30
0.0
 11
280.2929191627299
 21
212.3106231689453
 31
0.0
  0
LINE
  5
71
330
1F
100
AcDbEntity
  8
Unnamed [1]
  6
Continuous
 62
     1
370
     0
100
AcDbLine
 10
262.7929191627299
 20
204.5606231689453
 30
0.0
 11
275.0929191627299
 21
204.5606231689453
 31
0.0
  0
LINE
  5
72
330
1F
100
AcDbEntity
  8
Unnamed [1]
  6
Continuous
 62
     1
370
     0
100
AcDbLine
 10
259.59291916273
 20
147.4356231689453
 30
0.0
 11
254.59291916273
 21
147.4356231689453
 31
0.0
  0
LINE
  5
73
330
1F
100
AcDbEntity
  8
Unnamed [1]
  6
Continuous
 62
     1
370
     0
100
AcDbLine
 10
259.59291916273
 20
152.4356231689453
 30
0.0
 11
254.59291916273
 21
152.4356231689453
 31
0.0
  0
LINE
  5
74
330
1F
100
AcDbEntity
  8
Unnamed [1]
  6
Continuous
 62
     1
370
     0
100
AcDbLine
 10
246.59291916273
 20
173.5606231689453
 30
0.0
 11
246.59291916273
 21
137.0606231689453
 31
0.0
  0
LINE
  5
75
330
1F
100
AcDbEntity
  8
Unnamed [1]
  6
Continuous
 62
     1
370
     0
100
AcDbLine
 10
254.59291916273
 20
163.5606231689453
 30
0.0
 11
254.59291916273
 21
201.5606231689453
 31
0.0
  0
LINE
  5
76
330
1F
100
AcDbEntity
  8
Unnamed [1]
  6
Continuous
 62
     1
370
     0
100
AcDbLine
 10
262.7929191627299
 20
174.3106231689453
 30
0.0
 11
280.2929191627299
 21
174.3106231689453
 31
0.0
  0
LINE
  5
77
330
1F
100
AcDbEntity
  8
Unnamed [1]
  6
Continuous
 62
     1
370
     0
100
AcDbLine
 10
272.09291916273
 20
163.5606231689453
 30
0.0
 11
254.59291916273
 21
163.5606231689453
 31
0.0
  0
LINE
  5
78
330
1F
100
AcDbEntity
  8
Unnamed [1]
  6
Continuous
 62
     1
370
     0
100
AcDbLine
 10
272.09291916273
 20
193.8106231689453
 30
0.0
 11
259.79291916273
 21
193.8106231689453
 31
0.0
  0
LINE
  5
79
330
1F
100
AcDbEntity
  8
Unnamed [1]
  6
Continuous
 62
     1
370
     0
100
AcDbLine
 10
272.09291916273
 20
201.5606231689453
 30
0.0
 11
254.59291916273
 21
201.5606231689453
 31
0.0
  0
LINE
  5
7A
330
1F
100
AcDbEntity
  8
Unnamed [1]
  6
Continuous
 62
     1
370
     0
100
AcDbLine
 10
259.79291916273
 20
171.3106231689453
 30
0.0
 11
259.79291916273
 21
193.8106231689453
 31
0.0
  0
LINE
  5
7B
330
1F
100
AcDbEntity
  8
Unnamed [1]
  6
Continuous
 62
     1
370
     0
100
AcDbLine
 10
280.2929191627299
 20
212.3106231689453
 30
0.0
 11
280.2929191627299
 21
174.3106231689453
 31
0.0
  0
LINE
  5
7C
330
1F
100
AcDbEntity
  8
Unnamed [1]
  6
Continuous
 62
     1
370
     0
100
AcDbLine
 10
262.7929191627299
 20
212.3106231689453
 30
0.0
 11
262.7929191627299
 21
204.5606231689453
 31
0.0
  0
LINE
  5
7D
330
1F
100
AcDbEntity
  8
Unnamed [1]
  6
Continuous
 62
     1
370
     0
100
AcDbLine
 10
262.7929191627299
 20
182.0606231689453
 30
0.0
 11
262.7929191627299
 21
174.3106231689453
 31
0.0
  0
LINE
  5
7E
330
1F
100
AcDbEntity
  8
Unnamed [1]
  6
Continuous
 62
     1
370
     0
100
AcDbLine
 10
272.09291916273
 20
163.5606231689453
 30
0.0
 11
272.09291916273
 21
171.3106231689453
 31
0.0
  0
LINE
  5
7F
330
1F
100
AcDbEntity
  8
Unnamed [1]
  6
Continuous
 62
     1
370
     0
100
AcDbLine
 10
272.09291916273
 20
171.3106231689453
 30
0.0
 11
259.79291916273
 21
171.3106231689453
 31
0.0
  0
LINE
  5
80
330
1F
100
AcDbEntity
  8
Unnamed [1]
  6
Continuous
 62
     1
370
     0
100
AcDbLine
 10
262.7929191627299
 20
182.0606231689453
 30
0.0
 11
275.0929191627299
 21
182.0606231689453
 31
0.0
  0
LINE
  5
81
330
1F
100
AcDbEntity
  8
Unnamed [1]
  6
Continuous
 62
     1
370
     0
100
AcDbLine
 10
272.09291916273
 20
193.8106231689453
 30
0.0
 11
272.09291916273
 21
201.5606231689453
 31
0.0
  0
LINE
  5
82
330
1F
100
AcDbEntity
  8
Unnamed [1]
  6
Continuous
 62
     1
370
     0
100
AcDbLine
 10
275.0929191627299
 20
204.5606231689453
 30
0.0
 11
275.0929191627299
 21
182.0606231689453
 31
0.0
  0
LINE
  5
83
330
1F
100
AcDbEntity
  8
Unnamed [1]
  6
Continuous
 62
     1
370
     0
100
AcDbLine
 10
215.29291916273
 20
218.9106231689453
 30
0.0
 11
232.79291916273
 21
218.9106231689453
 31
0.0
  0
LINE
  5
84
330
1F
100
AcDbEntity
  8
Unnamed [1]
  6
Continuous
 62
     1
370
     0
100
AcDbLine
 10
291.59291916273
 20
124.0606231689453
 30
0.0
 11
291.59291916273
 21
160.5606231689453
 31
0.0
  0
LINE
  5
85
330
1F
100
AcDbEntity
  8
Unnamed [1]
  6
Continuous
 62
     1
370
     0
100
AcDbLine
 10
106.8936767578125
 20
124.0606231689453
 30
0.0
 11
245.3936767578125
 21
124.0606231689453
 31
0.0
  0
LINE
  5
86
330
1F
100
AcDbEntity
  8
Unnamed [1]
  6
Continuous
 62
     1
370
     0
100
AcDbLine
 10
278.09291916273
 20
124.0606231689453
 30
0.0
 11
278.09291916273
 21
144.0606231689453
 31
0.0
  0
LINE
  5
87
330
1F
100
AcDbEntity
  8
Unnamed [1]
  6
Continuous
 62
     1
370
     0
100
AcDbLine
 10
263.09291916273
 20
124.0606231689453
 30
0.0
 11
263.09291916273
 21
144.0606231689453
 31
0.0
  0
LINE
  5
88
330
1F
100
AcDbEntity
  8
Unnamed [1]
  6
Continuous
 62
     1
370
     0
100
AcDbLine
 10
254.59291916273
 20
124.0606231689453
 30
0.0
 11
263.09291916273
 21
124.0606231689453
 31
0.0
  0
LINE
  5
89
330
1F
100
AcDbEntity
  8
Unnamed [1]
  6
Continuous
 62
     1
370
     0
100
AcDbLine
 10
259.59291916273
 20
133.6856231689453
 30
0.0
 11
259.59291916273
 21
138.6856231689453
 31
0.0
  0
LINE
  5
8A
330
1F
100
AcDbEntity
  8
Unnamed [1]
  6
Continuous
 62
     1
370
     0
100
AcDbLine
 10
259.59291916273
 20
138.6856231689453
 30
0.0
 11
254.59291916273
 21
138.6856231689453
 31
0.0
  0
LINE
  5
8B
330
1F
100
AcDbEntity
  8
Unnamed [1]
  6
Continuous
 62
     1
370
     0
100
AcDbLine
 10
259.59291916273
 20
140.5606231689453
 30
0.0
 11
254.59291916273
 21
140.5606231689453
 31
0.0
  0
LINE
  5
8C
330
1F
100
AcDbEntity
  8
Unnamed [1]
  6
Continuous
 62
     1
370
     0
100
AcDbLine
 10
259.59291916273
 20
145.5606231689453
 30
0.0
 11
254.59291916273
 21
145.5606231689453
 31
0.0
  0
LINE
  5
8D
330
1F
100
AcDbEntity
  8
Unnamed [1]
  6
Continuous
 62
     1
370
     0
100
AcDbLine
 10
259.59291916273
 20
147.4356231689453
 30
0.0
 11
259.59291916273
 21
152.4356231689453
 31
0.0
  0
LINE
  5
8E
330
1F
100
AcDbEntity
  8
Unnamed [1]
  6
Continuous
 62
     1
370
     0
100
AcDbLine
 10
259.59291916273
 20
133.6856231689453
 30
0.0
 11
254.59291916273
 21
133.6856231689453
 31
0.0
  0
LINE
  5
8F
330
1F
100
AcDbEntity
  8
Unnamed [1]
  6
Continuous
 62
     1
370
     0
100
AcDbLine
 10
259.59291916273
 20
140.5606231689453
 30
0.0
 11
259.59291916273
 21
145.5606231689453
 31
0.0
  0
LINE
  5
90
330
1F
100
AcDbEntity
  8
Unnamed [1]
  6
Continuous
 62
     1
370
     0
100
AcDbLine
 10
254.59291916273
 20
138.6856231689453
 30
0.0
 11
254.59291916273
 21
140.5606231689453
 31
0.0
  0
LINE
  5
91
330
1F
100
AcDbEntity
  8
Unnamed [1]
  6
Continuous
 62
     1
370
     0
100
AcDbLine
 10
254.59291916273
 20
124.0606231689453
 30
0.0
 11
254.59291916273
 21
133.6856231689453
 31
0.0
  0
LINE
  5
92
330
1F
100
AcDbEntity
  8
Unnamed [1]
  6
Continuous
 62
     1
370
     0
100
AcDbLine
 10
254.59291916273
 20
145.5606231689453
 30
0.0
 11
254.59291916273
 21
147.4356231689453
 31
0.0
  0
LINE
  5
93
330
1F
100
AcDbEntity
  8
Unnamed [1]
  6
Continuous
 62
     1
370
     0
100
AcDbLine
 10
263.09291916273
 20
144.0606231689453
 30
0.0
 11
278.09291916273
 21
144.0606231689453
 31
0.0
  0
LINE
  5
94
330
1F
100
AcDbEntity
  8
Unnamed [1]
  6
Continuous
 62
     1
370
     0
100
AcDbLine
 10
278.09291916273
 20
124.0606231689453
 30
0.0
 11
291.59291916273
 21
124.0606231689453
 31
0.0
  0
LINE
  5
95
330
1F
100
AcDbEntity
  8
Unnamed [1]
  6
Continuous
 62
     1
370
     0
100
AcDbLine
 10
175.163372764912
 20
127.5606231689922
 30
0.0
 11
240.6239807507278
 21
127.5606231689922
 31
0.0
  0
LINE
  5
96
330
1F
100
AcDbEntity
  8
Unnamed [1]
  6
Continuous
 62
     1
370
     0
100
AcDbLine
 10
246.59291916273
 20
137.0606231689453
 30
0.0
 11
251.59291916273
 21
137.0606231689453
 31
0.0
  0
LINE
  5
97
330
1F
100
AcDbEntity
  8
Unnamed [1]
  6
Continuous
 62
     1
370
     0
100
AcDbLine
 10
146.59291916273
 20
137.0606231689453
 30
0.0
 11
146.59291916273
 21
199.8455914084836
 31
0.0
  0
LINE
  5
98
330
1F
100
AcDbEntity
  8
Unnamed [1]
  6
Continuous
 62
     1
370
     0
100
AcDbLine
 10
144.59291916273
 20
160.1031409187134
 30
0.0
 11
144.59291916273
 21
162.9103435251377
 31
0.0
  0
LINE
  5
99
330
1F
100
AcDbEntity
  8
Unnamed [1]
  6
Continuous
 62
     1
370
     0
100
AcDbLine
 10
207.09291916273
 20
170.1606231689454
 30
0.0
 11
207.09291916273
 21
208.1606231689454
 31
0.0
  0
LINE
  5
9A
330
1F
100
AcDbEntity
  8
Unnamed [1]
  6
Continuous
 62
     1
370
     0
100
AcDbLine
 10
224.59291916273
 20
170.1606231689454
 30
0.0
 11
207.09291916273
 21
170.1606231689454
 31
0.0
  0
LINE
  5
9B
330
1F
100
AcDbEntity
  8
Unnamed [1]
  6
Continuous
 62
     1
370
     0
100
AcDbLine
 10
204.09291916273
 20
170.1606231689454
 30
0.0
 11
204.09291916273
 21
175.1606231689454
 31
0.0
  0
LINE
  5
9C
330
1F
100
AcDbEntity
  8
Unnamed [1]
  6
Continuous
 62
     1
370
     0
100
AcDbLine
 10
227.59291916273
 20
211.1606231689454
 30
0.0
 11
227.59291916273
 21
188.6606231689454
 31
0.0
  0
LINE
  5
9D
330
1F
100
AcDbEntity
  8
Unnamed [1]
  6
Continuous
 62
     1
370
     0
100
AcDbLine
 10
224.59291916273
 20
200.4106231689454
 30
0.0
 11
224.59291916273
 21
208.1606231689454
 31
0.0
  0
LINE
  5
9E
330
1F
100
AcDbEntity
  8
Unnamed [1]
  6
Continuous
 62
     1
370
     0
100
AcDbLine
 10
215.29291916273
 20
188.6606231689454
 30
0.0
 11
227.59291916273
 21
188.6606231689454
 31
0.0
  0
LINE
  5
9F
330
1F
100
AcDbEntity
  8
Unnamed [1]
  6
Continuous
 62
     1
370
     0
100
AcDbLine
 10
224.59291916273
 20
200.4106231689453
 30
0.0
 11
212.29291916273
 21
200.4106231689453
 31
0.0
  0
LINE
  5
A0
330
1F
100
AcDbEntity
  8
Unnamed [1]
  6
Continuous
 62
     1
370
     0
100
AcDbLine
 10
224.59291916273
 20
208.1606231689454
 30
0.0
 11
207.09291916273
 21
208.1606231689454
 31
0.0
  0
LINE
  5
A1
330
1F
100
AcDbEntity
  8
Unnamed [1]
  6
Continuous
 62
     1
370
     0
100
AcDbLine
 10
224.59291916273
 20
177.9106231689453
 30
0.0
 11
212.29291916273
 21
177.9106231689453
 31
0.0
  0
LINE
  5
A2
330
1F
100
AcDbEntity
  8
Unnamed [1]
  6
Continuous
 62
     1
370
     0
100
AcDbLine
 10
224.59291916273
 20
170.1606231689454
 30
0.0
 11
224.59291916273
 21
177.9106231689454
 31
0.0
  0
LINE
  5
A3
330
1F
100
AcDbEntity
  8
Unnamed [1]
  6
Continuous
 62
     1
370
     0
100
AcDbLine
 10
215.29291916273
 20
188.6606231689453
 30
0.0
 11
215.29291916273
 21
180.9106231689453
 31
0.0
  0
LINE
  5
A4
330
1F
100
AcDbEntity
  8
Unnamed [1]
  6
Continuous
 62
     1
370
     0
100
AcDbLine
 10
215.29291916273
 20
211.1606231689454
 30
0.0
 11
227.59291916273
 21
211.1606231689454
 31
0.0
  0
LINE
  5
A5
330
1F
100
AcDbEntity
  8
Unnamed [1]
  6
Continuous
 62
     1
370
     0
100
AcDbLine
 10
215.29291916273
 20
180.9106231689453
 30
0.0
 11
232.79291916273
 21
180.9106231689453
 31
0.0
  0
LINE
  5
A6
330
1F
100
AcDbEntity
  8
Unnamed [1]
  6
Continuous
 62
     1
370
     0
100
AcDbLine
 10
232.79291916273
 20
218.9106231689453
 30
0.0
 11
232.79291916273
 21
180.9106231689453
 31
0.0
  0
LINE
  5
A7
330
1F
100
AcDbEntity
  8
Unnamed [1]
  6
Continuous
 62
     1
370
     0
100
AcDbLine
 10
215.29291916273
 20
218.9106231689453
 30
0.0
 11
215.29291916273
 21
211.1606231689453
 31
0.0
  0
LINE
  5
A8
330
1F
100
AcDbEntity
  8
Unnamed [1]
  6
Continuous
 62
     1
370
     0
100
AcDbLine
 10
212.29291916273
 20
177.9106231689453
 30
0.0
 11
212.29291916273
 21
200.4106231689453
 31
0.0
  0
LINE
  5
A9
330
1F
100
AcDbEntity
  8
Unnamed [1]
  6
Continuous
 62
     1
370
     0
100
AcDbLine
 10
238.59291916273
 20
162.1606231689453
 30
0.0
 11
154.59291916273
 21
162.1606231689453
 31
0.0
  0
LINE
  5
AA
330
1F
100
AcDbEntity
  8
Unnamed [1]
  6
Continuous
 62
     1
370
     0
100
AcDbLine
 10
212.09291916273
 20
150.0606231689453
 30
0.0
 11
157.59291916273
 21
150.0606231689453
 31
0.0
  0
LINE
  5
AB
330
1F
100
AcDbEntity
  8
Unnamed [1]
  6
Continuous
 62
     1
370
     0
100
AcDbLine
 10
246.59291916273
 20
173.5606231689453
 30
0.0
 11
251.59291916273
 21
173.5606231689453
 31
0.0
  0
LINE
  5
AC
330
1F
100
AcDbEntity
  8
Unnamed [1]
  6
Continuous
 62
     1
370
     0
100
AcDbLine
 10
149.59291916273
 20
137.0606231689453
 30
0.0
 11
243.59291916273
 21
137.0606231689453
 31
0.0
  0
LINE
  5
AD
330
1F
100
AcDbEntity
  8
Unnamed [1]
  6
Continuous
 62
     1
370
     0
100
AcDbLine
 10
243.59291916273
 20
137.0606231689453
 30
0.0
 11
243.59291916273
 21
167.1606231689453
 31
0.0
  0
LINE
  5
AE
330
1F
100
AcDbEntity
  8
Unnamed [1]
  6
Continuous
 62
     1
370
     0
100
AcDbLine
 10
314.8936767578125
 20
121.0606231689453
 30
0.0
 11
219.8936767578125
 21
121.0606231689453
 31
0.0
  0
LINE
  5
AF
330
1F
100
AcDbEntity
  8
Unnamed [1]
  6
Continuous
 62
     1
370
     0
100
AcDbLine
 10
154.59291916273
 20
142.0606231689453
 30
0.0
 11
238.59291916273
 21
142.0606231689453
 31
0.0
  0
LINE
  5
B0
330
1F
100
AcDbEntity
  8
Unnamed [1]
  6
Continuous
 62
     1
370
     0
100
AcDbLine
 10
245.3936767578125
 20
134.0606231689453
 30
0.0
 11
106.8936767578125
 21
134.0606231689453
 31
0.0
  0
LINE
  5
B1
330
1F
100
AcDbEntity
  8
Unnamed [1]
  6
Continuous
 62
     1
370
     0
100
AcDbLine
 10
157.59291916273
 20
145.0606231689453
 30
0.0
 11
212.09291916273
 21
145.0606231689453
 31
0.0
  0
LINE
  5
B2
330
1F
100
AcDbEntity
  8
Unnamed [1]
  6
Continuous
 62
     1
370
     0
100
AcDbLine
 10
157.59291916273
 20
153.0606231689453
 30
0.0
 11
212.09291916273
 21
153.0606231689453
 31
0.0
  0
LINE
  5
B3
330
1F
100
AcDbEntity
  8
Unnamed [1]
  6
Continuous
 62
     1
370
     0
100
AcDbLine
 10
212.09291916273
 20
158.0606231689453
 30
0.0
 11
157.59291916273
 21
158.0606231689453
 31
0.0
  0
LINE
  5
B4
330
1F
100
AcDbEntity
  8
Unnamed [1]
  6
Continuous
 62
     1
370
     0
100
AcDbLine
 10
149.59291916273
 20
199.1606231689454
 30
0.0
 11
186.09291916273
 21
199.1606231689454
 31
0.0
  0
LINE
  5
B5
330
1F
100
AcDbEntity
  8
Unnamed [1]
  6
Continuous
 62
     1
370
     0
100
AcDbLine
 10
186.0929191627301
 20
194.1606231689454
 30
0.0
 11
186.0929191627301
 21
199.1606231689454
 31
0.0
  0
LINE
  5
B6
330
1F
100
AcDbEntity
  8
Unnamed [1]
  6
Continuous
 62
     1
370
     0
100
AcDbLine
 10
149.5929191627301
 20
199.1606231689454
 30
0.0
 11
149.5929191627301
 21
194.1606231689454
 31
0.0
  0
LINE
  5
B7
330
1F
100
AcDbEntity
  8
Unnamed [1]
  6
Continuous
 62
     1
370
     0
100
AcDbLine
 10
106.8936767578125
 20
51.56062316894531
 30
0.0
 11
120.3936767578125
 21
51.56062316894531
 31
0.0
  0
LINE
  5
B8
330
1F
100
AcDbEntity
  8
Unnamed [1]
  6
Continuous
 62
     1
370
     0
100
AcDbLine
 10
106.8936767578125
 20
88.06062316894531
 30
0.0
 11
106.8936767578125
 21
51.56062316894531
 31
0.0
  0
LINE
  5
B9
330
1F
100
AcDbEntity
  8
Unnamed [1]
  6
Continuous
 62
     1
370
     0
100
AcDbLine
 10
148.8936767578125
 20
51.56062316894531
 30
0.0
 11
148.8936767578125
 21
88.06062316894531
 31
0.0
  0
LINE
  5
BA
330
1F
100
AcDbEntity
  8
Unnamed [1]
  6
Continuous
 62
     1
370
     0
100
AcDbLine
 10
148.8936767578125
 20
88.06062316894531
 30
0.0
 11
106.8936767578125
 21
88.06062316894531
 31
0.0
  0
LINE
  5
BB
330
1F
100
AcDbEntity
  8
Unnamed [1]
  6
Continuous
 62
     1
370
     0
100
AcDbLine
 10
120.3936767578125
 20
51.56062316894531
 30
0.0
 11
120.3936767578125
 21
71.56062316894531
 31
0.0
  0
LINE
  5
BC
330
1F
100
AcDbEntity
  8
Unnamed [1]
  6
Continuous
 62
     1
370
     0
100
AcDbLine
 10
135.3936767578125
 20
51.56062316894531
 30
0.0
 11
135.3936767578125
 21
71.56062316894531
 31
0.0
  0
LINE
  5
BD
330
1F
100
AcDbEntity
  8
Unnamed [1]
  6
Continuous
 62
     1
370
     0
100
AcDbLine
 10
120.3936767578125
 20
71.56062316894531
 30
0.0
 11
135.3936767578125
 21
71.56062316894531
 31
0.0
  0
LINE
  5
BE
330
1F
100
AcDbEntity
  8
Unnamed [1]
  6
Continuous
 62
     1
370
     0
100
AcDbLine
 10
135.3936767578125
 20
51.56062316894531
 30
0.0
 11
148.8936767578125
 21
51.56062316894531
 31
0.0
  0
LINE
  5
BF
330
1F
100
AcDbEntity
  8
Unnamed [1]
  6
Continuous
 62
     1
370
     0
100
AcDbLine
 10
111.8936767578125
 20
91.06062316894531
 30
0.0
 11
289.3936767578125
 21
91.06062316894531
 31
0.0
  0
LINE
  5
C0
330
1F
100
AcDbEntity
  8
Unnamed [1]
  6
Continuous
 62
     1
370
     0
100
AcDbLine
 10
161.6633727648972
 20
98.56062316894531
 30
0.0
 11
255.2936767578125
 21
98.56062316894531
 31
0.0
  0
LINE
  5
C1
330
1F
100
AcDbEntity
  8
Unnamed [1]
  6
Continuous
 62
     1
370
     0
100
AcDbLine
 10
212.09291916273
 20
153.0606231689453
 30
0.0
 11
212.09291916273
 21
158.0606231689453
 31
0.0
  0
LINE
  5
C2
330
1F
100
AcDbEntity
  8
Unnamed [1]
  6
Continuous
 62
     1
370
     0
100
AcDbLine
 10
199.4636767578125
 20
117.0606231689453
 30
0.0
 11
116.7926562433789
 21
117.0606231689453
 31
0.0
  0
LINE
  5
C3
330
1F
100
AcDbEntity
  8
Unnamed [1]
  6
Continuous
 62
     1
370
     0
100
AcDbLine
 10
206.8936767578125
 20
121.0606231689453
 30
0.0
 11
111.8936767578125
 21
121.0606231689453
 31
0.0
  0
LINE
  5
C4
330
1F
100
AcDbEntity
  8
Unnamed [1]
  6
Continuous
 62
     1
370
     0
100
AcDbLine
 10
285.3936767578125
 20
106.0606231689453
 30
0.0
 11
265.2936767578125
 21
106.0606231689453
 31
0.0
  0
LINE
  5
C5
330
1F
100
AcDbEntity
  8
Unnamed [1]
  6
Continuous
 62
     1
370
     0
100
AcDbLine
 10
285.3936767578125
 20
97.06062316894531
 30
0.0
 11
265.2936767578125
 21
97.06062316894531
 31
0.0
  0
LINE
  5
C6
330
1F
100
AcDbEntity
  8
Unnamed [1]
  6
Continuous
 62
     1
370
     0
100
AcDbLine
 10
156.8936767578125
 20
64.56062316894531
 30
0.0
 11
251.8936767578125
 21
64.56062316894531
 31
0.0
  0
LINE
  5
C7
330
1F
100
AcDbEntity
  8
Unnamed [1]
  6
Continuous
 62
     1
370
     0
100
AcDbLine
 10
255.2936767578125
 20
103.0606231689453
 30
0.0
 11
155.3936767578125
 21
103.0606231689453
 31
0.0
  0
LINE
  5
C8
330
1F
100
AcDbEntity
  8
Unnamed [1]
  6
Continuous
 62
     1
370
     0
100
AcDbLine
 10
238.6633727648972
 20
84.06062316894531
 30
0.0
 11
282.2489807507388
 21
84.06062316894531
 31
0.0
  0
LINE
  5
C9
330
1F
100
AcDbEntity
  8
Unnamed [1]
  6
Continuous
 62
     1
370
     0
100
AcDbLine
 10
227.6936767578125
 20
57.56062316894531
 30
0.0
 11
161.7926562433789
 21
57.56062316894531
 31
0.0
  0
LINE
  5
CA
330
1F
100
AcDbEntity
  8
Unnamed [1]
  6
Continuous
 62
     1
370
     0
100
AcDbLine
 10
251.8936767578125
 20
61.56062316894531
 30
0.0
 11
156.8936767578125
 21
61.56062316894531
 31
0.0
  0
LINE
  5
CB
330
1F
100
AcDbEntity
  8
Unnamed [1]
  6
Continuous
 62
     1
370
     0
100
AcDbLine
 10
111.8936767578125
 20
111.0606231689453
 30
0.0
 11
206.8936767578125
 21
111.0606231689453
 31
0.0
  0
LINE
  5
CC
330
1F
100
AcDbEntity
  8
Unnamed [1]
  6
Continuous
 62
     1
370
     0
100
AcDbLine
 10
289.3936767578125
 20
108.0606231689453
 30
0.0
 11
111.8936767578125
 21
108.0606231689453
 31
0.0
  0
LINE
  5
CD
330
1F
100
AcDbEntity
  8
Unnamed [1]
  6
Continuous
 62
     1
370
     0
100
AcDbLine
 10
255.2936767578125
 20
106.0606231689453
 30
0.0
 11
155.3936767578125
 21
106.0606231689453
 31
0.0
  0
LINE
  5
CE
330
1F
100
AcDbEntity
  8
Unnamed [1]
  6
Continuous
 62
     1
370
     0
100
AcDbLine
 10
116.6633727648972
 20
98.56062316894531
 30
0.0
 11
152.1239807507278
 21
98.56062316894531
 31
0.0
  0
LINE
  5
CF
330
1F
100
AcDbEntity
  8
Unnamed [1]
  6
Continuous
 62
     1
370
     0
100
AcDbLine
 10
121.8936767578125
 20
127.5606231689453
 30
0.0
 11
165.6239807507278
 21
127.5606231689453
 31
0.0
  0
LINE
  5
D0
330
1F
100
AcDbEntity
  8
Unnamed [1]
  6
Continuous
 62
     1
370
     0
100
AcDbLine
 10
307.4636767578124
 20
114.0606231689453
 30
0.0
 11
307.4636767578124
 21
117.0606231689453
 31
0.0
  0
LINE
  5
D1
330
1F
100
AcDbEntity
  8
Unnamed [1]
  6
Continuous
 62
     1
370
     0
100
AcDbLine
 10
199.4636767578125
 20
114.0606231689453
 30
0.0
 11
199.4636767578125
 21
117.0606231689453
 31
0.0
  0
LINE
  5
D2
330
1F
100
AcDbEntity
  8
Unnamed [1]
  6
Continuous
 62
     1
370
     0
100
AcDbLine
 10
227.6936767578125
 20
54.56062316894531
 30
0.0
 11
227.6936767578125
 21
57.56062316894531
 31
0.0
  0
LINE
  5
D3
330
1F
100
AcDbEntity
  8
Unnamed [1]
  6
Continuous
 62
     1
370
     0
100
AcDbLine
 10
227.6936767578125
 20
54.56062316894531
 30
0.0
 11
161.4762524527683
 21
54.56062316894531
 31
0.0
  0
LINE
  5
D4
330
1F
100
AcDbEntity
  8
Unnamed [1]
  6
Continuous
 62
     1
370
     0
100
AcDbLine
 10
156.8936767578125
 20
51.56062316894531
 30
0.0
 11
251.8936767578125
 21
51.56062316894531
 31
0.0
  0
LINE
  5
D5
330
1F
100
AcDbEntity
  8
Unnamed [1]
  6
Continuous
 62
     1
370
     0
100
AcDbLine
 10
219.8936767578125
 20
111.0606231689453
 30
0.0
 11
314.8936767578125
 21
111.0606231689453
 31
0.0
  0
LINE
  5
D6
330
1F
100
AcDbEntity
  8
Unnamed [1]
  6
Continuous
 62
     1
370
     0
100
AcDbLine
 10
307.4636767578124
 20
114.0606231689453
 30
0.0
 11
224.4762524527683
 21
114.0606231689453
 31
0.0
  0
LINE
  5
D7
330
1F
100
AcDbEntity
  8
Unnamed [1]
  6
Continuous
 62
     1
370
     0
100
AcDbLine
 10
307.4636767578124
 20
117.0606231689453
 30
0.0
 11
224.7926562433789
 21
117.0606231689453
 31
0.0
  0
LINE
  5
D8
330
1F
100
AcDbEntity
  8
Unnamed [1]
  6
Continuous
 62
     1
370
     0
100
AcDbLine
 10
204.09291916273
 20
186.1606231689454
 30
0.0
 11
204.09291916273
 21
191.1606231689454
 31
0.0
  0
LINE
  5
D9
330
1F
100
AcDbEntity
  8
Unnamed [1]
  6
Continuous
 62
     1
370
     0
100
AcDbLine
 10
149.59291916273
 20
191.1606231689454
 30
0.0
 11
149.59291916273
 21
186.1606231689454
 31
0.0
  0
LINE
  5
DA
330
1F
100
AcDbEntity
  8
Unnamed [1]
  6
Continuous
 62
     1
370
     0
100
AcDbLine
 10
204.09291916273
 20
178.1606231689454
 30
0.0
 11
204.09291916273
 21
183.1606231689454
 31
0.0
  0
LINE
  5
DB
330
1F
100
AcDbEntity
  8
Unnamed [1]
  6
Continuous
 62
     1
370
     0
100
AcDbLine
 10
157.59291916273
 20
158.0606231689453
 30
0.0
 11
157.59291916273
 21
153.0606231689453
 31
0.0
  0
LINE
  5
DC
330
1F
100
AcDbEntity
  8
Unnamed [1]
  6
Continuous
 62
     1
370
     0
100
AcDbLine
 10
259.8936767578125
 20
73.3085477873683
 30
0.0
 11
259.8936767578125
 21
71.8085477873683
 31
0.0
  0
LINE
  5
DD
330
1F
100
AcDbEntity
  8
Unnamed [1]
  6
Continuous
 62
     1
370
     0
100
AcDbLine
 10
259.8936767578125
 20
68.98771648854017
 30
0.0
 11
259.8936767578125
 21
67.48771648854017
 31
0.0
  0
LINE
  5
DE
330
1F
100
AcDbEntity
  8
Unnamed [1]
  6
Continuous
 62
     1
370
     0
100
AcDbLine
 10
259.8936767578125
 20
64.66688518971205
 30
0.0
 11
259.8936767578125
 21
63.16688518971205
 31
0.0
  0
LINE
  5
DF
330
1F
100
AcDbEntity
  8
Unnamed [1]
  6
Continuous
 62
     1
370
     0
100
AcDbLine
 10
294.7797393798828
 20
73.3085477873683
 30
0.0
 11
294.7797393798828
 21
71.8085477873683
 31
0.0
  0
LINE
  5
E0
330
1F
100
AcDbEntity
  8
Unnamed [1]
  6
Continuous
 62
     1
370
     0
100
AcDbLine
 10
294.7797393798828
 20
68.98771648854017
 30
0.0
 11
294.7797393798828
 21
67.48771648854017
 31
0.0
  0
LINE
  5
E1
330
1F
100
AcDbEntity
  8
Unnamed [1]
  6
Continuous
 62
     1
370
     0
100
AcDbLine
 10
294.7797393798828
 20
64.66688518971205
 30
0.0
 11
294.7797393798828
 21
63.16688518971205
 31
0.0
  0
LINE
  5
E2
330
1F
100
AcDbEntity
  8
Unnamed [1]
  6
Continuous
 62
     1
370
     0
100
AcDbLine
 10
259.8936767578125
 20
68.98771648854017
 30
0.0
 11
267.1948653212856
 21
68.98771648854017
 31
0.0
  0
LINE
  5
E3
330
1F
100
AcDbEntity
  8
Unnamed [1]
  6
Continuous
 62
     1
370
     0
100
AcDbLine
 10
262.558524870207
 20
66.28981813437736
 30
0.0
 11
265.342407778766
 21
66.28981813437736
 31
0.0
  0
LINE
  5
E4
330
1F
100
AcDbEntity
  8
Unnamed [1]
  6
Continuous
 62
     1
370
     0
100
AcDbLine
 10
267.1948653212856
 20
66.85923534954725
 30
0.0
 11
267.1948653212856
 21
67.48771648854017
 31
0.0
  0
LINE
  5
E5
330
1F
100
AcDbEntity
  8
Unnamed [1]
  6
Continuous
 62
     1
370
     0
100
AcDbLine
 10
291.2015164293537
 20
73.3085477873683
 30
0.0
 11
294.7797393798828
 21
73.3085477873683
 31
0.0
  0
LINE
  5
E6
330
1F
100
AcDbEntity
  8
Unnamed [1]
  6
Continuous
 62
     1
370
     0
100
AcDbLine
 10
291.2015164293537
 20
68.98771648854017
 30
0.0
 11
294.7797393798828
 21
68.98771648854017
 31
0.0
  0
LINE
  5
E7
330
1F
100
AcDbEntity
  8
Unnamed [1]
  6
Continuous
 62
     1
370
     0
100
AcDbLine
 10
291.2015164293537
 20
71.8085477873683
 30
0.0
 11
294.7797393798828
 21
71.8085477873683
 31
0.0
  0
LINE
  5
E8
330
1F
100
AcDbEntity
  8
Unnamed [1]
  6
Continuous
 62
     1
370
     0
100
AcDbLine
 10
291.2015164293537
 20
67.48771648854017
 30
0.0
 11
294.7797393798828
 21
67.48771648854017
 31
0.0
  0
LINE
  5
E9
330
1F
100
AcDbEntity
  8
Unnamed [1]
  6
Continuous
 62
     1
370
     0
100
AcDbLine
 10
291.2015164293537
 20
63.16688518971205
 30
0.0
 11
294.7797393798828
 21
63.16688518971205
 31
0.0
  0
LINE
  5
EA
330
1F
100
AcDbEntity
  8
Unnamed [1]
  6
Continuous
 62
     1
370
     0
100
AcDbLine
 10
291.2015164293537
 20
64.66688518971205
 30
0.0
 11
294.7797393798828
 21
64.66688518971205
 31
0.0
  0
LINE
  5
EB
330
1F
100
AcDbEntity
  8
Unnamed [1]
  6
Continuous
 62
     1
370
     0
100
AcDbLine
 10
282.2357932398195
 20
74.56062316894531
 30
0.0
 11
284.9408580823109
 21
74.56062316894531
 31
0.0
  0
LINE
  5
EC
330
1F
100
AcDbEntity
  8
Unnamed [1]
  6
Continuous
 62
     1
370
     0
100
AcDbLine
 10
286.3456317069982
 20
71.8085477873683
 30
0.0
 11
287.7855012086886
 21
68.98771648854017
 31
0.0
  0
LINE
  5
ED
330
1F
100
AcDbEntity
  8
Unnamed [1]
  6
Continuous
 62
     1
370
     0
100
AcDbLine
 10
288.470871777477
 20
68.98771648854017
 30
0.0
 11
288.470871777477
 21
71.8085477873683
 31
0.0
  0
LINE
  5
EE
330
1F
100
AcDbEntity
  8
Unnamed [1]
  6
Continuous
 62
     1
370
     0
100
AcDbLine
 10
288.470871777477
 20
74.56062316894531
 30
0.0
 11
291.2015164293537
 21
74.56062316894531
 31
0.0
  0
LINE
  5
EF
330
1F
100
AcDbEntity
  8
Unnamed [1]
  6
Continuous
 62
     1
370
     0
100
AcDbLine
 10
291.2015164293537
 20
63.16688518971205
 30
0.0
 11
291.2015164293537
 21
62.0606229826808
 31
0.0
  0
LINE
  5
F0
330
1F
100
AcDbEntity
  8
Unnamed [1]
  6
Continuous
 62
     1
370
     0
100
AcDbLine
 10
291.2015164293537
 20
62.0606229826808
 30
0.0
 11
288.470871777477
 21
62.0606229826808
 31
0.0
  0
LINE
  5
F1
330
1F
100
AcDbEntity
  8
Unnamed [1]
  6
Continuous
 62
     1
370
     0
100
AcDbLine
 10
288.470871777477
 20
62.0606229826808
 30
0.0
 11
287.9049850300648
 21
63.16688518971205
 31
0.0
  0
LINE
  5
F2
330
1F
100
AcDbEntity
  8
Unnamed [1]
  6
Continuous
 62
     1
370
     0
100
AcDbLine
 10
284.9600429393499
 20
63.16688518971205
 30
0.0
 11
284.9600429393499
 21
62.0606229826808
 31
0.0
  0
LINE
  5
F3
330
1F
100
AcDbEntity
  8
Unnamed [1]
  6
Continuous
 62
     1
370
     0
100
AcDbLine
 10
284.9600429393499
 20
62.0606229826808
 30
0.0
 11
282.2357932398195
 21
62.0606229826808
 31
0.0
  0
LINE
  5
F4
330
1F
100
AcDbEntity
  8
Unnamed [1]
  6
Continuous
 62
     1
370
     0
100
AcDbLine
 10
282.2357932398195
 20
62.0606229826808
 30
0.0
 11
282.2357932398195
 21
63.16688518971205
 31
0.0
  0
LINE
  5
F5
330
1F
100
AcDbEntity
  8
Unnamed [1]
  6
Continuous
 62
     1
370
     0
100
AcDbLine
 10
291.2015164293537
 20
74.56062316894531
 30
0.0
 11
291.2015164293537
 21
73.3085477873683
 31
0.0
  0
LINE
  5
F6
330
1F
100
AcDbEntity
  8
Unnamed [1]
  6
Continuous
 62
     1
370
     0
100
AcDbLine
 10
291.2015164293537
 20
71.8085477873683
 30
0.0
 11
291.2015164293537
 21
68.98771648854017
 31
0.0
  0
LINE
  5
F7
330
1F
100
AcDbEntity
  8
Unnamed [1]
  6
Continuous
 62
     1
370
     0
100
AcDbLine
 10
291.2015164293537
 20
67.48771648854017
 30
0.0
 11
291.2015164293537
 21
64.66688518971205
 31
0.0
  0
LINE
  5
F8
330
1F
100
AcDbEntity
  8
Unnamed [1]
  6
Continuous
 62
     1
370
     0
100
AcDbLine
 10
286.3456317069982
 20
71.8085477873683
 30
0.0
 11
288.470871777477
 21
71.8085477873683
 31
0.0
  0
LINE
  5
F9
330
1F
100
AcDbEntity
  8
Unnamed [1]
  6
Continuous
 62
     1
370
     0
100
AcDbLine
 10
285.5799693813451
 20
73.3085477873683
 30
0.0
 11
288.470871777477
 21
73.3085477873683
 31
0.0
  0
LINE
  5
FA
330
1F
100
AcDbEntity
  8
Unnamed [1]
  6
Continuous
 62
     1
370
     0
100
AcDbLine
 10
284.9600429393499
 20
67.48771648854017
 30
0.0
 11
285.6947484746894
 21
67.48771648854017
 31
0.0
  0
LINE
  5
FB
330
1F
100
AcDbEntity
  8
Unnamed [1]
  6
Continuous
 62
     1
370
     0
100
AcDbLine
 10
284.9600429393499
 20
64.66688518971205
 30
0.0
 11
287.1376894325805
 21
64.66688518971205
 31
0.0
  0
LINE
  5
FC
330
1F
100
AcDbEntity
  8
Unnamed [1]
  6
Continuous
 62
     1
370
     0
100
AcDbLine
 10
284.9600429393499
 20
63.16688518971205
 30
0.0
 11
287.9049850300648
 21
63.16688518971205
 31
0.0
  0
LINE
  5
FD
330
1F
100
AcDbEntity
  8
Unnamed [1]
  6
Continuous
 62
     1
370
     0
100
AcDbLine
 10
288.470871777477
 20
73.3085477873683
 30
0.0
 11
288.470871777477
 21
74.56062316894531
 31
0.0
  0
LINE
  5
FE
330
1F
100
AcDbEntity
  8
Unnamed [1]
  6
Continuous
 62
     1
370
     0
100
AcDbLine
 10
280.4422211759527
 20
71.8085477873683
 30
0.0
 11
282.2357932398195
 21
71.8085477873683
 31
0.0
  0
LINE
  5
FF
330
1F
100
AcDbEntity
  8
Unnamed [1]
  6
Continuous
 62
     1
370
     0
100
AcDbLine
 10
284.9408580823109
 20
74.56062316894531
 30
0.0
 11
285.5799693813451
 21
73.3085477873683
 31
0.0
  0
LINE
  5
100
330
1F
100
AcDbEntity
  8
Unnamed [1]
  6
Continuous
 62
     1
370
     0
100
AcDbLine
 10
279.6654458024693
 20
73.3085477873683
 30
0.0
 11
282.2357932398195
 21
73.3085477873683
 31
0.0
  0
LINE
  5
101
330
1F
100
AcDbEntity
  8
Unnamed [1]
  6
Continuous
 62
     1
370
     0
100
AcDbLine
 10
287.1376894325805
 20
64.66688518971205
 30
0.0
 11
285.6947484746894
 21
67.48771648854017
 31
0.0
  0
LINE
  5
102
330
1F
100
AcDbEntity
  8
Unnamed [1]
  6
Continuous
 62
     1
370
     0
100
AcDbLine
 10
284.9600429393499
 20
67.48771648854017
 30
0.0
 11
284.9600429393499
 21
64.66688518971205
 31
0.0
  0
LINE
  5
103
330
1F
100
AcDbEntity
  8
Unnamed [1]
  6
Continuous
 62
     1
370
     0
100
AcDbLine
 10
282.2357932398195
 20
64.66688518971205
 30
0.0
 11
282.2357932398195
 21
67.48771648854017
 31
0.0
  0
LINE
  5
104
330
1F
100
AcDbEntity
  8
Unnamed [1]
  6
Continuous
 62
     1
370
     0
100
AcDbLine
 10
279.5892719017131
 20
63.16688518971205
 30
0.0
 11
282.2357932398195
 21
63.16688518971205
 31
0.0
  0
LINE
  5
105
330
1F
100
AcDbEntity
  8
Unnamed [1]
  6
Continuous
 62
     1
370
     0
100
AcDbLine
 10
280.4168089546977
 20
64.66688518971205
 30
0.0
 11
282.2357932398195
 21
64.66688518971205
 31
0.0
  0
LINE
  5
106
330
1F
100
AcDbEntity
  8
Unnamed [1]
  6
Continuous
 62
     1
370
     0
100
AcDbLine
 10
282.2357932398195
 20
73.3085477873683
 30
0.0
 11
282.2357932398195
 21
74.56062316894531
 31
0.0
  0
LINE
  5
107
330
1F
100
AcDbEntity
  8
Unnamed [1]
  6
Continuous
 62
     1
370
     0
100
AcDbLine
 10
282.2357932398195
 20
68.98771648854017
 30
0.0
 11
282.2357932398195
 21
71.8085477873683
 31
0.0
  0
LINE
  5
108
330
1F
100
AcDbEntity
  8
Unnamed [1]
  6
Continuous
 62
     1
370
     0
100
AcDbLine
 10
287.7855012086886
 20
68.98771648854017
 30
0.0
 11
288.470871777477
 21
68.98771648854017
 31
0.0
  0
LINE
  5
109
330
1F
100
AcDbEntity
  8
Unnamed [1]
  6
Continuous
 62
     1
370
     0
100
AcDbLine
 10
274.6089737499317
 20
68.98771648854017
 30
0.0
 11
282.2357932398195
 21
68.98771648854017
 31
0.0
  0
LINE
  5
10A
330
1F
100
AcDbEntity
  8
Unnamed [1]
  6
Continuous
 62
     1
370
     0
100
AcDbLine
 10
274.6183455328364
 20
67.48771648854017
 30
0.0
 11
282.2357932398195
 21
67.48771648854017
 31
0.0
  0
LINE
  5
10B
330
1F
100
AcDbEntity
  8
Unnamed [1]
  6
Continuous
 62
     1
370
     0
100
AcDbLine
 10
278.0279388044467
 20
66.1533924843227
 30
0.0
 11
280.8097188665911
 21
66.1533924843227
 31
0.0
  0
LINE
  5
10C
330
1F
100
AcDbEntity
  8
Unnamed [1]
  6
Continuous
 62
     1
370
     0
100
AcDbLine
 10
277.9202044335642
 20
70.88565722059604
 30
0.0
 11
280.7201895337428
 21
70.88565722059604
 31
0.0
  0
LINE
  5
10D
330
1F
100
AcDbEntity
  8
Unnamed [1]
  6
Continuous
 62
     1
370
     0
100
AcDbLine
 10
276.0081843965205
 20
71.8085477873683
 30
0.0
 11
276.9600583784347
 21
71.8085477873683
 31
0.0
  0
LINE
  5
10E
330
1F
100
AcDbEntity
  8
Unnamed [1]
  6
Continuous
 62
     1
370
     0
100
AcDbLine
 10
270.0981736865128
 20
73.3085477873683
 30
0.0
 11
273.0857245280577
 21
73.3085477873683
 31
0.0
  0
LINE
  5
10F
330
1F
100
AcDbEntity
  8
Unnamed [1]
  6
Continuous
 62
     1
370
     0
100
AcDbLine
 10
270.0981736865128
 20
71.8085477873683
 30
0.0
 11
272.2293145700167
 21
71.8085477873683
 31
0.0
  0
LINE
  5
110
330
1F
100
AcDbEntity
  8
Unnamed [1]
  6
Continuous
 62
     1
370
     0
100
AcDbLine
 10
270.096898656263
 20
67.48771648854017
 30
0.0
 11
271.7158437300336
 21
67.48771648854017
 31
0.0
  0
LINE
  5
111
330
1F
100
AcDbEntity
  8
Unnamed [1]
  6
Continuous
 62
     1
370
     0
100
AcDbLine
 10
270.0981736865128
 20
68.98771648854017
 30
0.0
 11
271.7046820654022
 21
68.98771648854017
 31
0.0
  0
LINE
  5
112
330
1F
100
AcDbEntity
  8
Unnamed [1]
  6
Continuous
 62
     1
370
     0
100
AcDbLine
 10
269.8500573264391
 20
64.66688518971205
 30
0.0
 11
272.3285777721984
 21
64.66688518971205
 31
0.0
  0
LINE
  5
113
330
1F
100
AcDbEntity
  8
Unnamed [1]
  6
Continuous
 62
     1
370
     0
100
AcDbLine
 10
269.1702476426828
 20
63.16688518971205
 30
0.0
 11
273.2376646735093
 21
63.16688518971205
 31
0.0
  0
LINE
  5
114
330
1F
100
AcDbEntity
  8
Unnamed [1]
  6
Continuous
 62
     1
370
     0
100
AcDbLine
 10
259.8936767578125
 20
71.8085477873683
 30
0.0
 11
267.1948653212856
 21
71.8085477873683
 31
0.0
  0
LINE
  5
115
330
1F
100
AcDbEntity
  8
Unnamed [1]
  6
Continuous
 62
     1
370
     0
100
AcDbLine
 10
259.8936767578125
 20
73.3085477873683
 30
0.0
 11
267.1948653212856
 21
73.3085477873683
 31
0.0
  0
LINE
  5
116
330
1F
100
AcDbEntity
  8
Unnamed [1]
  6
Continuous
 62
     1
370
     0
100
AcDbLine
 10
259.8936767578125
 20
67.48771648854017
 30
0.0
 11
267.1948653212856
 21
67.48771648854017
 31
0.0
  0
LINE
  5
117
330
1F
100
AcDbEntity
  8
Unnamed [1]
  6
Continuous
 62
     1
370
     0
100
AcDbLine
 10
259.8936767578125
 20
63.16688518971205
 30
0.0
 11
263.4408830462768
 21
63.16688518971205
 31
0.0
  0
LINE
  5
118
330
1F
100
AcDbEntity
  8
Unnamed [1]
  6
Continuous
 62
     1
370
     0
100
AcDbLine
 10
259.8936767578125
 20
64.66688518971205
 30
0.0
 11
262.7887039818571
 21
64.66688518971205
 31
0.0
  0
LINE
  5
119
330
1F
100
AcDbEntity
  8
Unnamed [1]
  6
Continuous
 62
     1
370
     0
100
AcDbLine
 10
267.1948653212856
 20
68.98771648854017
 30
0.0
 11
267.1948653212856
 21
71.8085477873683
 31
0.0
  0
LINE
  5
11A
330
1F
100
AcDbEntity
  8
Unnamed [1]
  6
Continuous
 62
     1
370
     0
100
AcDbLine
 10
267.1948653212856
 20
73.3085477873683
 30
0.0
 11
267.1948653212856
 21
74.56062316894531
 31
0.0
  0
LINE
  5
11B
330
1F
100
AcDbEntity
  8
Unnamed [1]
  6
Continuous
 62
     1
370
     0
100
AcDbLine
 10
156.8936767578125
 20
77.56062316894531
 30
0.0
 11
220.8936767578125
 21
77.56062316894531
 31
0.0
  0
LINE
  5
11C
330
1F
100
AcDbEntity
  8
Unnamed [1]
  6
Continuous
 62
     1
370
     0
100
AcDbLine
 10
161.6633727648972
 20
81.06062316894531
 30
0.0
 11
205.2489807507683
 21
81.06062316894531
 31
0.0
  0
LINE
  5
11D
330
1F
100
AcDbEntity
  8
Unnamed [1]
  6
Continuous
 62
     1
370
     0
100
AcDbLine
 10
161.6633727648972
 20
84.06062316894531
 30
0.0
 11
205.2489807507388
 21
84.06062316894531
 31
0.0
  0
LINE
  5
11E
330
1F
100
AcDbEntity
  8
Unnamed [1]
  6
Continuous
 62
     1
370
     0
100
AcDbLine
 10
220.8936767578125
 20
87.56062316894531
 30
0.0
 11
156.8936767578125
 21
87.56062316894531
 31
0.0
  0
LINE
  5
11F
330
1F
100
AcDbEntity
  8
Unnamed [1]
  6
Continuous
 62
     1
370
     0
100
AcDbLine
 10
199.4636767578125
 20
114.0606231689453
 30
0.0
 11
116.4762524527683
 21
114.0606231689453
 31
0.0
  0
LINE
  5
120
330
1F
100
AcDbEntity
  8
Unnamed [1]
  6
Continuous
 62
     1
370
     0
100
AcDbLine
 10
255.2936767578125
 20
95.56062316894531
 30
0.0
 11
255.2936767578125
 21
98.56062316894531
 31
0.0
  0
LINE
  5
121
330
1F
100
AcDbEntity
  8
Unnamed [1]
  6
Continuous
 62
     1
370
     0
100
AcDbLine
 10
161.6633727648972
 20
95.56062316894531
 30
0.0
 11
255.2936767578125
 21
95.56062316894531
 31
0.0
  0
LINE
  5
122
330
1F
100
AcDbEntity
  8
Unnamed [1]
  6
Continuous
 62
     1
370
     0
100
AcDbLine
 10
116.6633727648972
 20
95.56062316894531
 30
0.0
 11
152.1239807507278
 21
95.56062316894531
 31
0.0
  0
LINE
  5
123
330
1F
100
AcDbEntity
  8
Unnamed [1]
  6
Continuous
 62
     1
370
     0
100
AcDbLine
 10
121.8936767578125
 20
130.5606231689453
 30
0.0
 11
165.6239807507278
 21
130.5606231689453
 31
0.0
  0
LINE
  5
124
330
1F
100
AcDbEntity
  8
Unnamed [1]
  6
Continuous
 62
     1
370
     0
100
AcDbLine
 10
121.8936767578125
 20
130.5606231689453
 30
0.0
 11
121.8936767578125
 21
127.5606231689453
 31
0.0
  0
LINE
  5
125
330
1F
100
AcDbEntity
  8
Unnamed [1]
  6
Continuous
 62
     1
370
     0
100
AcDbLine
 10
175.1633727648825
 20
130.5606231689922
 30
0.0
 11
240.6239807507278
 21
130.5606231689922
 31
0.0
  0
LINE
  5
126
330
1F
100
AcDbEntity
  8
Unnamed [1]
  6
Continuous
 62
     1
370
     0
100
AcDbLine
 10
238.6633727648972
 20
81.06062316894531
 30
0.0
 11
282.2489807507683
 21
81.06062316894531
 31
0.0
  0
LINE
  5
127
330
1F
100
AcDbEntity
  8
Unnamed [1]
  6
Continuous
 62
     1
370
     0
100
AcDbLine
 10
227.6936767578125
 20
67.56062316894531
 30
0.0
 11
227.6936767578125
 21
70.56062316894531
 31
0.0
  0
LINE
  5
128
330
1F
100
AcDbEntity
  8
Unnamed [1]
  6
Continuous
 62
     1
370
     0
100
AcDbLine
 10
227.6936767578125
 20
67.56062316894531
 30
0.0
 11
161.4762524527683
 21
67.56062316894531
 31
0.0
  0
LINE
  5
129
330
1F
100
AcDbEntity
  8
Unnamed [1]
  6
Continuous
 62
     1
370
     0
100
AcDbLine
 10
227.6936767578125
 20
70.56062316894531
 30
0.0
 11
161.7926562433789
 21
70.56062316894531
 31
0.0
  0
LINE
  5
12A
330
1F
100
AcDbEntity
  8
Unnamed [1]
  6
Continuous
 62
     1
370
     0
100
AcDbLine
 10
155.3936767578125
 20
103.0606231689453
 30
0.0
 11
155.3936767578125
 21
106.0606231689453
 31
0.0
  0
LINE
  5
12B
330
1F
100
AcDbEntity
  8
Unnamed [1]
  6
Continuous
 62
     1
370
     0
100
AcDbLine
 10
255.2936767578125
 20
103.0606231689453
 30
0.0
 11
255.2936767578125
 21
106.0606231689453
 31
0.0
  0
LINE
  5
12C
330
1F
100
AcDbEntity
  8
Unnamed [1]
  6
Continuous
 62
     1
370
     0
100
AcDbLine
 10
157.59291916273
 20
150.0606231689453
 30
0.0
 11
157.59291916273
 21
145.0606231689453
 31
0.0
  0
LINE
  5
12D
330
1F
100
AcDbEntity
  8
Unnamed [1]
  6
Continuous
 62
     1
370
     0
100
AcDbLine
 10
212.09291916273
 20
145.0606231689453
 30
0.0
 11
212.09291916273
 21
150.0606231689453
 31
0.0
  0
LINE
  5
12E
330
1F
100
AcDbEntity
  8
Unnamed [1]
  6
Continuous
 62
     1
370
     0
100
AcDbLine
 10
154.59291916273
 20
162.1606231689453
 30
0.0
 11
154.59291916273
 21
142.0606231689453
 31
0.0
  0
LINE
  5
12F
330
1F
100
AcDbEntity
  8
Unnamed [1]
  6
Continuous
 62
     1
370
     0
100
AcDbLine
 10
130.2436767578125
 20
155.3611964558038
 30
0.0
 11
130.2436767578125
 21
158.9088375131171
 31
0.0
  0
LINE
  5
130
330
1F
100
AcDbEntity
  8
Unnamed [1]
  6
Continuous
 62
     1
370
     0
100
AcDbLine
 10
128.2436767578125
 20
137.0606231689453
 30
0.0
 11
128.2436767578125
 21
193.3535899866932
 31
0.0
  0
LINE
  5
131
330
1F
100
AcDbEntity
  8
Unnamed [1]
  6
Continuous
 62
     1
370
     0
100
AcDbLine
 10
128.2436767578125
 20
137.0606231689453
 30
0.0
 11
146.59291916273
 21
137.0606231689453
 31
0.0
  0
LINE
  5
132
330
1F
100
AcDbEntity
  8
Unnamed [1]
  6
Continuous
 62
     1
370
     0
100
AcDbLine
 10
265.2936767578125
 20
97.06062316894531
 30
0.0
 11
265.2936767578125
 21
106.0606231689453
 31
0.0
  0
LINE
  5
133
330
1F
100
AcDbEntity
  8
Unnamed [1]
  6
Continuous
 62
     1
370
     0
100
AcDbLine
 10
108.8936767578125
 20
155.3611964558038
 30
0.0
 11
108.8936767578125
 21
158.9088375131171
 31
0.0
  0
LINE
  5
134
330
1F
100
AcDbEntity
  8
Unnamed [1]
  6
Continuous
 62
     1
370
     0
100
AcDbLine
 10
125.24291916273
 20
137.0606231689453
 30
0.0
 11
125.24291916273
 21
199.8455914084836
 31
0.0
  0
LINE
  5
135
330
1F
100
AcDbEntity
  8
Unnamed [1]
  6
Continuous
 62
     1
370
     0
100
AcDbLine
 10
123.24291916273
 20
160.1031409187134
 30
0.0
 11
123.24291916273
 21
162.9103435251377
 31
0.0
  0
LINE
  5
136
330
1F
100
AcDbEntity
  8
Unnamed [1]
  6
Continuous
 62
     1
370
     0
100
AcDbLine
 10
106.8936767578125
 20
137.0606231689453
 30
0.0
 11
125.24291916273
 21
137.0606231689453
 31
0.0
  0
LINE
  5
137
330
1F
100
AcDbEntity
  8
Unnamed [1]
  6
Continuous
 62
     1
370
     0
100
AcDbLine
 10
106.8936767578125
 20
137.0606231689453
 30
0.0
 11
106.8936767578125
 21
193.3535899866932
 31
0.0
  0
LINE
  5
138
330
1F
100
AcDbEntity
  8
Unnamed [1]
  6
Continuous
 62
     1
370
     0
100
AcDbLine
 10
233.8936767578125
 20
77.56062316894531
 30
0.0
 11
297.8936767578125
 21
77.56062316894531
 31
0.0
  0
LINE
  5
139
330
1F
100
AcDbEntity
  8
Unnamed [1]
  6
Continuous
 62
     1
370
     0
100
AcDbLine
 10
297.8936767578125
 20
87.56062316894531
 30
0.0
 11
233.8936767578125
 21
87.56062316894531
 31
0.0
  0
LINE
  5
13A
330
1F
100
AcDbEntity
  8
Unnamed [1]
  6
Continuous
 62
     1
370
     0
100
AcDbLine
 10
285.3936767578125
 20
97.06062316894531
 30
0.0
 11
285.3936767578125
 21
106.0606231689453
 31
0.0
  0
LINE
  5
13B
330
1F
100
AcDbEntity
  8
Unnamed [1]
  6
Continuous
 62
     1
370
     0
100
AcDbLine
 10
289.3936767578125
 20
91.06062316894531
 30
0.0
 11
289.3936767578125
 21
108.0606231689453
 31
0.0
  0
LINE
  5
13C
330
1F
100
AcDbEntity
  8
Unnamed [1]
  6
Continuous
 62
     1
370
     0
100
AcDbLine
 10
106.8936767578125
 20
103.0606231689453
 30
0.0
 11
106.8936767578125
 21
96.06062316894531
 31
0.0
  0
LINE
  5
13D
330
1F
100
AcDbEntity
  8
Unnamed [1]
  6
Continuous
 62
     1
370
     0
100
AcDbLine
 10
251.8936767578125
 20
74.56062316894531
 30
0.0
 11
156.8936767578125
 21
74.56062316894531
 31
0.0
  0
LINE
  5
13E
330
1F
100
AcDbEntity
  8
Unnamed [1]
  6
Continuous
 62
     1
370
     0
100
AcDbLine
 10
106.8936767578125
 20
134.0606231689453
 30
0.0
 11
106.8936767578125
 21
124.0606231689453
 31
0.0
  0
ARC
  5
13F
330
1F
100
AcDbEntity
  8
Unnamed [1]
  6
Continuous
 62
     1
370
     0
100
AcDbCircle
 10
245.3936767578125
 20
129.0606231689922
 30
0.0
 40
5.0
100
AcDbArc
 50
162.5423968762773
 51
197.4576031237222
  0
ARC
  5
140
330
1F
100
AcDbEntity
  8
Unnamed [1]
  6
Continuous
 62
     1
370
     0
100
AcDbCircle
 10
245.3936767578125
 20
129.0606231689453
 30
0.0
 40
5.0
100
AcDbArc
 50
270.0
 51
90.0
  0
ARC
  5
141
330
1F
100
AcDbEntity
  8
Unnamed [1]
  6
Continuous
 62
     1
370
     0
100
AcDbCircle
 10
156.8936767578125
 20
82.56062316894531
 30
0.0
 40
5.0
100
AcDbArc
 50
342.5423968762778
 51
17.45760312372215
  0
ARC
  5
142
330
1F
100
AcDbEntity
  8
Unnamed [1]
  6
Continuous
 62
     1
370
     0
100
AcDbCircle
 10
156.8936767578125
 20
56.56062316894531
 30
0.0
 40
5.0
100
AcDbArc
 50
90.0
 51
270.0
  0
ARC
  5
143
330
1F
100
AcDbEntity
  8
Unnamed [1]
  6
Continuous
 62
     1
370
     0
100
AcDbCircle
 10
156.8936767578125
 20
69.56062316894531
 30
0.0
 40
5.0
100
AcDbArc
 50
90.0
 51
270.0
  0
ARC
  5
144
330
1F
100
AcDbEntity
  8
Unnamed [1]
  6
Continuous
 62
     1
370
     0
100
AcDbCircle
 10
156.8936767578125
 20
82.56062316894531
 30
0.0
 40
5.0
100
AcDbArc
 50
90.0
 51
270.0
  0
ARC
  5
145
330
1F
100
AcDbEntity
  8
Unnamed [1]
  6
Continuous
 62
     1
370
     0
100
AcDbCircle
 10
207.9886767578224
 20
114.1640275346631
 30
0.0
 40
0.2400000000000091
100
AcDbArc
 50
300.0000000002983
 51
17.41185961922564
  0
ARC
  5
146
330
1F
100
AcDbEntity
  8
Unnamed [1]
  6
Continuous
 62
     1
370
     0
100
AcDbCircle
 10
208.4990603571287
 20
114.5710448732366
 30
0.0
 40
0.2400000000000028
100
AcDbArc
 50
239.7309975242714
 51
317.1428571432037
  0
ARC
  5
147
330
1F
100
AcDbEntity
  8
Unnamed [1]
  6
Continuous
 62
     1
370
     0
100
AcDbCircle
 10
208.4990603571287
 20
114.5710448732366
 30
0.0
 40
0.2400000000000091
100
AcDbArc
 50
317.1428571432012
 51
34.55471676212754
  0
ARC
  5
148
330
1F
100
AcDbEntity
  8
Unnamed [1]
  6
Continuous
 62
     1
370
     0
100
AcDbCircle
 10
209.0837328699789
 20
115.3850803245004
 30
0.0
 40
0.11
100
AcDbArc
 50
94.01671181007022
 51
231.6975739050369
  0
ARC
  5
149
330
1F
100
AcDbEntity
  8
Unnamed [1]
  6
Continuous
 62
     1
370
     0
100
AcDbCircle
 10
209.1855545706809
 20
116.0606231689633
 30
0.0
 40
0.11
100
AcDbArc
 50
111.1595689529698
 51
248.8404310479347
  0
ARC
  5
14A
330
1F
100
AcDbEntity
  8
Unnamed [1]
  6
Continuous
 62
     1
370
     0
100
AcDbCircle
 10
209.0837328699683
 20
116.7361660134247
 30
0.0
 40
0.11
100
AcDbArc
 50
128.3024260958649
 51
265.9832881908353
  0
ARC
  5
14B
330
1F
100
AcDbEntity
  8
Unnamed [1]
  6
Continuous
 62
     1
370
     0
100
AcDbCircle
 10
208.7873150727868
 20
117.3516839115827
 30
0.0
 40
0.11
100
AcDbArc
 50
145.4452832387716
 51
283.1261453337338
  0
ARC
  5
14C
330
1F
100
AcDbEntity
  8
Unnamed [1]
  6
Continuous
 62
     1
370
     0
100
AcDbCircle
 10
208.3226392012241
 20
117.8524853970302
 30
0.0
 40
0.11
100
AcDbArc
 50
162.5881403816677
 51
300.2690024766374
  0
ARC
  5
14D
330
1F
100
AcDbEntity
  8
Unnamed [1]
  6
Continuous
 62
     1
370
     0
100
AcDbCircle
 10
208.4990603571053
 20
117.5502014646792
 30
0.0
 40
0.2400000000000091
100
AcDbArc
 50
42.85714285770128
 51
120.2690024766241
  0
ARC
  5
14E
330
1F
100
AcDbEntity
  8
Unnamed [1]
  6
Continuous
 62
     1
370
     0
100
AcDbCircle
 10
207.9886767577926
 20
117.9572188032447
 30
0.0
 40
0.2400000000000028
100
AcDbArc
 50
342.5881403816726
 51
60.00000000060304
  0
ARC
  5
14F
330
1F
100
AcDbEntity
  8
Unnamed [1]
  6
Continuous
 62
     1
370
     0
100
AcDbCircle
 10
207.9886767577926
 20
117.9572188032447
 30
0.0
 40
0.2400000000000091
100
AcDbArc
 50
60.00000000060304
 51
137.4118596195265
  0
ARC
  5
150
330
1F
100
AcDbEntity
  8
Unnamed [1]
  6
Continuous
 62
     1
370
     0
100
AcDbCircle
 10
207.3809976031529
 20
118.1957152966289
 30
0.0
 40
0.2400000000000028
100
AcDbArc
 50
359.7309975245721
 51
77.1428571435016
  0
ARC
  5
151
330
1F
100
AcDbEntity
  8
Unnamed [1]
  6
Continuous
 62
     1
370
     0
100
AcDbCircle
 10
207.3809976031529
 20
118.195715296629
 30
0.0
 40
0.2400000000000091
100
AcDbArc
 50
77.14285714350237
 51
154.5547167624277
  0
ARC
  5
152
330
1F
100
AcDbEntity
  8
Unnamed [1]
  6
Continuous
 62
     1
370
     0
100
AcDbCircle
 10
206.8936767578125
 20
116.0606231689453
 30
0.0
 40
5.0
100
AcDbArc
 50
270.0
 51
90.0
  0
ARC
  5
153
330
1F
100
AcDbEntity
  8
Unnamed [1]
  6
Continuous
 62
     1
370
     0
100
AcDbCircle
 10
206.0935799144242
 20
118.099236678466
 30
0.0
 40
0.2400000000000028
100
AcDbArc
 50
34.01671181037104
 51
111.4285714293042
  0
ARC
  5
154
330
1F
100
AcDbEntity
  8
Unnamed [1]
  6
Continuous
 62
     1
370
     0
100
AcDbCircle
 10
205.5282340917188
 20
117.7728341155319
 30
0.0
 40
0.2400000000000028
100
AcDbArc
 50
51.15956895327203
 51
128.571428572203
  0
ARC
  5
155
330
1F
100
AcDbEntity
  8
Unnamed [1]
  6
Continuous
 62
     1
370
     0
100
AcDbCircle
 10
205.5282340917188
 20
117.7728341155319
 30
0.0
 40
0.2400000000000091
100
AcDbArc
 50
128.5714285722009
 51
205.9832881911249
  0
ARC
  5
156
330
1F
100
AcDbEntity
  8
Unnamed [1]
  6
Continuous
 62
     1
370
     0
100
AcDbCircle
 10
205.0842138420429
 20
117.2942940960789
 30
0.0
 40
0.2400000000000028
100
AcDbArc
 50
68.30242609617416
 51
145.7142857151009
  0
ARC
  5
157
330
1F
100
AcDbEntity
  8
Unnamed [1]
  6
Continuous
 62
     1
370
     0
100
AcDbCircle
 10
204.8009723131312
 20
116.7061370008739
 30
0.0
 40
0.2400000000000091
100
AcDbArc
 50
162.8571428579996
 51
240.2690024769253
  0
ARC
  5
158
330
1F
100
AcDbEntity
  8
Unnamed [1]
  6
Continuous
 62
     1
370
     0
100
AcDbCircle
 10
205.5282340917457
 20
114.3484122223373
 30
0.0
 40
0.2400000000000091
100
AcDbArc
 50
231.4285714286999
 51
308.8404310476255
  0
ARC
  5
159
330
1F
100
AcDbEntity
  8
Unnamed [1]
  6
Continuous
 62
     1
370
     0
100
AcDbCircle
 10
206.0935799144562
 20
114.0220096594121
 30
0.0
 40
0.2400000000000028
100
AcDbArc
 50
171.1595689526735
 51
248.5714285715992
  0
ARC
  5
15A
330
1F
100
AcDbEntity
  8
Unnamed [1]
  6
Continuous
 62
     1
370
     0
100
AcDbCircle
 10
206.7300178528664
 20
113.8767468531179
 30
0.0
 40
0.2400000000000091
100
AcDbArc
 50
265.7142857145016
 51
343.1261453334254
  0
ARC
  5
15B
330
1F
100
AcDbEntity
  8
Unnamed [1]
  6
Continuous
 62
     1
370
     0
100
AcDbCircle
 10
207.3809976031864
 20
113.9255310412693
 30
0.0
 40
0.2400000000000028
100
AcDbArc
 50
205.4452832384707
 51
282.8571428574029
  0
ARC
  5
15C
330
1F
100
AcDbEntity
  8
Unnamed [1]
  6
Continuous
 62
     1
370
     0
100
AcDbCircle
 10
207.3809976031864
 20
113.9255310412693
 30
0.0
 40
0.2400000000000091
100
AcDbArc
 50
282.8571428574022
 51
0.2690024763262014
  0
ARC
  5
15D
330
1F
100
AcDbEntity
  8
Unnamed [1]
  6
Continuous
 62
     1
370
     0
100
AcDbCircle
 10
207.9886767578224
 20
114.1640275346631
 30
0.0
 40
0.2400000000000028
100
AcDbArc
 50
222.5881403813738
 51
300.0000000003
  0
ARC
  5
15E
330
1F
100
AcDbEntity
  8
Unnamed [1]
  6
Continuous
 62
     1
370
     0
100
AcDbCircle
 10
207.0649490012662
 20
113.7751539112784
 30
0.0
 40
0.11
100
AcDbArc
 50
25.44528323846914
 51
163.1261453334337
  0
ARC
  5
15F
330
1F
100
AcDbEntity
  8
Unnamed [1]
  6
Continuous
 62
     1
370
     0
100
AcDbCircle
 10
207.7309937456988
 20
113.9271742778502
 30
0.0
 40
0.11
100
AcDbArc
 50
42.58814038136472
 51
180.2690024763303
  0
ARC
  5
160
330
1F
100
AcDbEntity
  8
Unnamed [1]
  6
Continuous
 62
     1
370
     0
100
AcDbCircle
 10
206.3836859663868
 20
113.826207517868
 30
0.0
 40
0.11
100
AcDbArc
 50
8.302426095569308
 51
145.9832881905337
  0
ARC
  5
161
330
1F
100
AcDbEntity
  8
Unnamed [1]
  6
Continuous
 62
     1
370
     0
100
AcDbCircle
 10
205.213611437087
 20
114.5017503623271
 30
0.0
 40
0.11
100
AcDbArc
 50
334.0167118097718
 51
111.6975739047272
  0
ARC
  5
162
330
1F
100
AcDbEntity
  8
Unnamed [1]
  6
Continuous
 62
     1
370
     0
100
AcDbCircle
 10
204.6273973265016
 20
116.4022098319394
 30
0.0
 40
0.11
100
AcDbArc
 50
282.588140381962
 51
60.26900247693295
  0
ARC
  5
163
330
1F
100
AcDbEntity
  8
Unnamed [1]
  6
Continuous
 62
     1
370
     0
100
AcDbCircle
 10
204.8009723131312
 20
116.7061370008739
 30
0.0
 40
0.2400000000000028
100
AcDbArc
 50
85.44528323907444
 51
162.8571428580029
  0
ARC
  5
164
330
1F
100
AcDbEntity
  8
Unnamed [1]
  6
Continuous
 62
     1
370
     0
100
AcDbCircle
 10
205.084213842043
 20
117.2942940960789
 30
0.0
 40
0.2400000000000091
100
AcDbArc
 50
145.7142857151009
 51
223.1261453340256
  0
ARC
  5
165
330
1F
100
AcDbEntity
  8
Unnamed [1]
  6
Continuous
 62
     1
370
     0
100
AcDbCircle
 10
156.8936767578125
 20
56.56062316894531
 30
0.0
 40
5.0
100
AcDbArc
 50
336.4218215217981
 51
11.53695903281464
  0
ARC
  5
166
330
1F
100
AcDbEntity
  8
Unnamed [1]
  6
Continuous
 62
     1
370
     0
100
AcDbCircle
 10
251.8936767578125
 20
56.56062316894531
 30
0.0
 40
5.0
100
AcDbArc
 50
270.0
 51
90.0
  0
ARC
  5
167
330
1F
100
AcDbEntity
  8
Unnamed [1]
  6
Continuous
 62
     1
370
     0
100
AcDbCircle
 10
219.8936767578125
 20
116.0606231689453
 30
0.0
 40
5.0
100
AcDbArc
 50
336.4218215217981
 51
11.53695903281464
  0
ARC
  5
168
330
1F
100
AcDbEntity
  8
Unnamed [1]
  6
Continuous
 62
     1
370
     0
100
AcDbCircle
 10
312.7036767578124
 20
116.0606231689109
 30
0.0
 40
0.2400000000000028
100
AcDbArc
 50
102.5881403819717
 51
180.0
  0
ARC
  5
169
330
1F
100
AcDbEntity
  8
Unnamed [1]
  6
Continuous
 62
     1
370
     0
100
AcDbCircle
 10
312.8009723131312
 20
116.7061370008739
 30
0.0
 40
0.2400000000000091
100
AcDbArc
 50
162.8571428580017
 51
240.269002476927
  0
ARC
  5
16A
330
1F
100
AcDbEntity
  8
Unnamed [1]
  6
Continuous
 62
     1
370
     0
100
AcDbCircle
 10
312.6273973265016
 20
116.4022098319394
 30
0.0
 40
0.11
100
AcDbArc
 50
282.588140381962
 51
60.26900247691643
  0
ARC
  5
16B
330
1F
100
AcDbEntity
  8
Unnamed [1]
  6
Continuous
 62
     1
370
     0
100
AcDbCircle
 10
312.8009723131312
 20
116.7061370008739
 30
0.0
 40
0.2400000000000028
100
AcDbArc
 50
85.44528323906768
 51
162.8571428580049
  0
ARC
  5
16C
330
1F
100
AcDbEntity
  8
Unnamed [1]
  6
Continuous
 62
     1
370
     0
100
AcDbCircle
 10
313.084213842043
 20
117.2942940960789
 30
0.0
 40
0.2400000000000091
100
AcDbArc
 50
145.7142857150971
 51
223.1261453340327
  0
ARC
  5
16D
330
1F
100
AcDbEntity
  8
Unnamed [1]
  6
Continuous
 62
     1
370
     0
100
AcDbCircle
 10
312.8287661993674
 20
117.0550316839631
 30
0.0
 40
0.11
100
AcDbArc
 50
265.4452832390604
 51
43.12614533400758
  0
ARC
  5
16E
330
1F
100
AcDbEntity
  8
Unnamed [1]
  6
Continuous
 62
     1
370
     0
100
AcDbCircle
 10
313.0842138420429
 20
117.2942940960789
 30
0.0
 40
0.2400000000000028
100
AcDbArc
 50
68.30242609616785
 51
145.7142857150971
  0
ARC
  5
16F
330
1F
100
AcDbEntity
  8
Unnamed [1]
  6
Continuous
 62
     1
370
     0
100
AcDbCircle
 10
313.5282340917188
 20
117.7728341155319
 30
0.0
 40
0.2400000000000091
100
AcDbArc
 50
128.5714285721955
 51
205.9832881911339
  0
ARC
  5
170
330
1F
100
AcDbEntity
  8
Unnamed [1]
  6
Continuous
 62
     1
370
     0
100
AcDbCircle
 10
313.2136114370626
 20
117.6194959755371
 30
0.0
 40
0.11
100
AcDbArc
 50
248.3024260961662
 51
25.98328819111549
  0
ARC
  5
171
330
1F
100
AcDbEntity
  8
Unnamed [1]
  6
Continuous
 62
     1
370
     0
100
AcDbCircle
 10
313.5282340917188
 20
117.7728341155319
 30
0.0
 40
0.2400000000000028
100
AcDbArc
 50
51.15956895326991
 51
128.5714285721976
  0
ARC
  5
172
330
1F
100
AcDbEntity
  8
Unnamed [1]
  6
Continuous
 62
     1
370
     0
100
AcDbCircle
 10
314.0935799144242
 20
118.099236678466
 30
0.0
 40
0.2400000000000091
100
AcDbArc
 50
111.4285714293042
 51
188.8404310482323
  0
ARC
  5
173
330
1F
100
AcDbEntity
  8
Unnamed [1]
  6
Continuous
 62
     1
370
     0
100
AcDbCircle
 10
313.7477378513523
 20
118.0454475772442
 30
0.0
 40
0.11
100
AcDbArc
 50
231.1595689532558
 51
8.840431048220877
  0
ARC
  5
174
330
1F
100
AcDbEntity
  8
Unnamed [1]
  6
Continuous
 62
     1
370
     0
100
AcDbCircle
 10
314.0935799144242
 20
118.099236678466
 30
0.0
 40
0.2400000000000028
100
AcDbArc
 50
34.01671181036822
 51
111.4285714293042
  0
ARC
  5
175
330
1F
100
AcDbEntity
  8
Unnamed [1]
  6
Continuous
 62
     1
370
     0
100
AcDbCircle
 10
314.7300178528321
 20
118.2444994847702
 30
0.0
 40
0.2400000000000091
100
AcDbArc
 50
94.28571428640315
 51
171.697573905332
  0
ARC
  5
176
330
1F
100
AcDbEntity
  8
Unnamed [1]
  6
Continuous
 62
     1
370
     0
100
AcDbCircle
 10
314.3836859663517
 20
118.2950388200146
 30
0.0
 40
0.11
100
AcDbArc
 50
214.0167118103676
 51
351.6975739053216
  0
ARC
  5
177
330
1F
100
AcDbEntity
  8
Unnamed [1]
  6
Continuous
 62
     1
370
     0
100
AcDbCircle
 10
314.7300178528321
 20
118.2444994847702
 30
0.0
 40
0.2400000000000028
100
AcDbArc
 50
16.87385466746627
 51
94.2857142864034
  0
ARC
  5
178
330
1F
100
AcDbEntity
  8
Unnamed [1]
  6
Continuous
 62
     1
370
     0
100
AcDbCircle
 10
315.3809976031529
 20
118.195715296629
 30
0.0
 40
0.2400000000000091
100
AcDbArc
 50
77.14285714349573
 51
154.5547167624337
  0
ARC
  5
179
330
1F
100
AcDbEntity
  8
Unnamed [1]
  6
Continuous
 62
     1
370
     0
100
AcDbCircle
 10
315.0649490012303
 20
118.3460924266149
 30
0.0
 40
0.11
100
AcDbArc
 50
196.8738546674681
 51
334.5547167624244
  0
ARC
  5
17A
330
1F
100
AcDbEntity
  8
Unnamed [1]
  6
Continuous
 62
     1
370
     0
100
AcDbCircle
 10
315.3809976031529
 20
118.1957152966289
 30
0.0
 40
0.2400000000000028
100
AcDbArc
 50
359.7309975245666
 51
77.14285714349498
  0
ARC
  5
17B
330
1F
100
AcDbEntity
  8
Unnamed [1]
  6
Continuous
 62
     1
370
     0
100
AcDbCircle
 10
315.9886767577926
 20
117.9572188032447
 30
0.0
 40
0.2400000000000091
100
AcDbArc
 50
60.00000000059716
 51
137.411859619529
  0
ARC
  5
17C
330
1F
100
AcDbEntity
  8
Unnamed [1]
  6
Continuous
 62
     1
370
     0
100
AcDbCircle
 10
315.7309937456653
 20
118.1940720600536
 30
0.0
 40
0.11
100
AcDbArc
 50
179.7309975245653
 51
317.4118596195156
  0
ARC
  5
17D
330
1F
100
AcDbEntity
  8
Unnamed [1]
  6
Continuous
 62
     1
370
     0
100
AcDbCircle
 10
316.3226392012241
 20
117.8524853970302
 30
0.0
 40
0.11
100
AcDbArc
 50
162.5881403816632
 51
300.2690024766209
  0
ARC
  5
17E
330
1F
100
AcDbEntity
  8
Unnamed [1]
  6
Continuous
 62
     1
370
     0
100
AcDbCircle
 10
317.0837328699683
 20
116.7361660134247
 30
0.0
 40
0.11
100
AcDbArc
 50
128.3024260958765
 51
265.9832881908205
  0
ARC
  5
17F
330
1F
100
AcDbEntity
  8
Unnamed [1]
  6
Continuous
 62
     1
370
     0
100
AcDbCircle
 10
317.0592162672428
 20
116.3870257318889
 30
0.0
 40
0.2400000000000028
100
AcDbArc
 50
291.1595689529707
 51
8.571428571900748
  0
ARC
  5
180
330
1F
100
AcDbEntity
  8
Unnamed [1]
  6
Continuous
 62
     1
370
     0
100
AcDbCircle
 10
317.059216267248
 20
115.7342206060357
 30
0.0
 40
0.2400000000000091
100
AcDbArc
 50
351.4285714289984
 51
68.84043104793142
  0
ARC
  5
181
330
1F
100
AcDbEntity
  8
Unnamed [1]
  6
Continuous
 62
     1
370
     0
100
AcDbCircle
 10
317.1855545706809
 20
116.0606231689633
 30
0.0
 40
0.11
100
AcDbArc
 50
111.1595689529698
 51
248.8404310479209
  0
ARC
  5
182
330
1F
100
AcDbEntity
  8
Unnamed [1]
  6
Continuous
 62
     1
370
     0
100
AcDbCircle
 10
317.059216267248
 20
115.7342206060357
 30
0.0
 40
0.2400000000000028
100
AcDbArc
 50
274.0167118100626
 51
351.4285714290017
  0
ARC
  5
183
330
1F
100
AcDbEntity
  8
Unnamed [1]
  6
Continuous
 62
     1
370
     0
100
AcDbCircle
 10
316.8667985785252
 20
115.1104177802911
 30
0.0
 40
0.2400000000000091
100
AcDbArc
 50
334.2857142860968
 51
51.69757390503322
  0
ARC
  5
184
330
1F
100
AcDbEntity
  8
Unnamed [1]
  6
Continuous
 62
     1
370
     0
100
AcDbCircle
 10
317.0837328699789
 20
115.3850803245004
 30
0.0
 40
0.11
100
AcDbArc
 50
94.01671181007022
 51
231.6975739050207
  0
ARC
  5
185
330
1F
100
AcDbEntity
  8
Unnamed [1]
  6
Continuous
 62
     1
370
     0
100
AcDbCircle
 10
316.8667985785252
 20
115.1104177802911
 30
0.0
 40
0.2400000000000028
100
AcDbArc
 50
256.873854667168
 51
334.2857142860998
  0
ARC
  5
186
330
1F
100
AcDbEntity
  8
Unnamed [1]
  6
Continuous
 62
     1
370
     0
100
AcDbCircle
 10
316.787315072807
 20
114.7695624263376
 30
0.0
 40
0.11
100
AcDbArc
 50
76.87385466716218
 51
214.554716762109
  0
ARC
  5
187
330
1F
100
AcDbEntity
  8
Unnamed [1]
  6
Continuous
 62
     1
370
     0
100
AcDbCircle
 10
315.9886767578224
 20
114.1640275346631
 30
0.0
 40
0.2400000000000091
100
AcDbArc
 50
300.0000000002983
 51
17.4118596192321
  0
ARC
  5
188
330
1F
100
AcDbEntity
  8
Unnamed [1]
  6
Continuous
 62
     1
370
     0
100
AcDbCircle
 10
316.3226392012522
 20
114.2687609408829
 30
0.0
 40
0.11
100
AcDbArc
 50
59.73099752427152
 51
197.4118596192217
  0
ARC
  5
189
330
1F
100
AcDbEntity
  8
Unnamed [1]
  6
Continuous
 62
     1
370
     0
100
AcDbCircle
 10
315.9886767578224
 20
114.1640275346631
 30
0.0
 40
0.2400000000000028
100
AcDbArc
 50
222.5881403813713
 51
300.0000000003
  0
ARC
  5
18A
330
1F
100
AcDbEntity
  8
Unnamed [1]
  6
Continuous
 62
     1
370
     0
100
AcDbCircle
 10
315.3809976031864
 20
113.9255310412693
 30
0.0
 40
0.2400000000000091
100
AcDbArc
 50
282.8571428573955
 51
0.2690024763343307
  0
ARC
  5
18B
330
1F
100
AcDbEntity
  8
Unnamed [1]
  6
Continuous
 62
     1
370
     0
100
AcDbCircle
 10
315.3809976031864
 20
113.9255310412693
 30
0.0
 40
0.2400000000000028
100
AcDbArc
 50
205.4452832384676
 51
282.8571428573963
  0
ARC
  5
18C
330
1F
100
AcDbEntity
  8
Unnamed [1]
  6
Continuous
 62
     1
370
     0
100
AcDbCircle
 10
314.7300178528664
 20
113.8767468531179
 30
0.0
 40
0.2400000000000091
100
AcDbArc
 50
265.7142857144948
 51
343.1261453334299
  0
ARC
  5
18D
330
1F
100
AcDbEntity
  8
Unnamed [1]
  6
Continuous
 62
     1
370
     0
100
AcDbCircle
 10
314.7300178528664
 20
113.8767468531179
 30
0.0
 40
0.2400000000000028
100
AcDbArc
 50
188.3024260955671
 51
265.7142857145083
  0
ARC
  5
18E
330
1F
100
AcDbEntity
  8
Unnamed [1]
  6
Continuous
 62
     1
370
     0
100
AcDbCircle
 10
314.0935799144562
 20
114.0220096594121
 30
0.0
 40
0.2400000000000091
100
AcDbArc
 50
248.5714285715992
 51
325.9832881905285
  0
ARC
  5
18F
330
1F
100
AcDbEntity
  8
Unnamed [1]
  6
Continuous
 62
     1
370
     0
100
AcDbCircle
 10
314.0935799144562
 20
114.0220096594121
 30
0.0
 40
0.2400000000000028
100
AcDbArc
 50
171.1595689526669
 51
248.5714285715992
  0
ARC
  5
190
330
1F
100
AcDbEntity
  8
Unnamed [1]
  6
Continuous
 62
     1
370
     0
100
AcDbCircle
 10
313.5282340917457
 20
114.3484122223373
 30
0.0
 40
0.2400000000000091
100
AcDbArc
 50
231.4285714287052
 51
308.8404310476329
  0
ARC
  5
191
330
1F
100
AcDbEntity
  8
Unnamed [1]
  6
Continuous
 62
     1
370
     0
100
AcDbCircle
 10
313.7477378513835
 20
114.0757987606284
 30
0.0
 40
0.11
100
AcDbArc
 50
351.1595689526722
 51
128.8404310476227
  0
ARC
  5
192
330
1F
100
AcDbEntity
  8
Unnamed [1]
  6
Continuous
 62
     1
370
     0
100
AcDbCircle
 10
313.5282340917457
 20
114.3484122223373
 30
0.0
 40
0.2400000000000028
100
AcDbArc
 50
154.0167118097643
 51
231.4285714287052
  0
ARC
  5
193
330
1F
100
AcDbEntity
  8
Unnamed [1]
  6
Continuous
 62
     1
370
     0
100
AcDbCircle
 10
313.0842138420624
 20
114.8269522417833
 30
0.0
 40
0.2400000000000091
100
AcDbArc
 50
214.2857142857996
 51
291.6975739047368
  0
ARC
  5
194
330
1F
100
AcDbEntity
  8
Unnamed [1]
  6
Continuous
 62
     1
370
     0
100
AcDbCircle
 10
313.213611437087
 20
114.5017503623271
 30
0.0
 40
0.11
100
AcDbArc
 50
334.0167118097718
 51
111.6975739047245
  0
ARC
  5
195
330
1F
100
AcDbEntity
  8
Unnamed [1]
  6
Continuous
 62
     1
370
     0
100
AcDbCircle
 10
313.0842138420623
 20
114.8269522417833
 30
0.0
 40
0.2400000000000028
100
AcDbArc
 50
136.8738546668627
 51
214.2857142858024
  0
ARC
  5
196
330
1F
100
AcDbEntity
  8
Unnamed [1]
  6
Continuous
 62
     1
370
     0
100
AcDbCircle
 10
312.8009723131414
 20
115.4151093369839
 30
0.0
 40
0.2400000000000091
100
AcDbArc
 50
197.1428571429018
 51
274.5547167618308
  0
ARC
  5
197
330
1F
100
AcDbEntity
  8
Unnamed [1]
  6
Continuous
 62
     1
370
     0
100
AcDbCircle
 10
312.627397326507
 20
115.7190365059157
 30
0.0
 40
0.11
100
AcDbArc
 50
299.7309975239687
 51
77.41185961891799
  0
ARC
  5
198
330
1F
100
AcDbEntity
  8
Unnamed [1]
  6
Continuous
 62
     1
370
     0
100
AcDbCircle
 10
312.8009723131413
 20
115.4151093369839
 30
0.0
 40
0.2400000000000028
100
AcDbArc
 50
119.7309975239668
 51
197.1428571429018
  0
ARC
  5
199
330
1F
100
AcDbEntity
  8
Unnamed [1]
  6
Continuous
 62
     1
370
     0
100
AcDbCircle
 10
315.9886767577926
 20
117.9572188032447
 30
0.0
 40
0.2400000000000028
100
AcDbArc
 50
342.5881403816641
 51
60.00000000059716
  0
ARC
  5
19A
330
1F
100
AcDbEntity
  8
Unnamed [1]
  6
Continuous
 62
     1
370
     0
100
AcDbCircle
 10
316.8667985785103
 20
117.0108285576305
 30
0.0
 40
0.2400000000000091
100
AcDbArc
 50
25.7142857147986
 51
103.1261453337372
  0
ARC
  5
19B
330
1F
100
AcDbEntity
  8
Unnamed [1]
  6
Continuous
 62
     1
370
     0
100
AcDbCircle
 10
312.7036767578125
 20
116.0606231689453
 30
0.0
 40
0.2400000000000091
100
AcDbArc
 50
180.0
 51
257.4118596189321
  0
ARC
  5
19C
330
1F
100
AcDbEntity
  8
Unnamed [1]
  6
Continuous
 62
     1
370
     0
100
AcDbCircle
 10
312.8287661993829
 20
115.0662146538951
 30
0.0
 40
0.11
100
AcDbArc
 50
316.8738546668672
 51
94.55471676183089
  0
ARC
  5
19D
330
1F
100
AcDbEntity
  8
Unnamed [1]
  6
Continuous
 62
     1
370
     0
100
AcDbCircle
 10
314.3836859663868
 20
113.826207517868
 30
0.0
 40
0.11
100
AcDbArc
 50
8.302426095571377
 51
145.9832881905275
  0
ARC
  5
19E
330
1F
100
AcDbEntity
  8
Unnamed [1]
  6
Continuous
 62
     1
370
     0
100
AcDbCircle
 10
315.0649490012662
 20
113.7751539112784
 30
0.0
 40
0.11
100
AcDbArc
 50
25.44528323846279
 51
163.1261453334239
  0
ARC
  5
19F
330
1F
100
AcDbEntity
  8
Unnamed [1]
  6
Continuous
 62
     1
370
     0
100
AcDbCircle
 10
315.7309937456988
 20
113.9271742778502
 30
0.0
 40
0.11
100
AcDbArc
 50
42.58814038136472
 51
180.2690024763153
  0
ARC
  5
1A0
330
1F
100
AcDbEntity
  8
Unnamed [1]
  6
Continuous
 62
     1
370
     0
100
AcDbCircle
 10
316.4990603571287
 20
114.5710448732366
 30
0.0
 40
0.2400000000000028
100
AcDbArc
 50
239.7309975242638
 51
317.142857143199
  0
ARC
  5
1A1
330
1F
100
AcDbEntity
  8
Unnamed [1]
  6
Continuous
 62
     1
370
     0
100
AcDbCircle
 10
316.4990603571287
 20
114.5710448732366
 30
0.0
 40
0.2400000000000091
100
AcDbArc
 50
317.1428571431966
 51
34.55471676213034
  0
ARC
  5
1A2
330
1F
100
AcDbEntity
  8
Unnamed [1]
  6
Continuous
 62
     1
370
     0
100
AcDbCircle
 10
317.0592162672428
 20
116.387025731889
 30
0.0
 40
0.2400000000000091
100
AcDbArc
 50
8.571428571900748
 51
85.98328819083532
  0
ARC
  5
1A3
330
1F
100
AcDbEntity
  8
Unnamed [1]
  6
Continuous
 62
     1
370
     0
100
AcDbCircle
 10
316.8667985785103
 20
117.0108285576305
 30
0.0
 40
0.2400000000000028
100
AcDbArc
 50
308.3024260958654
 51
25.71428571480449
  0
ARC
  5
1A4
330
1F
100
AcDbEntity
  8
Unnamed [1]
  6
Continuous
 62
     1
370
     0
100
AcDbCircle
 10
316.7873150727868
 20
117.3516839115827
 30
0.0
 40
0.11
100
AcDbArc
 50
145.4452832387632
 51
283.1261453337194
  0
ARC
  5
1A5
330
1F
100
AcDbEntity
  8
Unnamed [1]
  6
Continuous
 62
     1
370
     0
100
AcDbCircle
 10
316.4990603571053
 20
117.5502014646792
 30
0.0
 40
0.2400000000000091
100
AcDbArc
 50
42.85714285770128
 51
120.2690024766317
  0
ARC
  5
1A6
330
1F
100
AcDbEntity
  8
Unnamed [1]
  6
Continuous
 62
     1
370
     0
100
AcDbCircle
 10
316.4990603571053
 20
117.5502014646792
 30
0.0
 40
0.2400000000000028
100
AcDbArc
 50
325.4452832387635
 51
42.85714285770128
  0
ARC
  5
1A7
330
1F
100
AcDbEntity
  8
Unnamed [1]
  6
Continuous
 62
     1
370
     0
100
AcDbCircle
 10
314.8936767578125
 20
116.0606231689453
 30
0.0
 40
5.0
100
AcDbArc
 50
270.0
 51
90.0
  0
ARC
  5
1A8
330
1F
100
AcDbEntity
  8
Unnamed [1]
  6
Continuous
 62
     1
370
     0
100
AcDbCircle
 10
219.8936767578125
 20
116.0606231689453
 30
0.0
 40
5.0
100
AcDbArc
 50
90.0
 51
270.0
  0
ARC
  5
1A9
330
1F
100
AcDbEntity
  8
Unnamed [1]
  6
Continuous
 62
     1
370
     0
100
AcDbCircle
 10
204.7036767578125
 20
116.0606231689109
 30
0.0
 40
0.2400000000000028
100
AcDbArc
 50
102.5881403819717
 51
180.0
  0
ARC
  5
1AA
330
1F
100
AcDbEntity
  8
Unnamed [1]
  6
Continuous
 62
     1
370
     0
100
AcDbCircle
 10
204.8287661993674
 20
117.0550316839631
 30
0.0
 40
0.11
100
AcDbArc
 50
265.4452832390752
 51
43.12614533403863
  0
ARC
  5
1AB
330
1F
100
AcDbEntity
  8
Unnamed [1]
  6
Continuous
 62
     1
370
     0
100
AcDbCircle
 10
205.2136114370626
 20
117.6194959755371
 30
0.0
 40
0.11
100
AcDbArc
 50
248.3024260961662
 51
25.98328819113529
  0
ARC
  5
1AC
330
1F
100
AcDbEntity
  8
Unnamed [1]
  6
Continuous
 62
     1
370
     0
100
AcDbCircle
 10
206.0935799144242
 20
118.099236678466
 30
0.0
 40
0.2400000000000091
100
AcDbArc
 50
111.4285714292979
 51
188.8404310482256
  0
ARC
  5
1AD
330
1F
100
AcDbEntity
  8
Unnamed [1]
  6
Continuous
 62
     1
370
     0
100
AcDbCircle
 10
205.7477378513524
 20
118.0454475772442
 30
0.0
 40
0.11
100
AcDbArc
 50
231.1595689532674
 51
8.840431048235526
  0
ARC
  5
1AE
330
1F
100
AcDbEntity
  8
Unnamed [1]
  6
Continuous
 62
     1
370
     0
100
AcDbCircle
 10
206.7300178528321
 20
118.2444994847702
 30
0.0
 40
0.2400000000000091
100
AcDbArc
 50
94.28571428640315
 51
171.6975739053244
  0
ARC
  5
1AF
330
1F
100
AcDbEntity
  8
Unnamed [1]
  6
Continuous
 62
     1
370
     0
100
AcDbCircle
 10
206.3836859663517
 20
118.2950388200146
 30
0.0
 40
0.11
100
AcDbArc
 50
214.0167118103676
 51
351.6975739053362
  0
ARC
  5
1B0
330
1F
100
AcDbEntity
  8
Unnamed [1]
  6
Continuous
 62
     1
370
     0
100
AcDbCircle
 10
206.7300178528321
 20
118.2444994847702
 30
0.0
 40
0.2400000000000028
100
AcDbArc
 50
16.87385466747278
 51
94.2857142864034
  0
ARC
  5
1B1
330
1F
100
AcDbEntity
  8
Unnamed [1]
  6
Continuous
 62
     1
370
     0
100
AcDbCircle
 10
207.0649490012303
 20
118.3460924266149
 30
0.0
 40
0.11
100
AcDbArc
 50
196.8738546674681
 51
334.5547167624314
  0
ARC
  5
1B2
330
1F
100
AcDbEntity
  8
Unnamed [1]
  6
Continuous
 62
     1
370
     0
100
AcDbCircle
 10
207.7309937456653
 20
118.1940720600536
 30
0.0
 40
0.11
100
AcDbArc
 50
179.7309975245653
 51
317.411859619531
  0
ARC
  5
1B3
330
1F
100
AcDbEntity
  8
Unnamed [1]
  6
Continuous
 62
     1
370
     0
100
AcDbCircle
 10
208.4990603571053
 20
117.5502014646792
 30
0.0
 40
0.2400000000000028
100
AcDbArc
 50
325.4452832387702
 51
42.85714285770128
  0
ARC
  5
1B4
330
1F
100
AcDbEntity
  8
Unnamed [1]
  6
Continuous
 62
     1
370
     0
100
AcDbCircle
 10
208.8667985785102
 20
117.0108285576305
 30
0.0
 40
0.2400000000000091
100
AcDbArc
 50
25.71428571480153
 51
103.126145333724
  0
ARC
  5
1B5
330
1F
100
AcDbEntity
  8
Unnamed [1]
  6
Continuous
 62
     1
370
     0
100
AcDbCircle
 10
208.8667985785103
 20
117.0108285576305
 30
0.0
 40
0.2400000000000028
100
AcDbArc
 50
308.3024260958728
 51
25.71428571480153
  0
ARC
  5
1B6
330
1F
100
AcDbEntity
  8
Unnamed [1]
  6
Continuous
 62
     1
370
     0
100
AcDbCircle
 10
209.0592162672428
 20
116.387025731889
 30
0.0
 40
0.2400000000000091
100
AcDbArc
 50
8.571428571899766
 51
85.98328819082856
  0
ARC
  5
1B7
330
1F
100
AcDbEntity
  8
Unnamed [1]
  6
Continuous
 62
     1
370
     0
100
AcDbCircle
 10
209.0592162672429
 20
116.3870257318889
 30
0.0
 40
0.2400000000000028
100
AcDbArc
 50
291.159568952972
 51
8.571428571899766
  0
ARC
  5
1B8
330
1F
100
AcDbEntity
  8
Unnamed [1]
  6
Continuous
 62
     1
370
     0
100
AcDbCircle
 10
209.059216267248
 20
115.7342206060357
 30
0.0
 40
0.2400000000000091
100
AcDbArc
 50
351.4285714289994
 51
68.84043104792387
  0
ARC
  5
1B9
330
1F
100
AcDbEntity
  8
Unnamed [1]
  6
Continuous
 62
     1
370
     0
100
AcDbCircle
 10
209.059216267248
 20
115.7342206060357
 30
0.0
 40
0.2400000000000028
100
AcDbArc
 50
274.0167118100694
 51
351.4285714290017
  0
ARC
  5
1BA
330
1F
100
AcDbEntity
  8
Unnamed [1]
  6
Continuous
 62
     1
370
     0
100
AcDbCircle
 10
208.8667985785252
 20
115.1104177802911
 30
0.0
 40
0.2400000000000091
100
AcDbArc
 50
334.2857142860998
 51
51.69757390502578
  0
ARC
  5
1BB
330
1F
100
AcDbEntity
  8
Unnamed [1]
  6
Continuous
 62
     1
370
     0
100
AcDbCircle
 10
208.8667985785252
 20
115.1104177802911
 30
0.0
 40
0.2400000000000028
100
AcDbArc
 50
256.8738546671747
 51
334.2857142861027
  0
ARC
  5
1BC
330
1F
100
AcDbEntity
  8
Unnamed [1]
  6
Continuous
 62
     1
370
     0
100
AcDbCircle
 10
208.787315072807
 20
114.7695624263376
 30
0.0
 40
0.11
100
AcDbArc
 50
76.87385466716218
 51
214.554716762138
  0
ARC
  5
1BD
330
1F
100
AcDbEntity
  8
Unnamed [1]
  6
Continuous
 62
     1
370
     0
100
AcDbCircle
 10
208.3226392012522
 20
114.2687609408829
 30
0.0
 40
0.11
100
AcDbArc
 50
59.73099752427152
 51
197.4118596192358
  0
ARC
  5
1BE
330
1F
100
AcDbEntity
  8
Unnamed [1]
  6
Continuous
 62
     1
370
     0
100
AcDbCircle
 10
206.7300178528664
 20
113.8767468531179
 30
0.0
 40
0.2400000000000028
100
AcDbArc
 50
188.3024260955738
 51
265.7142857145016
  0
ARC
  5
1BF
330
1F
100
AcDbEntity
  8
Unnamed [1]
  6
Continuous
 62
     1
370
     0
100
AcDbCircle
 10
206.0935799144562
 20
114.0220096594121
 30
0.0
 40
0.2400000000000091
100
AcDbArc
 50
248.5714285715992
 51
325.9832881905257
  0
ARC
  5
1C0
330
1F
100
AcDbEntity
  8
Unnamed [1]
  6
Continuous
 62
     1
370
     0
100
AcDbCircle
 10
205.7477378513835
 20
114.0757987606284
 30
0.0
 40
0.11
100
AcDbArc
 50
351.1595689526722
 51
128.8404310476274
  0
ARC
  5
1C1
330
1F
100
AcDbEntity
  8
Unnamed [1]
  6
Continuous
 62
     1
370
     0
100
AcDbCircle
 10
205.5282340917457
 20
114.3484122223373
 30
0.0
 40
0.2400000000000028
100
AcDbArc
 50
154.0167118097734
 51
231.4285714286999
  0
ARC
  5
1C2
330
1F
100
AcDbEntity
  8
Unnamed [1]
  6
Continuous
 62
     1
370
     0
100
AcDbCircle
 10
205.0842138420623
 20
114.8269522417833
 30
0.0
 40
0.2400000000000091
100
AcDbArc
 50
214.2857142857996
 51
291.697573904723
  0
ARC
  5
1C3
330
1F
100
AcDbEntity
  8
Unnamed [1]
  6
Continuous
 62
     1
370
     0
100
AcDbCircle
 10
205.0842138420623
 20
114.8269522417833
 30
0.0
 40
0.2400000000000028
100
AcDbArc
 50
136.8738546668723
 51
214.2857142858024
  0
ARC
  5
1C4
330
1F
100
AcDbEntity
  8
Unnamed [1]
  6
Continuous
 62
     1
370
     0
100
AcDbCircle
 10
204.8009723131414
 20
115.4151093369839
 30
0.0
 40
0.2400000000000091
100
AcDbArc
 50
197.1428571429018
 51
274.554716761824
  0
ARC
  5
1C5
330
1F
100
AcDbEntity
  8
Unnamed [1]
  6
Continuous
 62
     1
370
     0
100
AcDbCircle
 10
204.828766199383
 20
115.0662146538951
 30
0.0
 40
0.11
100
AcDbArc
 50
316.8738546668672
 51
94.55471676183089
  0
ARC
  5
1C6
330
1F
100
AcDbEntity
  8
Unnamed [1]
  6
Continuous
 62
     1
370
     0
100
AcDbCircle
 10
204.627397326507
 20
115.7190365059157
 30
0.0
 40
0.11
100
AcDbArc
 50
299.7309975239687
 51
77.41185961893244
  0
ARC
  5
1C7
330
1F
100
AcDbEntity
  8
Unnamed [1]
  6
Continuous
 62
     1
370
     0
100
AcDbCircle
 10
204.8009723131413
 20
115.4151093369839
 30
0.0
 40
0.2400000000000028
100
AcDbArc
 50
119.7309975239744
 51
197.1428571429018
  0
ARC
  5
1C8
330
1F
100
AcDbEntity
  8
Unnamed [1]
  6
Continuous
 62
     1
370
     0
100
AcDbCircle
 10
204.7036767578125
 20
116.0606231689453
 30
0.0
 40
0.2400000000000091
100
AcDbArc
 50
180.0
 51
257.4118596189255
  0
ARC
  5
1C9
330
1F
100
AcDbEntity
  8
Unnamed [1]
  6
Continuous
 62
     1
370
     0
100
AcDbCircle
 10
210.0186767578383
 20
82.56062316899218
 30
0.0
 40
5.0
100
AcDbArc
 50
162.5423968768406
 51
197.4576031242851
  0
ARC
  5
1CA
330
1F
100
AcDbEntity
  8
Unnamed [1]
  6
Continuous
 62
     1
370
     0
100
AcDbCircle
 10
220.8936767578125
 20
82.56062316894531
 30
0.0
 40
5.0
100
AcDbArc
 50
270.0
 51
90.0
  0
ARC
  5
1CB
330
1F
100
AcDbEntity
  8
Unnamed [1]
  6
Continuous
 62
     1
370
     0
100
AcDbCircle
 10
111.8936767578125
 20
116.0606231689453
 30
0.0
 40
5.0
100
AcDbArc
 50
336.4218215217981
 51
11.53695903281464
  0
ARC
  5
1CC
330
1F
100
AcDbEntity
  8
Unnamed [1]
  6
Continuous
 62
     1
370
     0
100
AcDbCircle
 10
111.8936767578125
 20
116.0606231689453
 30
0.0
 40
5.0
100
AcDbArc
 50
90.0
 51
270.0
  0
ARC
  5
1CD
330
1F
100
AcDbEntity
  8
Unnamed [1]
  6
Continuous
 62
     1
370
     0
100
AcDbCircle
 10
156.8936767578125
 20
69.56062316894531
 30
0.0
 40
5.0
100
AcDbArc
 50
336.4218215217981
 51
11.53695903281464
  0
ARC
  5
1CE
330
1F
100
AcDbEntity
  8
Unnamed [1]
  6
Continuous
 62
     1
370
     0
100
AcDbCircle
 10
156.8936767578125
 20
97.06062316894531
 30
0.0
 40
5.0
100
AcDbArc
 50
342.5423968762778
 51
17.45760312372215
  0
ARC
  5
1CF
330
1F
100
AcDbEntity
  8
Unnamed [1]
  6
Continuous
 62
     1
370
     0
100
AcDbCircle
 10
156.8936767578125
 20
97.06062316894531
 30
0.0
 40
5.0
100
AcDbArc
 50
162.5423968762778
 51
197.4576031237222
  0
ARC
  5
1D0
330
1F
100
AcDbEntity
  8
Unnamed [1]
  6
Continuous
 62
     1
370
     0
100
AcDbCircle
 10
111.8936767578125
 20
97.06062316894531
 30
0.0
 40
5.0
100
AcDbArc
 50
342.542396876278
 51
17.45760312372207
  0
ARC
  5
1D1
330
1F
100
AcDbEntity
  8
Unnamed [1]
  6
Continuous
 62
     1
370
     0
100
AcDbCircle
 10
287.0186767578383
 20
82.56062316899218
 30
0.0
 40
5.0
100
AcDbArc
 50
162.5423968768406
 51
197.4576031242851
  0
ARC
  5
1D2
330
1F
100
AcDbEntity
  8
Unnamed [1]
  6
Continuous
 62
     1
370
     0
100
AcDbCircle
 10
233.8936767578125
 20
82.56062316894531
 30
0.0
 40
5.0
100
AcDbArc
 50
342.5423968762778
 51
17.45760312372215
  0
ARC
  5
1D3
330
1F
100
AcDbEntity
  8
Unnamed [1]
  6
Continuous
 62
     1
370
     0
100
AcDbCircle
 10
170.3936767578125
 20
129.0606231689453
 30
0.0
 40
5.0
100
AcDbArc
 50
342.5423968768409
 51
17.45760312428509
  0
ARC
  5
1D4
330
1F
100
AcDbEntity
  8
Unnamed [1]
  6
Continuous
 62
     1
370
     0
100
AcDbCircle
 10
170.3936767578125
 20
129.0606231689453
 30
0.0
 40
5.0
100
AcDbArc
 50
162.5423968762778
 51
197.4576031237222
  0
ARC
  5
1D5
330
1F
100
AcDbEntity
  8
Unnamed [1]
  6
Continuous
 62
     1
370
     0
100
AcDbCircle
 10
111.8936767578125
 20
103.0606231689453
 30
0.0
 40
5.0
100
AcDbArc
 50
90.0
 51
180.0
  0
ARC
  5
1D6
330
1F
100
AcDbEntity
  8
Unnamed [1]
  6
Continuous
 62
     1
370
     0
100
AcDbCircle
 10
111.8936767578125
 20
96.06062316894531
 30
0.0
 40
5.0
100
AcDbArc
 50
180.0
 51
270.0
  0
ARC
  5
1D7
330
1F
100
AcDbEntity
  8
Unnamed [1]
  6
Continuous
 62
     1
370
     0
100
AcDbCircle
 10
143.09291916273
 20
180.5606231689453
 30
0.0
 40
19.6
100
AcDbArc
 50
79.71343938852489
 51
139.2543383691356
  0
ARC
  5
1D8
330
1F
100
AcDbEntity
  8
Unnamed [1]
  6
Continuous
 62
     1
370
     0
100
AcDbCircle
 10
143.09291916273
 20
140.5606231689453
 30
0.0
 40
19.6
100
AcDbArc
 50
85.61082726704497
 51
130.9631570646386
  0
ARC
  5
1D9
330
1F
100
AcDbEntity
  8
Unnamed [1]
  6
Continuous
 62
     1
370
     0
100
AcDbCircle
 10
143.09291916273
 20
140.5606231689453
 30
0.0
 40
22.4
100
AcDbArc
 50
86.16035576401649
 51
125.0035292834767
  0
ARC
  5
1DA
330
1F
100
AcDbEntity
  8
Unnamed [1]
  6
Continuous
 62
     1
370
     0
100
AcDbCircle
 10
121.74291916273
 20
180.5606231689453
 30
0.0
 40
19.6
100
AcDbArc
 50
79.71343938852493
 51
139.2543383691356
  0
ARC
  5
1DB
330
1F
100
AcDbEntity
  8
Unnamed [1]
  6
Continuous
 62
     1
370
     0
100
AcDbCircle
 10
121.74291916273
 20
140.5606231689453
 30
0.0
 40
19.6
100
AcDbArc
 50
85.61082726704497
 51
130.9631570646386
  0
ARC
  5
1DC
330
1F
100
AcDbEntity
  8
Unnamed [1]
  6
Continuous
 62
     1
370
     0
100
AcDbCircle
 10
121.74291916273
 20
140.5606231689453
 30
0.0
 40
22.4
100
AcDbArc
 50
86.16035576401649
 51
125.0035292834767
  0
ARC
  5
1DD
330
1F
100
AcDbEntity
  8
Unnamed [1]
  6
Continuous
 62
     1
370
     0
100
AcDbCircle
 10
233.8936767578125
 20
82.56062316894531
 30
0.0
 40
5.0
100
AcDbArc
 50
90.0
 51
270.0
  0
ARC
  5
1DE
330
1F
100
AcDbEntity
  8
Unnamed [1]
  6
Continuous
 62
     1
370
     0
100
AcDbCircle
 10
297.8936767578125
 20
82.56062316894531
 30
0.0
 40
5.0
100
AcDbArc
 50
270.0
 51
90.0
  0
ARC
  5
1DF
330
1F
100
AcDbEntity
  8
Unnamed [1]
  6
Continuous
 62
     1
370
     0
100
AcDbCircle
 10
251.8936767578125
 20
69.56062316894531
 30
0.0
 40
5.0
100
AcDbArc
 50
270.0
 51
90.0
  0
CIRCLE
  5
1E0
330
1F
100
AcDbEntity
  8
Unnamed [1]
  6
Continuous
 62
     1
370
     0
100
AcDbCircle
 10
249.09291916273
 20
149.1856231689453
 30
0.0
 40
0.5
  0
CIRCLE
  5
1E1
330
1F
100
AcDbEntity
  8
Unnamed [1]
  6
Continuous
 62
     1
370
     0
100
AcDbCircle
 10
249.09291916273
 20
156.0606231689453
 30
0.0
 40
1.45
  0
CIRCLE
  5
1E2
330
1F
100
AcDbEntity
  8
Unnamed [1]
  6
Continuous
 62
     1
370
     0
100
AcDbCircle
 10
249.09291916273
 20
162.9356231689453
 30
0.0
 40
0.5
  0
CIRCLE
  5
1E3
330
1F
100
AcDbEntity
  8
Unnamed [1]
  6
Continuous
 62
     1
370
     0
100
AcDbCircle
 10
173.96791916273
 20
196.6606231689454
 30
0.0
 40
0.5
  0
CIRCLE
  5
1E4
330
1F
100
AcDbEntity
  8
Unnamed [1]
  6
Continuous
 62
     1
370
     0
100
AcDbCircle
 10
160.21791916273
 20
196.6606231689454
 30
0.0
 40
0.5
  0
CIRCLE
  5
1E5
330
1F
100
AcDbEntity
  8
Unnamed [1]
  6
Continuous
 62
     1
370
     0
100
AcDbCircle
 10
268.7929191627299
 20
179.3106231689453
 30
0.0
 40
1.0
  0
CIRCLE
  5
1E6
330
1F
100
AcDbEntity
  8
Unnamed [1]
  6
Continuous
 62
     1
370
     0
100
AcDbCircle
 10
268.7929191627299
 20
207.3106231689453
 30
0.0
 40
1.0
  0
CIRCLE
  5
1E7
330
1F
100
AcDbEntity
  8
Unnamed [1]
  6
Continuous
 62
     1
370
     0
100
AcDbCircle
 10
266.0929191627299
 20
168.5606231689453
 30
0.0
 40
1.0
  0
CIRCLE
  5
1E8
330
1F
100
AcDbEntity
  8
Unnamed [1]
  6
Continuous
 62
     1
370
     0
100
AcDbCircle
 10
266.09291916273
 20
196.5606231689453
 30
0.0
 40
1.0
  0
CIRCLE
  5
1E9
330
1F
100
AcDbEntity
  8
Unnamed [1]
  6
Continuous
 62
     1
370
     0
100
AcDbCircle
 10
245.3936767578125
 20
129.0606231689922
 30
0.0
 40
0.5
  0
CIRCLE
  5
1EA
330
1F
100
AcDbEntity
  8
Unnamed [1]
  6
Continuous
 62
     1
370
     0
100
AcDbCircle
 10
221.29291916273
 20
185.9106231689453
 30
0.0
 40
1.0
  0
CIRCLE
  5
1EB
330
1F
100
AcDbEntity
  8
Unnamed [1]
  6
Continuous
 62
     1
370
     0
100
AcDbCircle
 10
218.59291916273
 20
175.1606231689453
 30
0.0
 40
1.0
  0
CIRCLE
  5
1EC
330
1F
100
AcDbEntity
  8
Unnamed [1]
  6
Continuous
 62
     1
370
     0
100
AcDbCircle
 10
218.59291916273
 20
203.1606231689453
 30
0.0
 40
1.0
  0
CIRCLE
  5
1ED
330
1F
100
AcDbEntity
  8
Unnamed [1]
  6
Continuous
 62
     1
370
     0
100
AcDbCircle
 10
221.29291916273
 20
213.9106231689453
 30
0.0
 40
1.0
  0
CIRCLE
  5
1EE
330
1F
100
AcDbEntity
  8
Unnamed [1]
  6
Continuous
 62
     1
370
     0
100
AcDbCircle
 10
219.8936767578125
 20
116.0606231689453
 30
0.0
 40
0.5
  0
CIRCLE
  5
1EF
330
1F
100
AcDbEntity
  8
Unnamed [1]
  6
Continuous
 62
     1
370
     0
100
AcDbCircle
 10
286.0186767578125
 20
52.72245790447028
 30
0.0
 40
0.625
  0
CIRCLE
  5
1F0
330
1F
100
AcDbEntity
  8
Unnamed [1]
  6
Continuous
 62
     1
370
     0
100
AcDbCircle
 10
290.2686767578125
 20
52.72245790447028
 30
0.0
 40
0.625
  0
CIRCLE
  5
1F1
330
1F
100
AcDbEntity
  8
Unnamed [1]
  6
Continuous
 62
     1
370
     0
100
AcDbCircle
 10
237.6936767578125
 20
56.56062316894531
 30
0.0
 40
0.5
  0
CIRCLE
  5
1F2
330
1F
100
AcDbEntity
  8
Unnamed [1]
  6
Continuous
 62
     1
370
     0
100
AcDbCircle
 10
247.6936767578125
 20
56.56062316894531
 30
0.0
 40
0.5
  0
CIRCLE
  5
1F3
330
1F
100
AcDbEntity
  8
Unnamed [1]
  6
Continuous
 62
     1
370
     0
100
AcDbCircle
 10
156.8936767578125
 20
56.56062316894531
 30
0.0
 40
0.5
  0
CIRCLE
  5
1F4
330
1F
100
AcDbEntity
  8
Unnamed [1]
  6
Continuous
 62
     1
370
     0
100
AcDbCircle
 10
210.0186767578383
 20
82.56062316899218
 30
0.0
 40
0.4
  0
CIRCLE
  5
1F5
330
1F
100
AcDbEntity
  8
Unnamed [1]
  6
Continuous
 62
     1
370
     0
100
AcDbCircle
 10
156.8936767578125
 20
82.56062316894531
 30
0.0
 40
0.5
  0
CIRCLE
  5
1F6
330
1F
100
AcDbEntity
  8
Unnamed [1]
  6
Continuous
 62
     1
370
     0
100
AcDbCircle
 10
223.7686767578383
 20
82.56062316899218
 30
0.0
 40
0.4
  0
CIRCLE
  5
1F7
330
1F
100
AcDbEntity
  8
Unnamed [1]
  6
Continuous
 62
     1
370
     0
100
AcDbCircle
 10
111.8936767578125
 20
116.0606231689453
 30
0.0
 40
0.5
  0
CIRCLE
  5
1F8
330
1F
100
AcDbEntity
  8
Unnamed [1]
  6
Continuous
 62
     1
370
     0
100
AcDbCircle
 10
307.2686767578125
 20
52.72245790447028
 30
0.0
 40
0.625
  0
CIRCLE
  5
1F9
330
1F
100
AcDbEntity
  8
Unnamed [1]
  6
Continuous
 62
     1
370
     0
100
AcDbCircle
 10
303.0186767578125
 20
52.72245790447028
 30
0.0
 40
0.625
  0
CIRCLE
  5
1FA
330
1F
100
AcDbEntity
  8
Unnamed [1]
  6
Continuous
 62
     1
370
     0
100
AcDbCircle
 10
298.7686767578125
 20
52.72245790447028
 30
0.0
 40
0.625
  0
CIRCLE
  5
1FB
330
1F
100
AcDbEntity
  8
Unnamed [1]
  6
Continuous
 62
     1
370
     0
100
AcDbCircle
 10
294.5186767578125
 20
52.72245790447028
 30
0.0
 40
0.625
  0
CIRCLE
  5
1FC
330
1F
100
AcDbEntity
  8
Unnamed [1]
  6
Continuous
 62
     1
370
     0
100
AcDbCircle
 10
281.7686767578125
 20
52.72245790447028
 30
0.0
 40
0.625
  0
CIRCLE
  5
1FD
330
1F
100
AcDbEntity
  8
Unnamed [1]
  6
Continuous
 62
     1
370
     0
100
AcDbCircle
 10
277.5186767578125
 20
52.72245790447028
 30
0.0
 40
0.625
  0
CIRCLE
  5
1FE
330
1F
100
AcDbEntity
  8
Unnamed [1]
  6
Continuous
 62
     1
370
     0
100
AcDbCircle
 10
273.2686767578125
 20
52.72245790447028
 30
0.0
 40
0.625
  0
CIRCLE
  5
1FF
330
1F
100
AcDbEntity
  8
Unnamed [1]
  6
Continuous
 62
     1
370
     0
100
AcDbCircle
 10
269.0186767578125
 20
52.72245790447028
 30
0.0
 40
0.625
  0
CIRCLE
  5
200
330
1F
100
AcDbEntity
  8
Unnamed [1]
  6
Continuous
 62
     1
370
     0
100
AcDbCircle
 10
264.7686767578125
 20
52.72245790447028
 30
0.0
 40
0.625
  0
CIRCLE
  5
201
330
1F
100
AcDbEntity
  8
Unnamed [1]
  6
Continuous
 62
     1
370
     0
100
AcDbCircle
 10
260.5186767578125
 20
52.72245790447028
 30
0.0
 40
0.625
  0
CIRCLE
  5
202
330
1F
100
AcDbEntity
  8
Unnamed [1]
  6
Continuous
 62
     1
370
     0
100
AcDbCircle
 10
288.6436767578125
 20
57.59745790447028
 30
0.0
 40
1.25
  0
CIRCLE
  5
203
330
1F
100
AcDbEntity
  8
Unnamed [1]
  6
Continuous
 62
     1
370
     0
100
AcDbCircle
 10
283.1436767578125
 20
57.59745790447028
 30
0.0
 40
1.25
  0
CIRCLE
  5
204
330
1F
100
AcDbEntity
  8
Unnamed [1]
  6
Continuous
 62
     1
370
     0
100
AcDbCircle
 10
277.6436767578125
 20
57.59745790447028
 30
0.0
 40
1.25
  0
CIRCLE
  5
205
330
1F
100
AcDbEntity
  8
Unnamed [1]
  6
Continuous
 62
     1
370
     0
100
AcDbCircle
 10
272.1436767578125
 20
57.59745790447028
 30
0.0
 40
1.25
  0
CIRCLE
  5
206
330
1F
100
AcDbEntity
  8
Unnamed [1]
  6
Continuous
 62
     1
370
     0
100
AcDbCircle
 10
266.6436767578125
 20
57.59745790447028
 30
0.0
 40
1.25
  0
CIRCLE
  5
207
330
1F
100
AcDbEntity
  8
Unnamed [1]
  6
Continuous
 62
     1
370
     0
100
AcDbCircle
 10
261.1436767578125
 20
57.59745790447028
 30
0.0
 40
1.25
  0
CIRCLE
  5
208
330
1F
100
AcDbEntity
  8
Unnamed [1]
  6
Continuous
 62
     1
370
     0
100
AcDbCircle
 10
159.09291916273
 20
164.0606231689453
 30
0.0
 40
0.5
  0
CIRCLE
  5
209
330
1F
100
AcDbEntity
  8
Unnamed [1]
  6
Continuous
 62
     1
370
     0
100
AcDbCircle
 10
159.09291916273
 20
140.1606231689453
 30
0.0
 40
0.5
  0
CIRCLE
  5
20A
330
1F
100
AcDbEntity
  8
Unnamed [1]
  6
Continuous
 62
     1
370
     0
100
AcDbCircle
 10
234.0929191627301
 20
164.0606231689453
 30
0.0
 40
0.5
  0
CIRCLE
  5
20B
330
1F
100
AcDbEntity
  8
Unnamed [1]
  6
Continuous
 62
     1
370
     0
100
AcDbCircle
 10
234.0929191627301
 20
140.1606231689453
 30
0.0
 40
0.5
  0
CIRCLE
  5
20C
330
1F
100
AcDbEntity
  8
Unnamed [1]
  6
Continuous
 62
     1
370
     0
100
AcDbCircle
 10
143.09291916273
 20
180.5606231689453
 30
0.0
 40
1.5
  0
CIRCLE
  5
20D
330
1F
100
AcDbEntity
  8
Unnamed [1]
  6
Continuous
 62
     1
370
     0
100
AcDbCircle
 10
143.09291916273
 20
140.5606231689453
 30
0.0
 40
1.5
  0
CIRCLE
  5
20E
330
1F
100
AcDbEntity
  8
Unnamed [1]
  6
Continuous
 62
     1
370
     0
100
AcDbCircle
 10
263.3936767578125
 20
101.5606231689453
 30
0.0
 40
0.5
  0
CIRCLE
  5
20F
330
1F
100
AcDbEntity
  8
Unnamed [1]
  6
Continuous
 62
     1
370
     0
100
AcDbCircle
 10
287.2936767578125
 20
101.5606231689453
 30
0.0
 40
0.5
  0
CIRCLE
  5
210
330
1F
100
AcDbEntity
  8
Unnamed [1]
  6
Continuous
 62
     1
370
     0
100
AcDbCircle
 10
111.8936767578125
 20
97.06062316894531
 30
0.0
 40
0.5
  0
CIRCLE
  5
211
330
1F
100
AcDbEntity
  8
Unnamed [1]
  6
Continuous
 62
     1
370
     0
100
AcDbCircle
 10
156.8936767578125
 20
97.06062316894531
 30
0.0
 40
0.5
  0
CIRCLE
  5
212
330
1F
100
AcDbEntity
  8
Unnamed [1]
  6
Continuous
 62
     1
370
     0
100
AcDbCircle
 10
170.3936767578125
 20
129.0606231689453
 30
0.0
 40
0.5
  0
CIRCLE
  5
213
330
1F
100
AcDbEntity
  8
Unnamed [1]
  6
Continuous
 62
     1
370
     0
100
AcDbCircle
 10
247.6936767578125
 20
69.56062316894531
 30
0.0
 40
0.5
  0
CIRCLE
  5
214
330
1F
100
AcDbEntity
  8
Unnamed [1]
  6
Continuous
 62
     1
370
     0
100
AcDbCircle
 10
237.6936767578125
 20
69.56062316894531
 30
0.0
 40
0.5
  0
CIRCLE
  5
215
330
1F
100
AcDbEntity
  8
Unnamed [1]
  6
Continuous
 62
     1
370
     0
100
AcDbCircle
 10
156.8936767578125
 20
69.56062316894531
 30
0.0
 40
0.5
  0
CIRCLE
  5
216
330
1F
100
AcDbEntity
  8
Unnamed [1]
  6
Continuous
 62
     1
370
     0
100
AcDbCircle
 10
233.8936767578125
 20
82.56062316894531
 30
0.0
 40
0.5
  0
CIRCLE
  5
217
330
1F
100
AcDbEntity
  8
Unnamed [1]
  6
Continuous
 62
     1
370
     0
100
AcDbCircle
 10
121.74291916273
 20
180.5606231689453
 30
0.0
 40
1.5
  0
CIRCLE
  5
218
330
1F
100
AcDbEntity
  8
Unnamed [1]
  6
Continuous
 62
     1
370
     0
100
AcDbCircle
 10
121.74291916273
 20
140.5606231689453
 30
0.0
 40
1.5
  0
CIRCLE
  5
219
330
1F
100
AcDbEntity
  8
Unnamed [1]
  6
Continuous
 62
     1
370
     0
100
AcDbCircle
 10
300.7686767578383
 20
82.56062316899218
 30
0.0
 40
0.4
  0
CIRCLE
  5
21A
330
1F
100
AcDbEntity
  8
Unnamed [1]
  6
Continuous
 62
     1
370
     0
100
AcDbCircle
 10
287.0186767578383
 20
82.56062316899218
 30
0.0
 40
0.4
  0
LWPOLYLINE
  5
21B
330
1F
100
AcDbEntity
  8
Unnamed [1]
  6
Continuous
 62
     1
370
     0
100
AcDbPolyline
 90
        3
 70
     0
 43
0.0
 10
-267.1948653212856
 20
74.56062316894531
 10
-270.0981736865128
 20
74.56062316894531
 10
-270.0981736865128
 20
73.3085477873683
210
0.0
220
0.0
230
-1.0
  0
LINE
  5
220
330
1F
100
AcDbEntity
  8
Unnamed [1]
  6
Continuous
 62
     1
370
     0
100
AcDbLine
 10
270.0981736865128
 20
71.8085477873683
 30
0.0
 11
270.0981736865128
 21
68.98771648854017
 31
0.0
  0
SPLINE
  5
224
330
1F
100
AcDbEntity
  8
Unnamed [1]
  6
Continuous
 62
     1
370
     0
100
AcDbSpline
210
0.0
220
0.0
230
1.0
 70
     8
 71
     3
 72
    12
 73
     8
 74
     0
 42
0.000000001
 43
0.000001
 40
0.0
 40
0.0
 40
0.0
 40
0.0
 40
0.3024302113586985
 40
0.3024302113586985
 40
0.555006042199396
 40
0.555006042199396
 40
1.0
 40
1.0
 40
1.0
 40
1.0
 10
266.4658407538057
 20
61.84745790447028
 30
0.0
 10
266.1165936177445
 20
61.84745790447028
 30
0.0
 10
265.767455376376
 20
61.8697335838613
 30
0.0
 10
265.1368823025802
 20
61.98185192298936
 30
0.0
 10
264.8549874217008
 20
62.05990814385196
 30
0.0
 10
264.1239144166427
 20
62.39417603825979
 30
0.0
 10
263.7361956141955
 20
62.7451947320754
 30
0.0
 10
263.4408830463705
 20
63.16688519325578
 30
0.0
  0
SPLINE
  5
225
330
1F
100
AcDbEntity
  8
Unnamed [1]
  6
Continuous
 62
     1
370
     0
100
AcDbSpline
210
0.0
220
0.0
230
1.0
 70
     8
 71
     3
 72
    12
 73
     8
 74
     0
 42
0.000000001
 43
0.000001
 40
0.0
 40
0.0
 40
0.0
 40
0.0
 40
0.2396781899282615
 40
0.2396781899282615
 40
0.4820557993016844
 40
0.4820557993016844
 40
1.0
 40
1.0
 40
1.0
 40
1.0
 10
269.1702476426828
 20
63.16688519015293
 30
0.0
 10
269.0189091919473
 20
62.96706849811175
 30
0.0
 10
268.8478684447806
 20
62.78301529997508
 30
0.0
 10
268.4721780835526
 20
62.44673203166708
 30
0.0
 10
268.2620875797543
 20
62.30290259271646
 30
0.0
 10
267.5517704005888
 20
61.94544133387519
 30
0.0
 10
267.0099439157461
 20
61.84745790447016
 30
0.0
 10
266.4658407538057
 20
61.84745790447016
 30
0.0
  0
SPLINE
  5
226
330
1F
100
AcDbEntity
  8
Unnamed [1]
  6
Continuous
 62
     1
370
     0
100
AcDbSpline
210
0.0
220
0.0
230
1.0
 70
     8
 71
     3
 72
    12
 73
     8
 74
     0
 42
0.000000001
 43
0.000001
 40
0.0
 40
0.0
 40
0.0
 40
0.0
 40
0.3378517590029135
 40
0.3378517590029135
 40
0.5859285327337976
 40
0.5859285327337976
 40
1.0
 40
1.0
 40
1.0
 40
1.0
 10
265.342407778766
 20
66.28981813437736
 30
0.0
 10
265.3517086562872
 20
66.1234211708624
 30
0.0
 10
265.3656107399844
 20
65.95725673278814
 30
0.0
 10
265.4096563717651
 20
65.67170321207198
 30
0.0
 10
265.4353473078076
 20
65.55189999644759
 30
0.0
 10
265.538999135288
 20
65.24253795855736
 30
0.0
 10
265.639066261495
 20
65.06204987794362
 30
0.0
 10
265.78158085275
 20
64.91703503070175
 30
0.0
  0
SPLINE
  5
227
330
1F
100
AcDbEntity
  8
Unnamed [1]
  6
Continuous
 62
     1
370
     0
100
AcDbSpline
210
0.0
220
0.0
230
1.0
 70
     8
 71
     3
 72
    10
 73
     6
 74
     0
 42
0.000000001
 43
0.000001
 40
0.0
 40
0.0
 40
0.0
 40
0.0
 40
0.4631632313716717
 40
0.4631632313716717
 40
1.0
 40
1.0
 40
1.0
 40
1.0
 10
265.7815808527499
 20
64.91703503070164
 30
0.0
 10
265.8383861127977
 20
64.8616863157833
 30
0.0
 10
265.9078458503328
 20
64.82126686450356
 30
0.0
 10
266.070155801197
 20
64.76570129573929
 30
0.0
 10
266.1624498603895
 20
64.75502957126173
 30
0.0
 10
266.2548073263773
 20
64.75502957126173
 30
0.0
  0
SPLINE
  5
228
330
1F
100
AcDbEntity
  8
Unnamed [1]
  6
Continuous
 62
     1
370
     0
100
AcDbSpline
210
0.0
220
0.0
230
1.0
 70
     8
 71
     3
 72
    16
 73
    12
 74
     0
 42
0.000000001
 43
0.000001
 40
0.0
 40
0.0
 40
0.0
 40
0.0
 40
0.1749778236362044
 40
0.1749778236362044
 40
0.3594203082955045
 40
0.3594203082955045
 40
0.475783120533154
 40
0.475783120533154
 40
0.6200470431943048
 40
0.6200470431943048
 40
1.0
 40
1.0
 40
1.0
 40
1.0
 10
266.2548073263773
 20
64.75502957126173
 30
0.0
 10
266.4045433764018
 20
64.75502957126173
 30
0.0
 10
266.552661075116
 20
64.79205442304759
 30
0.0
 10
266.806164076271
 20
64.96318789523986
 30
0.0
 10
266.9003632917181
 20
65.09330218153539
 30
0.0
 10
267.0104177015662
 20
65.32665111509252
 30
0.0
 10
267.0417196495227
 20
65.4217147716521
 30
0.0
 10
267.0987140578461
 20
65.63808614926003
 30
0.0
 10
267.1209453118196
 20
65.76007057370268
 30
0.0
 10
267.1833176749302
 20
66.20593780084462
 30
0.0
 10
267.1948653212857
 20
66.53266403967457
 30
0.0
 10
267.1948653212857
 20
66.85923534954713
 30
0.0
  0
SPLINE
  5
229
330
1F
100
AcDbEntity
  8
Unnamed [1]
  6
Continuous
 62
     1
370
     0
100
AcDbSpline
210
0.0
220
0.0
230
1.0
 70
     8
 71
     3
 72
    10
 73
     6
 74
     0
 42
0.000000001
 43
0.000001
 40
0.0
 40
0.0
 40
0.0
 40
0.0
 40
0.4689134171519695
 40
0.4689134171519695
 40
1.0
 40
1.0
 40
1.0
 40
1.0
 10
279.5892719017131
 20
63.16688518985461
 30
0.0
 10
279.2499785540144
 20
62.74856708421648
 30
0.0
 10
278.831244573702
 20
62.3993615202746
 30
0.0
 10
277.7870215431703
 20
61.929693921309
 30
0.0
 10
277.175039630371
 20
61.84745790447028
 30
0.0
 10
276.5634705086377
 20
61.84745790447028
 30
0.0
  0
SPLINE
  5
22A
330
1F
100
AcDbEntity
  8
Unnamed [1]
  6
Continuous
 62
     1
370
     0
100
AcDbSpline
210
0.0
220
0.0
230
1.0
 70
     8
 71
     3
 72
    22
 73
    18
 74
     0
 42
0.000000001
 43
0.000001
 40
0.0
 40
0.0
 40
0.0
 40
0.0
 40
0.227678842543657
 40
0.227678842543657
 40
0.3255890568227667
 40
0.3255890568227667
 40
0.4275036812708091
 40
0.4275036812708091
 40
0.5435848357172354
 40
0.5435848357172354
 40
0.6083097034120429
 40
0.6083097034120429
 40
0.6777446916951292
 40
0.6777446916951292
 40
0.8289880542851075
 40
0.8289880542851075
 40
1.0
 40
1.0
 40
1.0
 40
1.0
 10
276.5634705086377
 20
61.84745790447028
 30
0.0
 10
275.9259860141403
 20
61.84745790447028
 30
0.0
 10
275.2884566565255
 20
61.92120205761398
 30
0.0
 10
274.4356158332995
 20
62.23375425612359
 30
0.0
 10
274.1893235121932
 20
62.35393318930835
 30
0.0
 10
273.7267625430335
 20
62.66436166734187
 30
0.0
 10
273.5150961506122
 20
62.85572856448184
 30
0.0
 10
273.1080481931558
 20
63.30770618332136
 30
0.0
 10
272.9199316713997
 20
63.57243348970763
 30
0.0
 10
272.6590127586894
 20
64.00458904191032
 30
0.0
 10
272.5721898776404
 20
64.16315956300842
 30
0.0
 10
272.4034605846068
 20
64.49760457172766
 30
0.0
 10
272.322138280073
 20
64.67369454928571
 30
0.0
 10
272.0948146257068
 20
65.2463003389136
 30
0.0
 10
271.980477446587
 20
65.65375083438232
 30
0.0
 10
271.8013838874444
 20
66.53582668313717
 30
0.0
 10
271.745206455041
 20
67.01082921354248
 30
0.0
 10
271.7158437300337
 20
67.48771648854051
 30
0.0
  0
SPLINE
  5
22B
330
1F
100
AcDbEntity
  8
Unnamed [1]
  6
Continuous
 62
     1
370
     0
100
AcDbSpline
210
0.0
220
0.0
230
1.0
 70
     8
 71
     3
 72
    10
 73
     6
 74
     0
 42
0.000000001
 43
0.000001
 40
0.0
 40
0.0
 40
0.0
 40
0.0
 40
0.531077206237737
 40
0.531077206237737
 40
1.0
 40
1.0
 40
1.0
 40
1.0
 10
271.7046820654022
 20
68.98771648854017
 30
0.0
 10
271.7275851883018
 20
69.49768471075048
 30
0.0
 10
271.7791263696595
 20
70.00612067606258
 30
0.0
 10
271.9548304590164
 20
70.95084215224347
 30
0.0
 10
272.0696836292959
 20
71.38740167835095
 30
0.0
 10
272.2293145704165
 20
71.80854778736818
 30
0.0
  0
SPLINE
  5
22C
330
1F
100
AcDbEntity
  8
Unnamed [1]
  6
Continuous
 62
     1
370
     0
100
AcDbSpline
210
0.0
220
0.0
230
1.0
 70
     8
 71
     3
 72
    10
 73
     6
 74
     0
 42
0.000000001
 43
0.000001
 40
0.0
 40
0.0
 40
0.0
 40
0.0
 40
0.4866463237479599
 40
0.4866463237479599
 40
1.0
 40
1.0
 40
1.0
 40
1.0
 10
280.4422211759527
 20
71.8085477873683
 30
0.0
 10
280.4953618993326
 20
71.66142659268857
 30
0.0
 10
280.5441934910115
 20
71.5127876458545
 30
0.0
 10
280.6368953617976
 20
71.20500555601257
 30
0.0
 10
280.6803299829193
 20
71.04578563256256
 30
0.0
 10
280.7201895337428
 20
70.88565722059616
 30
0.0
  0
SPLINE
  5
22D
330
1F
100
AcDbEntity
  8
Unnamed [1]
  6
Continuous
 62
     1
370
     0
100
AcDbSpline
210
0.0
220
0.0
230
1.0
 70
     8
 71
     3
 72
    10
 73
     6
 74
     0
 42
0.000000001
 43
0.000001
 40
0.0
 40
0.0
 40
0.0
 40
0.0
 40
0.5140336246250341
 40
0.5140336246250341
 40
1.0
 40
1.0
 40
1.0
 40
1.0
 10
277.9202044335642
 20
70.88565722059616
 30
0.0
 10
277.9138559991874
 20
70.89900606253445
 30
0.0
 10
277.9073232871032
 20
70.91226658604853
 30
0.0
 10
277.8941962000533
 20
70.93785128064417
 30
0.0
 10
277.887625545587
 20
70.95018560748493
 30
0.0
 10
277.8808306919787
 20
70.9623966487519
 30
0.0
  0
SPLINE
  5
22E
330
1F
100
AcDbEntity
  8
Unnamed [1]
  6
Continuous
 62
     1
370
     0
100
AcDbSpline
210
0.0
220
0.0
230
1.0
 70
     8
 71
     3
 72
    10
 73
     6
 74
     0
 42
0.000000001
 43
0.000001
 40
0.0
 40
0.0
 40
0.0
 40
0.0
 40
0.52504697048723
 40
0.52504697048723
 40
1.0
 40
1.0
 40
1.0
 40
1.0
 10
277.8808306919787
 20
70.96239664875179
 30
0.0
 10
277.772679117768
 20
71.15972583678538
 30
0.0
 10
277.6395453770552
 20
71.34278576331516
 30
0.0
 10
277.3249405440868
 20
71.63259355900584
 30
0.0
 10
277.1517844111932
 20
71.74260737369522
 30
0.0
 10
276.9600583784555
 20
71.80854778736102
 30
0.0
  0
SPLINE
  5
22F
330
1F
100
AcDbEntity
  8
Unnamed [1]
  6
Continuous
 62
     1
370
     0
100
AcDbSpline
210
0.0
220
0.0
230
1.0
 70
     8
 71
     3
 72
    10
 73
     6
 74
     0
 42
0.000000001
 43
0.000001
 40
0.0
 40
0.0
 40
0.0
 40
0.0
 40
0.4652184021961658
 40
0.4652184021961658
 40
1.0
 40
1.0
 40
1.0
 40
1.0
 10
276.0081843965205
 20
71.8085477873683
 30
0.0
 10
275.7936223958667
 20
71.73865275736728
 30
0.0
 10
275.599937735492
 20
71.61697885104931
 30
0.0
 10
275.2501962325048
 20
71.2797768566824
 30
0.0
 10
275.1062031428165
 20
71.06057128560765
 30
0.0
 10
274.9903122314441
 20
70.82717005226198
 30
0.0
  0
SPLINE
  5
230
330
1F
100
AcDbEntity
  8
Unnamed [1]
  6
Continuous
 62
     1
370
     0
100
AcDbSpline
210
0.0
220
0.0
230
1.0
 70
     8
 71
     3
 72
    10
 73
     6
 74
     0
 42
0.000000001
 43
0.000001
 40
0.0
 40
0.0
 40
0.0
 40
0.0
 40
0.4333085823581187
 40
0.4333085823581187
 40
1.0
 40
1.0
 40
1.0
 40
1.0
 10
274.9903122314441
 20
70.82717005226209
 30
0.0
 10
274.8671255935322
 20
70.58373570496369
 30
0.0
 10
274.7910042970352
 20
70.31993664948779
 30
0.0
 10
274.6628731174582
 20
69.70187325876488
 30
0.0
 10
274.6274089537187
 20
69.34520463746665
 30
0.0
 10
274.6089737499317
 20
68.98771648854006
 30
0.0
  0
SPLINE
  5
231
330
1F
100
AcDbEntity
  8
Unnamed [1]
  6
Continuous
 62
     1
370
     0
100
AcDbSpline
210
0.0
220
0.0
230
1.0
 70
     8
 71
     3
 72
    18
 73
    14
 74
     0
 42
0.000000001
 43
0.000001
 40
0.0
 40
0.0
 40
0.0
 40
0.0
 40
0.1988166255949811
 40
0.1988166255949811
 40
0.3648863237427801
 40
0.3648863237427801
 40
0.5006012426361879
 40
0.5006012426361879
 40
0.6115394469080815
 40
0.6115394469080815
 40
0.8057464903719219
 40
0.8057464903719219
 40
1.0
 40
1.0
 40
1.0
 40
1.0
 10
274.6183455334003
 20
67.48771648854017
 30
0.0
 10
274.6330116687288
 20
67.24530165411565
 30
0.0
 10
274.6550283024411
 20
67.00335369956231
 30
0.0
 10
274.7179321418585
 20
66.5621623438902
 30
0.0
 10
274.7549154301628
 20
66.36257746036698
 30
0.0
 10
274.8490460615729
 20
66.0063404875006
 30
0.0
 10
274.9009930324006
 20
65.8486953975294
 30
0.0
 10
275.0274650127766
 20
65.57565960065557
 30
0.0
 10
275.0980522581349
 20
65.45971369332734
 30
0.0
 10
275.3227480594797
 20
65.16281043794497
 30
0.0
 10
275.5015786387282
 20
65.00299970896974
 30
0.0
 10
275.9247527735008
 20
64.7926155463506
 30
0.0
 10
276.1601680870324
 20
64.74650296813309
 30
0.0
 10
276.3972017476335
 20
64.74650296813309
 30
0.0
  0
SPLINE
  5
232
330
1F
100
AcDbEntity
  8
Unnamed [1]
  6
Continuous
 62
     1
370
     0
100
AcDbSpline
210
0.0
220
0.0
230
1.0
 70
     8
 71
     3
 72
    14
 73
    10
 74
     0
 42
0.000000001
 43
0.000001
 40
0.0
 40
0.0
 40
0.0
 40
0.0
 40
0.2484140612724072
 40
0.2484140612724072
 40
0.476069176833021
 40
0.476069176833021
 40
0.7167844421284197
 40
0.7167844421284197
 40
1.0
 40
1.0
 40
1.0
 40
1.0
 10
276.3972017476335
 20
64.74650296813331
 30
0.0
 10
276.5911838186329
 20
64.74650296813331
 30
0.0
 10
276.7847096699573
 20
64.77194470875529
 30
0.0
 10
277.1351887177685
 20
64.89357272511657
 30
0.0
 10
277.2899746466867
 20
64.98370459381012
 30
0.0
 10
277.5615442114774
 20
65.22735566329692
 30
0.0
 10
277.6709256817666
 20
65.38177600651024
 30
0.0
 10
277.8722916459561
 20
65.7383530165856
 30
0.0
 10
277.9573956766628
 20
65.94338007546322
 30
0.0
 10
278.0279388044467
 20
66.15339248551186
 30
0.0
  0
SPLINE
  5
233
330
1F
100
AcDbEntity
  8
Unnamed [1]
  6
Continuous
 62
     1
370
     0
100
AcDbSpline
210
0.0
220
0.0
230
1.0
 70
     8
 71
     3
 72
    12
 73
     8
 74
     0
 42
0.000000001
 43
0.000001
 40
0.0
 40
0.0
 40
0.0
 40
0.0
 40
0.5272807348469403
 40
0.5272807348469403
 40
0.7614915437047666
 40
0.7614915437047666
 40
1.0
 40
1.0
 40
1.0
 40
1.0
 10
276.4291765093651
 20
74.77378824715584
 30
0.0
 10
277.0836323434006
 20
74.77378824715584
 30
0.0
 10
277.7374599373903
 20
74.67737729662832
 30
0.0
 10
278.5940348998648
 20
74.2889766153358
 30
0.0
 10
278.8412424987021
 20
74.13636274834016
 30
0.0
 10
279.2905292057366
 20
73.7637429531432
 30
0.0
 10
279.4896259842307
 20
73.54510716595271
 30
0.0
 10
279.6654458024692
 20
73.30854778685375
 30
0.0
  0
SPLINE
  5
234
330
1F
100
AcDbEntity
  8
Unnamed [1]
  6
Continuous
 62
     1
370
     0
100
AcDbSpline
210
0.0
220
0.0
230
1.0
 70
     8
 71
     3
 72
    12
 73
     8
 74
     0
 42
0.000000001
 43
0.000001
 40
0.0
 40
0.0
 40
0.0
 40
0.0
 40
0.2450935827277655
 40
0.2450935827277655
 40
0.4847712822703326
 40
0.4847712822703326
 40
1.0
 40
1.0
 40
1.0
 40
1.0
 10
273.085724528081
 20
73.3085477873683
 30
0.0
 10
273.2836746103205
 20
73.54622254193079
 30
0.0
 10
273.5061292304422
 20
73.76249608539146
 30
0.0
 10
273.9930676786243
 20
74.13255062824561
 30
0.0
 10
274.2547953036673
 20
74.28610128308837
 30
0.0
 10
275.1271388183393
 20
74.66839868699472
 30
0.0
 10
275.7769995351697
 20
74.77378824715572
 30
0.0
 10
276.4291765093651
 20
74.77378824715572
 30
0.0
  0
SPLINE
  5
235
330
1F
100
AcDbEntity
  8
Unnamed [1]
  6
Continuous
 62
     1
370
     0
100
AcDbSpline
210
0.0
220
0.0
230
1.0
 70
     8
 71
     3
 72
    10
 73
     6
 74
     0
 42
0.000000001
 43
0.000001
 40
0.0
 40
0.0
 40
0.0
 40
0.0
 40
0.5203579216688835
 40
0.5203579216688835
 40
1.0
 40
1.0
 40
1.0
 40
1.0
 10
280.8097188665911
 20
66.1533924843227
 30
0.0
 10
280.7624934057667
 20
65.89050408573333
 30
0.0
 10
280.7059761564853
 20
65.62935183783534
 30
0.0
 10
280.5748169321687
 20
65.1331333974238
 30
0.0
 10
280.5019944297183
 20
64.89783418105115
 30
0.0
 10
280.4168089546977
 20
64.66688518971205
 30
0.0
  0
SPLINE
  5
236
330
1F
100
AcDbEntity
  8
Unnamed [1]
  6
Continuous
 62
     1
370
     0
100
AcDbSpline
210
0.0
220
0.0
230
1.0
 70
     8
 71
     3
 72
    10
 73
     6
 74
     0
 42
0.000000001
 43
0.000001
 40
0.0
 40
0.0
 40
0.0
 40
0.0
 40
0.5654716227049225
 40
0.5654716227049225
 40
1.0
 40
1.0
 40
1.0
 40
1.0
 10
270.0968986562629
 20
67.48771648854017
 30
0.0
 10
270.0919770894425
 20
66.95281730296416
 30
0.0
 10
270.0735552396751
 20
66.41803155231287
 30
0.0
 10
269.9911061889762
 20
65.47582765584102
 30
0.0
 10
269.9399946309987
 20
65.06762536635712
 30
0.0
 10
269.8500573264391
 20
64.66688518971205
 30
0.0
  0
SPLINE
  5
237
330
1F
100
AcDbEntity
  8
Unnamed [1]
  6
Continuous
 62
     1
370
     0
100
AcDbSpline
210
0.0
220
0.0
230
1.0
 70
     8
 71
     3
 72
    10
 73
     6
 74
     0
 42
0.000000001
 43
0.000001
 40
0.0
 40
0.0
 40
0.0
 40
0.0
 40
0.4758985347956523
 40
0.4758985347956523
 40
1.0
 40
1.0
 40
1.0
 40
1.0
 10
262.7887039818571
 20
64.66688518971205
 30
0.0
 10
262.7248584257944
 20
64.91939167750574
 30
0.0
 10
262.6765063609101
 20
65.17552808449068
 30
0.0
 10
262.5996437158791
 20
65.7174665685723
 30
0.0
 10
262.5736924540217
 20
66.00331932898843
 30
0.0
 10
262.558524870207
 20
66.28981813437747
 30
0.0
  0
LINE
  5
238
330
1F
100
AcDbEntity
  8
Unnamed [1]
  6
DASHED
 62
     5
370
     0
100
AcDbLine
 10
120.3936767578125
 20
77.43562316894531
 30
0.0
 11
106.8936767578125
 21
77.43562316894531
 31
0.0
  0
LINE
  5
239
330
1F
100
AcDbEntity
  8
Unnamed [1]
  6
DASHED
 62
     5
370
     0
100
AcDbLine
 10
120.3936767578125
 20
63.68562316894531
 30
0.0
 11
106.8936767578125
 21
63.68562316894531
 31
0.0
  0
LINE
  5
23A
330
1F
100
AcDbEntity
  8
Unnamed [1]
  6
DASHED
 62
     5
370
     0
100
AcDbLine
 10
120.3936767578125
 20
70.56062316894531
 30
0.0
 11
106.8936767578125
 21
70.56062316894531
 31
0.0
  0
LINE
  5
23B
330
1F
100
AcDbEntity
  8
Unnamed [1]
  6
Continuous
 62
     5
370
    30
100
AcDbLine
 10
117.3663339614868
 20
132.5733177661896
 30
0.0
 11
118.3663339614868
 21
130.8412668704987
 31
0.0
  0
LINE
  5
23C
330
1F
100
AcDbEntity
  8
Unnamed [1]
  6
Continuous
 62
     5
370
    30
100
AcDbLine
 10
117.7736477851868
 20
130.4990792274475
 30
0.0
 11
117.1236476898193
 21
131.6249122619629
 31
0.0
  0
LINE
  5
23D
330
1F
100
AcDbEntity
  8
Unnamed [1]
  6
Continuous
 62
     5
370
    30
100
AcDbLine
 10
274.9284562354086
 20
107.3136131831407
 30
0.0
 11
274.9284562354086
 21
106.2125131225586
 31
0.0
  0
LINE
  5
23E
330
1F
100
AcDbEntity
  8
Unnamed [1]
  6
Continuous
 62
     5
370
    30
100
AcDbLine
 10
277.4694562354086
 20
107.0171631629467
 30
0.0
 11
277.4694562354086
 21
106.2125131225586
 31
0.0
  0
LINE
  5
23F
330
1F
100
AcDbEntity
  8
Unnamed [1]
  6
Continuous
 62
     5
370
    30
100
AcDbLine
 10
112.1811643831454
 20
127.4063341199736
 30
0.0
 11
112.3445560676795
 21
127.1547329895809
 31
0.0
  0
LINE
  5
240
330
1F
100
AcDbEntity
  8
Unnamed [1]
  6
Continuous
 62
     5
370
    30
100
AcDbLine
 10
277.9141311142443
 20
107.0171631629467
 30
0.0
 11
277.9141311142443
 21
106.2125131225586
 31
0.0
  0
LINE
  5
241
330
1F
100
AcDbEntity
  8
Unnamed [1]
  6
Continuous
 62
     5
370
    30
100
AcDbLine
 10
277.8506061748265
 20
107.2289131629467
 30
0.0
 11
277.9141311142443
 21
107.0171631629467
 31
0.0
  0
LINE
  5
242
330
1F
100
AcDbEntity
  8
Unnamed [1]
  6
Continuous
 62
     5
370
    30
100
AcDbLine
 10
277.6917936748266
 20
107.3136131831407
 30
0.0
 11
277.8506061748265
 21
107.2289131629467
 31
0.0
  0
LINE
  5
243
330
1F
100
AcDbEntity
  8
Unnamed [1]
  6
Continuous
 62
     5
370
    30
100
AcDbLine
 10
277.5329811748265
 20
107.2289131629467
 30
0.0
 11
277.6917936748266
 21
107.3136131831407
 31
0.0
  0
LINE
  5
244
330
1F
100
AcDbEntity
  8
Unnamed [1]
  6
Continuous
 62
     5
370
    30
100
AcDbLine
 10
277.4694562354086
 20
107.0171631629467
 30
0.0
 11
277.5329811748265
 21
107.2289131629467
 31
0.0
  0
LINE
  5
245
330
1F
100
AcDbEntity
  8
Unnamed [1]
  6
Continuous
 62
     5
370
    30
100
AcDbLine
 10
277.4059312959908
 20
107.2289131629467
 30
0.0
 11
277.4694562354086
 21
107.0171631629467
 31
0.0
  0
LINE
  5
246
330
1F
100
AcDbEntity
  8
Unnamed [1]
  6
Continuous
 62
     5
370
    30
100
AcDbLine
 10
277.2471187959908
 20
107.3136131831407
 30
0.0
 11
277.4059312959908
 21
107.2289131629467
 31
0.0
  0
LINE
  5
247
330
1F
100
AcDbEntity
  8
Unnamed [1]
  6
Continuous
 62
     5
370
    30
100
AcDbLine
 10
277.0883062959908
 20
107.2289131629467
 30
0.0
 11
277.2471187959908
 21
107.3136131831407
 31
0.0
  0
LINE
  5
248
330
1F
100
AcDbEntity
  8
Unnamed [1]
  6
Continuous
 62
     5
370
    30
100
AcDbLine
 10
277.0247813565729
 20
107.0171631629467
 30
0.0
 11
277.0883062959908
 21
107.2289131629467
 31
0.0
  0
LINE
  5
249
330
1F
100
AcDbEntity
  8
Unnamed [1]
  6
Continuous
 62
     5
370
    30
100
AcDbLine
 10
273.2132811546325
 20
107.9065131225586
 30
0.0
 11
273.7453031911848
 21
107.9065131225586
 31
0.0
  0
LINE
  5
24A
330
1F
100
AcDbEntity
  8
Unnamed [1]
  6
Continuous
 62
     5
370
    30
100
AcDbLine
 10
273.2132811546325
 20
106.2125131225586
 30
0.0
 11
273.2132811546325
 21
107.9065131225586
 31
0.0
  0
LINE
  5
24B
330
1F
100
AcDbEntity
  8
Unnamed [1]
  6
Continuous
 62
     5
370
    30
100
AcDbLine
 10
273.7453031911848
 20
106.2125131225586
 30
0.0
 11
273.2132811546325
 21
106.2125131225586
 31
0.0
  0
LINE
  5
24C
330
1F
100
AcDbEntity
  8
Unnamed [1]
  6
Continuous
 62
     5
370
    30
100
AcDbLine
 10
273.8644125661849
 20
106.2442756427526
 30
0.0
 11
273.7453031911848
 21
106.2125131225586
 31
0.0
  0
LINE
  5
24D
330
1F
100
AcDbEntity
  8
Unnamed [1]
  6
Continuous
 62
     5
370
    30
100
AcDbLine
 10
273.9755812354087
 20
106.3183881225586
 30
0.0
 11
273.8644125661849
 21
106.2442756427526
 31
0.0
  0
LINE
  5
24E
330
1F
100
AcDbEntity
  8
Unnamed [1]
  6
Continuous
 62
     5
370
    30
100
AcDbLine
 10
274.0549874854087
 20
106.4454381023645
 30
0.0
 11
273.9755812354087
 21
106.3183881225586
 31
0.0
  0
LINE
  5
24F
330
1F
100
AcDbEntity
  8
Unnamed [1]
  6
Continuous
 62
     5
370
    30
100
AcDbLine
 10
274.0946906104086
 20
106.6042506023645
 30
0.0
 11
274.0549874854087
 21
106.4454381023645
 31
0.0
  0
LINE
  5
250
330
1F
100
AcDbEntity
  8
Unnamed [1]
  6
Continuous
 62
     5
370
    30
100
AcDbLine
 10
274.0946906104086
 20
106.7736506427527
 30
0.0
 11
274.0946906104086
 21
106.6042506023645
 31
0.0
  0
LINE
  5
251
330
1F
100
AcDbEntity
  8
Unnamed [1]
  6
Continuous
 62
     5
370
    30
100
AcDbLine
 10
274.0549874854087
 20
106.9218757033348
 30
0.0
 11
274.0946906104086
 21
106.7736506427527
 31
0.0
  0
LINE
  5
252
330
1F
100
AcDbEntity
  8
Unnamed [1]
  6
Continuous
 62
     5
370
    30
100
AcDbLine
 10
273.9755812354087
 20
107.0489255821705
 30
0.0
 11
274.0549874854087
 21
106.9218757033348
 31
0.0
  0
LINE
  5
253
330
1F
100
AcDbEntity
  8
Unnamed [1]
  6
Continuous
 62
     5
370
    30
100
AcDbLine
 10
273.8644125661849
 20
107.1336256023645
 30
0.0
 11
273.9755812354087
 21
107.0489255821705
 31
0.0
  0
LINE
  5
254
330
1F
100
AcDbEntity
  8
Unnamed [1]
  6
Continuous
 62
     5
370
    30
100
AcDbLine
 10
273.7453031911848
 20
107.1653881225586
 30
0.0
 11
273.8644125661849
 21
107.1336256023645
 31
0.0
  0
LINE
  5
255
330
1F
100
AcDbEntity
  8
Unnamed [1]
  6
Continuous
 62
     5
370
    30
100
AcDbLine
 10
273.8405906507967
 20
107.1971506427526
 30
0.0
 11
273.7453031911848
 21
107.1653881225586
 31
0.0
  0
LINE
  5
256
330
1F
100
AcDbEntity
  8
Unnamed [1]
  6
Continuous
 62
     5
370
    30
100
AcDbLine
 10
273.9199969007967
 20
107.2606756831408
 30
0.0
 11
273.8405906507967
 21
107.1971506427526
 31
0.0
  0
LINE
  5
257
330
1F
100
AcDbEntity
  8
Unnamed [1]
  6
Continuous
 62
     5
370
    30
100
AcDbLine
 10
273.9835219411848
 20
107.3559631427526
 30
0.0
 11
273.9199969007967
 21
107.2606756831408
 31
0.0
  0
LINE
  5
258
330
1F
100
AcDbEntity
  8
Unnamed [1]
  6
Continuous
 62
     5
370
    30
100
AcDbLine
 10
274.0152843604087
 20
107.4724256831408
 30
0.0
 11
273.9835219411848
 21
107.3559631427526
 31
0.0
  0
LINE
  5
259
330
1F
100
AcDbEntity
  8
Unnamed [1]
  6
Continuous
 62
     5
370
    30
100
AcDbLine
 10
274.0152843604087
 20
107.5994756629467
 30
0.0
 11
274.0152843604087
 21
107.4724256831408
 31
0.0
  0
LINE
  5
25A
330
1F
100
AcDbEntity
  8
Unnamed [1]
  6
Continuous
 62
     5
370
    30
100
AcDbLine
 10
273.9835219411848
 20
107.7159381023645
 30
0.0
 11
274.0152843604087
 21
107.5994756629467
 31
0.0
  0
LINE
  5
25B
330
1F
100
AcDbEntity
  8
Unnamed [1]
  6
Continuous
 62
     5
370
    30
100
AcDbLine
 10
273.9199969007967
 20
107.8218131023645
 30
0.0
 11
273.9835219411848
 21
107.7159381023645
 31
0.0
  0
LINE
  5
25C
330
1F
100
AcDbEntity
  8
Unnamed [1]
  6
Continuous
 62
     5
370
    30
100
AcDbLine
 10
273.8405906507967
 20
107.8853381427526
 30
0.0
 11
273.9199969007967
 21
107.8218131023645
 31
0.0
  0
LINE
  5
25D
330
1F
100
AcDbEntity
  8
Unnamed [1]
  6
Continuous
 62
     5
370
    30
100
AcDbLine
 10
273.7453031911848
 20
107.9065131225586
 30
0.0
 11
273.8405906507967
 21
107.8853381427526
 31
0.0
  0
LINE
  5
25E
330
1F
100
AcDbEntity
  8
Unnamed [1]
  6
Continuous
 62
     5
370
    30
100
AcDbLine
 10
275.9845592998265
 20
106.2548630821705
 30
0.0
 11
275.913093856573
 21
106.3713256225586
 31
0.0
  0
LINE
  5
25F
330
1F
100
AcDbEntity
  8
Unnamed [1]
  6
Continuous
 62
     5
370
    30
100
AcDbLine
 10
276.0957281583695
 20
106.2125131225586
 30
0.0
 11
275.9845592998265
 21
106.2548630821705
 31
0.0
  0
LINE
  5
260
330
1F
100
AcDbEntity
  8
Unnamed [1]
  6
Continuous
 62
     5
370
    30
100
AcDbLine
 10
276.3101250939517
 20
106.2125131225586
 30
0.0
 11
276.0957281583695
 21
106.2125131225586
 31
0.0
  0
LINE
  5
261
330
1F
100
AcDbEntity
  8
Unnamed [1]
  6
Continuous
 62
     5
370
    30
100
AcDbLine
 10
276.4133531709908
 20
106.2548630821705
 30
0.0
 11
276.3101250939517
 21
106.2125131225586
 31
0.0
  0
LINE
  5
262
330
1F
100
AcDbEntity
  8
Unnamed [1]
  6
Continuous
 62
     5
370
    30
100
AcDbLine
 10
276.4848186142444
 20
106.3607380821705
 30
0.0
 11
276.4133531709908
 21
106.2548630821705
 31
0.0
  0
LINE
  5
263
330
1F
100
AcDbEntity
  8
Unnamed [1]
  6
Continuous
 62
     5
370
    30
100
AcDbLine
 10
276.5006999248265
 20
106.5089631427526
 30
0.0
 11
276.4848186142444
 21
106.3607380821705
 31
0.0
  0
LINE
  5
264
330
1F
100
AcDbEntity
  8
Unnamed [1]
  6
Continuous
 62
     5
370
    30
100
AcDbLine
 10
276.4451154892442
 20
106.6360131225586
 30
0.0
 11
276.5006999248265
 21
106.5089631427526
 31
0.0
  0
LINE
  5
265
330
1F
100
AcDbEntity
  8
Unnamed [1]
  6
Continuous
 62
     5
370
    30
100
AcDbLine
 10
276.3577687227873
 20
106.7101257033348
 30
0.0
 11
276.4451154892442
 21
106.6360131225586
 31
0.0
  0
LINE
  5
266
330
1F
100
AcDbEntity
  8
Unnamed [1]
  6
Continuous
 62
     5
370
    30
100
AcDbLine
 10
276.0401437227874
 20
106.8160007033348
 30
0.0
 11
276.3577687227873
 21
106.7101257033348
 31
0.0
  0
LINE
  5
267
330
1F
100
AcDbEntity
  8
Unnamed [1]
  6
Continuous
 62
     5
370
    30
100
AcDbLine
 10
275.952796981573
 20
106.8901130821705
 30
0.0
 11
276.0401437227874
 21
106.8160007033348
 31
0.0
  0
LINE
  5
268
330
1F
100
AcDbEntity
  8
Unnamed [1]
  6
Continuous
 62
     5
370
    30
100
AcDbLine
 10
275.8972125459908
 20
107.0171631629467
 30
0.0
 11
275.952796981573
 21
106.8901130821705
 31
0.0
  0
LINE
  5
269
330
1F
100
AcDbEntity
  8
Unnamed [1]
  6
Continuous
 62
     5
370
    30
100
AcDbLine
 10
275.913093856573
 20
107.1653881225586
 30
0.0
 11
275.8972125459908
 21
107.0171631629467
 31
0.0
  0
LINE
  5
26A
330
1F
100
AcDbEntity
  8
Unnamed [1]
  6
Continuous
 62
     5
370
    30
100
AcDbLine
 10
275.9845592998265
 20
107.2712631225586
 30
0.0
 11
275.913093856573
 21
107.1653881225586
 31
0.0
  0
LINE
  5
26B
330
1F
100
AcDbEntity
  8
Unnamed [1]
  6
Continuous
 62
     5
370
    30
100
AcDbLine
 10
276.087787351623
 20
107.3136131831407
 30
0.0
 11
275.9845592998265
 21
107.2712631225586
 31
0.0
  0
LINE
  5
26C
330
1F
100
AcDbEntity
  8
Unnamed [1]
  6
Continuous
 62
     5
370
    30
100
AcDbLine
 10
276.3021842872052
 20
107.3136131831407
 30
0.0
 11
276.087787351623
 21
107.3136131831407
 31
0.0
  0
LINE
  5
26D
330
1F
100
AcDbEntity
  8
Unnamed [1]
  6
Continuous
 62
     5
370
    30
100
AcDbLine
 10
276.405412351623
 20
107.2712631225586
 30
0.0
 11
276.3021842872052
 21
107.3136131831407
 31
0.0
  0
LINE
  5
26E
330
1F
100
AcDbEntity
  8
Unnamed [1]
  6
Continuous
 62
     5
370
    30
100
AcDbLine
 10
276.4768781104087
 20
107.1653881225586
 30
0.0
 11
276.405412351623
 21
107.2712631225586
 31
0.0
  0
LINE
  5
26F
330
1F
100
AcDbEntity
  8
Unnamed [1]
  6
Continuous
 62
     5
370
    30
100
AcDbLine
 10
273.7453031911848
 20
107.1653881225586
 30
0.0
 11
273.2132811546325
 21
107.1653881225586
 31
0.0
  0
LINE
  5
270
330
1F
100
AcDbEntity
  8
Unnamed [1]
  6
Continuous
 62
     5
370
    30
100
AcDbLine
 10
274.9284562354086
 20
107.9065131225586
 30
0.0
 11
274.9284562354086
 21
107.6524131629467
 31
0.0
  0
LINE
  5
271
330
1F
100
AcDbEntity
  8
Unnamed [1]
  6
Continuous
 62
     5
370
    30
100
AcDbLine
 10
277.0247813565729
 20
107.3136131831407
 30
0.0
 11
277.0247813565729
 21
106.2125131225586
 31
0.0
  0
LINE
  5
272
330
1F
100
AcDbEntity
  8
Unnamed [1]
  6
Continuous
 62
     5
370
    30
100
AcDbLine
 10
278.7399562354087
 20
107.9065131225586
 30
0.0
 11
278.7399562354087
 21
107.6524131629467
 31
0.0
  0
LINE
  5
273
330
1F
100
AcDbEntity
  8
Unnamed [1]
  6
Continuous
 62
     5
370
    30
100
AcDbLine
 10
278.7399562354087
 20
107.3136131831407
 30
0.0
 11
278.7399562354087
 21
106.2125131225586
 31
0.0
  0
LINE
  5
274
330
1F
100
AcDbEntity
  8
Unnamed [1]
  6
Continuous
 62
     5
370
    30
100
AcDbLine
 10
118.7233285903931
 20
131.7979331016541
 30
0.0
 11
119.0483283996582
 21
131.2350165843964
 31
0.0
  0
LINE
  5
275
330
1F
100
AcDbEntity
  8
Unnamed [1]
  6
Continuous
 62
     5
370
    30
100
AcDbLine
 10
118.5021271705627
 20
132.0310664176941
 30
0.0
 11
118.7233285903931
 21
131.7979331016541
 31
0.0
  0
LINE
  5
276
330
1F
100
AcDbEntity
  8
Unnamed [1]
  6
Continuous
 62
     5
370
    30
100
AcDbLine
 10
118.2378783226013
 20
132.0950086116791
 30
0.0
 11
118.5021271705627
 21
132.0310664176941
 31
0.0
  0
LINE
  5
277
330
1F
100
AcDbEntity
  8
Unnamed [1]
  6
Continuous
 62
     5
370
    30
100
AcDbLine
 10
118.0267844200134
 20
131.9731333255768
 30
0.0
 11
118.2378783226013
 21
132.0950086116791
 31
0.0
  0
LINE
  5
278
330
1F
100
AcDbEntity
  8
Unnamed [1]
  6
Continuous
 62
     5
370
    30
100
AcDbLine
 10
117.950035572052
 20
131.7123162746429
 30
0.0
 11
118.0267844200134
 21
131.9731333255768
 31
0.0
  0
LINE
  5
279
330
1F
100
AcDbEntity
  8
Unnamed [1]
  6
Continuous
 62
     5
370
    30
100
AcDbLine
 10
118.0413341522217
 20
131.4041833877563
 30
0.0
 11
117.950035572052
 21
131.7123162746429
 31
0.0
  0
LINE
  5
27A
330
1F
100
AcDbEntity
  8
Unnamed [1]
  6
Continuous
 62
     5
370
    30
100
AcDbLine
 10
117.5961954593658
 20
130.6564348936081
 30
0.0
 11
117.4986476898193
 21
130.9753931760788
 31
0.0
  0
LINE
  5
27B
330
1F
100
AcDbEntity
  8
Unnamed [1]
  6
Continuous
 62
     5
370
    30
100
AcDbLine
 10
117.517578125
 20
130.3801048994064
 30
0.0
 11
117.5961954593658
 21
130.6564348936081
 31
0.0
  0
LINE
  5
27C
330
1F
100
AcDbEntity
  8
Unnamed [1]
  6
Continuous
 62
     5
370
    30
100
AcDbLine
 10
117.2983655929565
 20
130.2535425424576
 30
0.0
 11
117.517578125
 21
130.3801048994064
 31
0.0
  0
LINE
  5
27D
330
1F
100
AcDbEntity
  8
Unnamed [1]
  6
Continuous
 62
     5
370
    30
100
AcDbLine
 10
117.0197474956512
 20
130.3236224651337
 30
0.0
 11
117.2983655929565
 21
130.2535425424576
 31
0.0
  0
LINE
  5
27E
330
1F
100
AcDbEntity
  8
Unnamed [1]
  6
Continuous
 62
     5
370
    30
100
AcDbLine
 10
116.7922959327698
 20
130.5675808191299
 30
0.0
 11
117.0197474956512
 21
130.3236224651337
 31
0.0
  0
LINE
  5
27F
330
1F
100
AcDbEntity
  8
Unnamed [1]
  6
Continuous
 62
     5
370
    30
100
AcDbLine
 10
116.6860458850861
 20
130.7516113519669
 30
0.0
 11
116.7922959327698
 21
130.5675808191299
 31
0.0
  0
LINE
  5
280
330
1F
100
AcDbEntity
  8
Unnamed [1]
  6
Continuous
 62
     5
370
    30
100
AcDbLine
 10
116.594747543335
 20
131.0597440004349
 30
0.0
 11
116.6860458850861
 21
130.7516113519669
 31
0.0
  0
LINE
  5
281
330
1F
100
AcDbEntity
  8
Unnamed [1]
  6
Continuous
 62
     5
370
    30
100
AcDbLine
 10
116.6733655929565
 20
131.3360743522644
 30
0.0
 11
116.594747543335
 21
131.0597440004349
 31
0.0
  0
LINE
  5
282
330
1F
100
AcDbEntity
  8
Unnamed [1]
  6
Continuous
 62
     5
370
    30
100
AcDbLine
 10
116.892578125
 20
131.4626367092133
 30
0.0
 11
116.6733655929565
 21
131.3360743522644
 31
0.0
  0
LINE
  5
283
330
1F
100
AcDbEntity
  8
Unnamed [1]
  6
Continuous
 62
     5
370
    30
100
AcDbLine
 10
117.1711955070496
 20
131.3925564289093
 30
0.0
 11
116.892578125
 21
131.4626367092133
 31
0.0
  0
LINE
  5
284
330
1F
100
AcDbEntity
  8
Unnamed [1]
  6
Continuous
 62
     5
370
    30
100
AcDbLine
 10
117.3923976421356
 20
131.1594237089157
 30
0.0
 11
117.1711955070496
 21
131.3925564289093
 31
0.0
  0
LINE
  5
285
330
1F
100
AcDbEntity
  8
Unnamed [1]
  6
Continuous
 62
     5
370
    30
100
AcDbLine
 10
113.6990814879537
 20
128.4064350128174
 30
0.0
 11
113.6015333645046
 21
128.7253931760788
 31
0.0
  0
LINE
  5
286
330
1F
100
AcDbEntity
  8
Unnamed [1]
  6
Continuous
 62
     5
370
    30
100
AcDbLine
 10
113.6204637102783
 20
128.1301048994064
 30
0.0
 11
113.6990814879537
 21
128.4064350128174
 31
0.0
  0
LINE
  5
287
330
1F
100
AcDbEntity
  8
Unnamed [1]
  6
Continuous
 62
     5
370
    30
100
AcDbLine
 10
113.4012509584427
 20
128.003542304039
 30
0.0
 11
113.6204637102783
 21
128.1301048994064
 31
0.0
  0
LINE
  5
288
330
1F
100
AcDbEntity
  8
Unnamed [1]
  6
Continuous
 62
     5
370
    30
100
AcDbLine
 10
113.1226331591606
 20
128.0736224651337
 30
0.0
 11
113.4012509584427
 21
128.003542304039
 31
0.0
  0
LINE
  5
289
330
1F
100
AcDbEntity
  8
Unnamed [1]
  6
Continuous
 62
     5
370
    30
100
AcDbLine
 10
112.8951813578606
 20
128.317580640316
 30
0.0
 11
113.1226331591606
 21
128.0736224651337
 31
0.0
  0
LINE
  5
28A
330
1F
100
AcDbEntity
  8
Unnamed [1]
  6
Continuous
 62
     5
370
    30
100
AcDbLine
 10
112.7889313101768
 20
128.5016111135483
 30
0.0
 11
112.8951813578606
 21
128.317580640316
 31
0.0
  0
LINE
  5
28B
330
1F
100
AcDbEntity
  8
Unnamed [1]
  6
Continuous
 62
     5
370
    30
100
AcDbLine
 10
112.6976331472397
 20
128.8097440302372
 30
0.0
 11
112.7889313101768
 21
128.5016111135483
 31
0.0
  0
LINE
  5
28C
330
1F
100
AcDbEntity
  8
Unnamed [1]
  6
Continuous
 62
     5
370
    30
100
AcDbLine
 10
112.7762509584427
 20
129.0860740989447
 30
0.0
 11
112.6976331472397
 21
128.8097440302372
 31
0.0
  0
LINE
  5
28D
330
1F
100
AcDbEntity
  8
Unnamed [1]
  6
Continuous
 62
     5
370
    30
100
AcDbLine
 10
112.9954637289047
 20
129.2126366347075
 30
0.0
 11
112.7762509584427
 21
129.0860740989447
 31
0.0
  0
LINE
  5
28E
330
1F
100
AcDbEntity
  8
Unnamed [1]
  6
Continuous
 62
     5
370
    30
100
AcDbLine
 10
113.2740814685822
 20
129.1425566524267
 30
0.0
 11
112.9954637289047
 21
129.2126366347075
 31
0.0
  0
LINE
  5
28F
330
1F
100
AcDbEntity
  8
Unnamed [1]
  6
Continuous
 62
     5
370
    30
100
AcDbLine
 10
113.4952833205462
 20
128.9094236791134
 30
0.0
 11
113.2740814685822
 21
129.1425566524267
 31
0.0
  0
LINE
  5
290
330
1F
100
AcDbEntity
  8
Unnamed [1]
  6
Continuous
 62
     5
370
    30
100
AcDbLine
 10
111.9679280519485
 20
127.2048804759979
 30
0.0
 11
111.8261072635651
 21
127.2817716598511
 31
0.0
  0
LINE
  5
291
330
1F
100
AcDbEntity
  8
Unnamed [1]
  6
Continuous
 62
     5
370
    30
100
AcDbLine
 10
112.1065939664841
 20
127.2272043228149
 30
0.0
 11
111.9679280519485
 21
127.2048804759979
 31
0.0
  0
LINE
  5
292
330
1F
100
AcDbEntity
  8
Unnamed [1]
  6
Continuous
 62
     5
370
    30
100
AcDbLine
 10
112.3258067369461
 20
127.3537667989731
 30
0.0
 11
112.1065939664841
 21
127.2272043228149
 31
0.0
  0
LINE
  5
293
330
1F
100
AcDbEntity
  8
Unnamed [1]
  6
Continuous
 62
     5
370
    30
100
AcDbLine
 10
112.4063535928726
 20
127.4580055475235
 30
0.0
 11
112.3258067369461
 21
127.3537667989731
 31
0.0
  0
LINE
  5
294
330
1F
100
AcDbEntity
  8
Unnamed [1]
  6
Continuous
 62
     5
370
    30
100
AcDbLine
 10
112.416924238205
 20
127.6084461212158
 30
0.0
 11
112.4063535928726
 21
127.4580055475235
 31
0.0
  0
LINE
  5
295
330
1F
100
AcDbEntity
  8
Unnamed [1]
  6
Continuous
 62
     5
370
    30
100
AcDbLine
 10
112.3456622362137
 20
127.7693756818771
 30
0.0
 11
112.416924238205
 21
127.6084461212158
 31
0.0
  0
LINE
  5
296
330
1F
100
AcDbEntity
  8
Unnamed [1]
  6
Continuous
 62
     5
370
    30
100
AcDbLine
 10
112.2138292789459
 20
127.8664668798447
 30
0.0
 11
112.3456622362137
 21
127.7693756818771
 31
0.0
  0
LINE
  5
297
330
1F
100
AcDbEntity
  8
Unnamed [1]
  6
Continuous
 62
     5
370
    30
100
AcDbLine
 10
112.0807704925537
 20
127.8906817436218
 30
0.0
 11
112.2138292789459
 21
127.8664668798447
 31
0.0
  0
LINE
  5
298
330
1F
100
AcDbEntity
  8
Unnamed [1]
  6
Continuous
 62
     5
370
    30
100
AcDbLine
 10
111.6935110092163
 20
127.8114349842072
 30
0.0
 11
112.0807704925537
 21
127.8906817436218
 31
0.0
  0
LINE
  5
299
330
1F
100
AcDbEntity
  8
Unnamed [1]
  6
Continuous
 62
     5
370
    30
100
AcDbLine
 10
111.5604522228241
 20
127.8356496095657
 30
0.0
 11
111.6935110092163
 21
127.8114349842072
 31
0.0
  0
LINE
  5
29A
330
1F
100
AcDbEntity
  8
Unnamed [1]
  6
Continuous
 62
     5
370
    30
100
AcDbLine
 10
111.428619146347
 20
127.9327409267426
 30
0.0
 11
111.5604522228241
 21
127.8356496095657
 31
0.0
  0
LINE
  5
29B
330
1F
100
AcDbEntity
  8
Unnamed [1]
  6
Continuous
 62
     5
370
    30
100
AcDbLine
 10
111.3573572635651
 20
128.0936703681946
 30
0.0
 11
111.428619146347
 21
127.9327409267426
 31
0.0
  0
LINE
  5
29C
330
1F
100
AcDbEntity
  8
Unnamed [1]
  6
Continuous
 62
     5
370
    30
100
AcDbLine
 10
111.3679280281067
 20
128.2441109418869
 30
0.0
 11
111.3573572635651
 21
128.0936703681946
 31
0.0
  0
LINE
  5
29D
330
1F
100
AcDbEntity
  8
Unnamed [1]
  6
Continuous
 62
     5
370
    30
100
AcDbLine
 10
111.4484748840332
 20
128.3483498096466
 30
0.0
 11
111.3679280281067
 21
128.2441109418869
 31
0.0
  0
LINE
  5
29E
330
1F
100
AcDbEntity
  8
Unnamed [1]
  6
Continuous
 62
     5
370
    30
100
AcDbLine
 10
111.6676875352859
 20
128.4749123454094
 30
0.0
 11
111.4484748840332
 21
128.3483498096466
 31
0.0
  0
LINE
  5
29F
330
1F
100
AcDbEntity
  8
Unnamed [1]
  6
Continuous
 62
     5
370
    30
100
AcDbLine
 10
111.7982343435287
 20
128.4925484657288
 30
0.0
 11
111.6676875352859
 21
128.4749123454094
 31
0.0
  0
LINE
  5
2A0
330
1F
100
AcDbEntity
  8
Unnamed [1]
  6
Continuous
 62
     5
370
    30
100
AcDbLine
 10
111.933805346489
 20
128.4264828562737
 30
0.0
 11
111.7982343435287
 21
128.4925484657288
 31
0.0
  0
LINE
  5
2A1
330
1F
100
AcDbEntity
  8
Unnamed [1]
  6
Continuous
 62
     5
370
    30
100
AcDbLine
 10
111.1010053157806
 20
126.9064350128174
 30
0.0
 11
111.003457069397
 21
127.2253932952881
 31
0.0
  0
LINE
  5
2A2
330
1F
100
AcDbEntity
  8
Unnamed [1]
  6
Continuous
 62
     5
370
    30
100
AcDbLine
 10
111.0223875045776
 20
126.6301047801971
 30
0.0
 11
111.1010053157806
 21
126.9064350128174
 31
0.0
  0
LINE
  5
2A3
330
1F
100
AcDbEntity
  8
Unnamed [1]
  6
Continuous
 62
     5
370
    30
100
AcDbLine
 10
110.8031747341156
 20
126.5035424232483
 30
0.0
 11
111.0223875045776
 21
126.6301047801971
 31
0.0
  0
LINE
  5
2A4
330
1F
100
AcDbEntity
  8
Unnamed [1]
  6
Continuous
 62
     5
370
    30
100
AcDbLine
 10
110.5245571136475
 20
126.5736224651337
 30
0.0
 11
110.8031747341156
 21
126.5035424232483
 31
0.0
  0
LINE
  5
2A5
330
1F
100
AcDbEntity
  8
Unnamed [1]
  6
Continuous
 62
     5
370
    30
100
AcDbLine
 10
110.2971050739288
 20
126.8175806999207
 30
0.0
 11
110.5245571136475
 21
126.5736224651337
 31
0.0
  0
LINE
  5
2A6
330
1F
100
AcDbEntity
  8
Unnamed [1]
  6
Continuous
 62
     5
370
    30
100
AcDbLine
 10
110.1908550262451
 20
127.0016112327576
 30
0.0
 11
110.2971050739288
 21
126.8175806999207
 31
0.0
  0
LINE
  5
2A7
330
1F
100
AcDbEntity
  8
Unnamed [1]
  6
Continuous
 62
     5
370
    30
100
AcDbLine
 10
110.0995571613312
 20
127.3097441196442
 30
0.0
 11
110.1908550262451
 21
127.0016112327576
 31
0.0
  0
LINE
  5
2A8
330
1F
100
AcDbEntity
  8
Unnamed [1]
  6
Continuous
 62
     5
370
    30
100
AcDbLine
 10
110.1781747341156
 20
127.5860741138458
 30
0.0
 11
110.0995571613312
 21
127.3097441196442
 31
0.0
  0
LINE
  5
2A9
330
1F
100
AcDbEntity
  8
Unnamed [1]
  6
Continuous
 62
     5
370
    30
100
AcDbLine
 10
110.3973875045776
 20
127.712636590004
 30
0.0
 11
110.1781747341156
 21
127.5860741138458
 31
0.0
  0
LINE
  5
2AA
330
1F
100
AcDbEntity
  8
Unnamed [1]
  6
Continuous
 62
     5
370
    30
100
AcDbLine
 10
110.6760053634644
 20
127.6425566673279
 30
0.0
 11
110.3973875045776
 21
127.712636590004
 31
0.0
  0
LINE
  5
2AB
330
1F
100
AcDbEntity
  8
Unnamed [1]
  6
Continuous
 62
     5
370
    30
100
AcDbLine
 10
110.8972070217133
 20
127.4094237089157
 30
0.0
 11
110.6760053634644
 21
127.6425566673279
 31
0.0
  0
LINE
  5
2AC
330
1F
100
AcDbEntity
  8
Unnamed [1]
  6
Continuous
 62
     5
370
    30
100
AcDbLine
 10
109.0687279701233
 20
127.7826925516129
 30
0.0
 11
110.0687279701233
 21
126.0506417751312
 31
0.0
  0
LINE
  5
2AD
330
1F
100
AcDbEntity
  8
Unnamed [1]
  6
Continuous
 62
     5
370
    30
100
AcDbLine
 10
109.2390646934509
 20
126.4376609325409
 30
0.0
 11
109.0687279701233
 21
127.7826925516129
 31
0.0
  0
LINE
  5
2AE
330
1F
100
AcDbEntity
  8
Unnamed [1]
  6
Continuous
 62
     5
370
    30
100
AcDbLine
 10
108.1594014167786
 20
127.2576925754547
 30
0.0
 11
109.2390646934509
 21
126.4376609325409
 31
0.0
  0
LINE
  5
2AF
330
1F
100
AcDbEntity
  8
Unnamed [1]
  6
Continuous
 62
     5
370
    30
100
AcDbLine
 10
109.1594014167786
 20
125.5256416797638
 30
0.0
 11
108.1594014167786
 21
127.2576925754547
 31
0.0
  0
LINE
  5
2B0
330
1F
100
AcDbEntity
  8
Unnamed [1]
  6
Continuous
 62
     5
370
    30
100
AcDbLine
 10
111.2784571647644
 20
126.7490792274475
 30
0.0
 11
110.628457069397
 21
127.8749123811722
 31
0.0
  0
LINE
  5
2B1
330
1F
100
AcDbEntity
  8
Unnamed [1]
  6
Continuous
 62
     5
370
    30
100
AcDbLine
 10
113.876533344388
 20
128.2490792274475
 30
0.0
 11
113.2265332937241
 21
129.3749123513699
 31
0.0
  0
LINE
  5
2B2
330
1F
100
AcDbEntity
  8
Unnamed [1]
  6
Continuous
 62
     5
370
    30
100
AcDbLine
 10
113.7290270999074
 20
130.4733176231384
 30
0.0
 11
114.7290271520615
 21
128.7412667870522
 31
0.0
  0
LINE
  5
2B3
330
1F
100
AcDbEntity
  8
Unnamed [1]
  6
Continuous
 62
     5
370
    30
100
AcDbLine
 10
115.0280652046204
 20
131.2233176231384
 30
0.0
 11
116.0280652046204
 21
129.491266772151
 31
0.0
  0
VIEWPORT
  5
2B5
330
1B
100
AcDbEntity
 67
     1
  8
0
 62
     1
100
AcDbViewport
 10
128.5
 20
97.5
 30
0.0
 40
314.226
 41
222.18
 68
     1
 69
     1
 12
128.5
 22
97.5
 13
0.0
 23
0.0
 14
10.0
 24
10.0
 15
10.0
 25
10.0
 16
0.0
 26
0.0
 36
1.0
 17
0.0
 27
0.0
 37
0.0
 42
50.0
 43
0.0
 44
0.0
 45
222.18
 50
0.0
 51
0.0
 72
   100
 90
   557152
  1

281
     0
 71
     1
 74
     0
110
0.0
120
0.0
130
0.0
111
1.0
121
0.0
131
0.0
112
0.0
122
1.0
132
0.0
 79
     0
146
0.0
  0
ENDSEC
  0
SECTION
  2
OBJECTS
  0
DICTIONARY
  5
C
330
0
100
AcDbDictionary
281
     1
  3
ACAD_GROUP
350
D
  3
ACAD_LAYOUT
350
1A
  3
ACAD_MLEADERSTYLE
350
2B9
  3
ACAD_MLINESTYLE
350
17
  3
ACAD_PLOTSETTINGS
350
19
  3
ACAD_PLOTSTYLENAME
350
E
  3
ACAD_SCALELIST
350
3B
  3
ACAD_TABLESTYLE
350
2B8
  3
ACAD_VISUALSTYLE
350
2A
  3
AcDbVariableDictionary
350
2B6
  3
KeyCreatorLevelsByLayouts
350
2B4
  0
DICTIONARY
  5
D
102
{ACAD_REACTORS
330
C
102
}
330
C
100
AcDbDictionary
281
     1
  0
DICTIONARY
  5
1A
102
{ACAD_REACTORS
330
C
102
}
330
C
100
AcDbDictionary
281
     1
  3
Layout1
350
1E
  3
Model
350
22
  0
DICTIONARY
  5
2B9
102
{ACAD_REACTORS
330
C
102
}
330
C
100
AcDbDictionary
281
     1
  0
DICTIONARY
  5
17
102
{ACAD_REACTORS
330
C
102
}
330
C
100
AcDbDictionary
281
     1
  3
Standard
350
18
  0
DICTIONARY
  5
19
102
{ACAD_REACTORS
330
C
102
}
330
C
100
AcDbDictionary
281
     1
  0
ACDBDICTIONARYWDFLT
  5
E
102
{ACAD_REACTORS
330
C
102
}
330
C
100
AcDbDictionary
281
     1
  3
Normal
350
F
100
AcDbDictionaryWithDefault
340
F
  0
DICTIONARY
  5
3B
102
{ACAD_REACTORS
330
C
102
}
330
C
100
AcDbDictionary
281
     1
  3
A0
350
3C
  3
A1
350
3D
  3
A2
350
3E
  3
A3
350
3F
  3
A4
350
40
  3
A5
350
41
  3
A6
350
42
  3
A7
350
43
  3
A8
350
44
  3
A9
350
45
  3
B0
350
46
  3
B1
350
47
  3
B2
350
48
  3
B3
350
49
  3
B4
350
4A
  3
B5
350
4B
  3
B6
350
4C
  3
B7
350
4D
  3
B8
350
4E
  3
B9
350
4F
  3
C0
350
50
  3
C1
350
51
  3
C2
350
52
  3
C3
350
53
  3
C4
350
54
  3
C5
350
55
  3
C6
350
56
  3
C7
350
57
  3
C8
350
58
  3
C9
350
59
  3
D0
350
5A
  3
D1
350
5B
  3
D2
350
5C
  0
DICTIONARY
  5
2B8
102
{ACAD_REACTORS
330
C
102
}
330
C
100
AcDbDictionary
281
     1
  0
DICTIONARY
  5
2A
102
{ACAD_REACTORS
330
C
102
}
330
C
100
AcDbDictionary
281
     1
  3
2dWireframe
350
2F
  3
3D Hidden
350
31
  3
3dWireframe
350
30
  3
Basic
350
32
  3
Brighten
350
36
  3
ColorChange
350
3A
  3
Conceptual
350
34
  3
Dim
350
35
  3
Facepattern
350
39
  3
Flat
350
2B
  3
FlatWithEdges
350
2C
  3
Gouraud
350
2D
  3
GouraudWithEdges
350
2E
  3
Linepattern
350
38
  3
Realistic
350
33
  3
Thicken
350
37
  0
DICTIONARY
  5
2B6
102
{ACAD_REACTORS
330
C
102
}
330
C
100
AcDbDictionary
281
     1
  3
CANNOSCALE
350
2B7
  0
DICTIONARY
  5
2B4
102
{ACAD_REACTORS
330
C
102
}
330
C
100
AcDbDictionary
281
     1
  0
LAYOUT
  5
1E
102
{ACAD_REACTORS
330
1A
102
}
330
1A
100
AcDbPlotSettings
  1

  2
none_device
  4
ISO_A4_(210.00_x_297.00_MM)
  6

 40
7.5
 41
20.0
 42
7.5
 43
20.0
 44
210.0
 45
297.0
 46
0.0
 47
0.0
 48
0.0
 49
0.0
140
0.0
141
0.0
142
1.0
143
1.0
 70
   688
 72
     1
 73
     1
 74
     5
  7

 75
    16
147
1.0
148
0.0
149
0.0
100
AcDbLayout
  1
Layout1
 70
     1
 71
     1
 10
-20.0
 20
-7.5
 11
277.0
 21
202.5
 12
0.0
 22
0.0
 32
0.0
 14
1.000000000000000E+20
 24
1.000000000000000E+20
 34
1.000000000000000E+20
 15
-1.000000000000000E+20
 25
-1.000000000000000E+20
 35
-1.000000000000000E+20
146
0.0
 13
0.0
 23
0.0
 33
0.0
 16
1.0
 26
0.0
 36
0.0
 17
0.0
 27
1.0
 37
0.0
 76
     0
330
1B
331
2B5
  0
LAYOUT
  5
22
102
{ACAD_REACTORS
330
1A
102
}
330
1A
100
AcDbPlotSettings
  1

  2
none_device
  4

  6

 40
0.0
 41
0.0
 42
0.0
 43
0.0
 44
0.0
 45
0.0
 46
0.0
 47
0.0
 48
0.0
 49
0.0
140
0.0
141
0.0
142
1.0
143
1.0
 70
  1712
 72
     0
 73
     0
 74
     0
  7

 75
     0
147
1.0
148
0.0
149
0.0
100
AcDbLayout
  1
Model
 70
     1
 71
     0
 10
0.0
 20
0.0
 11
12.0
 21
9.0
 12
0.0
 22
0.0
 32
0.0
 14
1.000000000000000E+20
 24
1.000000000000000E+20
 34
1.000000000000000E+20
 15
-1.000000000000000E+20
 25
-1.000000000000000E+20
 35
-1.000000000000000E+20
146
0.0
 13
0.0
 23
0.0
 33
0.0
 16
1.0
 26
0.0
 36
0.0
 17
0.0
 27
1.0
 37
0.0
 76
     0
330
1F
331
29
  0
MLINESTYLE
  5
18
102
{ACAD_REACTORS
330
17
102
}
330
17
100
AcDbMlineStyle
  2
Standard
 70
     0
  3

 62
   256
 51
90.0
 52
90.0
 71
     2
 49
0.5
 62
   256
  6
BYLAYER
 49
-0.5
 62
   256
  6
BYLAYER
  0
ACDBPLACEHOLDER
  5
F
102
{ACAD_REACTORS
330
E
102
}
330
E
  0
SCALE
  5
3C
102
{ACAD_REACTORS
330
3B
102
}
330
3B
100
AcDbScale
 70
     0
300
1:1
140
1.0
141
1.0
290
     1
  0
SCALE
  5
3D
102
{ACAD_REACTORS
330
3B
102
}
330
3B
100
AcDbScale
 70
     0
300
1:2
140
1.0
141
2.0
290
     0
  0
SCALE
  5
3E
102
{ACAD_REACTORS
330
3B
102
}
330
3B
100
AcDbScale
 70
     0
300
1:4
140
1.0
141
4.0
290
     0
  0
SCALE
  5
3F
102
{ACAD_REACTORS
330
3B
102
}
330
3B
100
AcDbScale
 70
     0
300
1:5
140
1.0
141
5.0
290
     0
  0
SCALE
  5
40
102
{ACAD_REACTORS
330
3B
102
}
330
3B
100
AcDbScale
 70
     0
300
1:8
140
1.0
141
8.0
290
     0
  0
SCALE
  5
41
102
{ACAD_REACTORS
330
3B
102
}
330
3B
100
AcDbScale
 70
     0
300
1:10
140
1.0
141
10.0
290
     0
  0
SCALE
  5
42
102
{ACAD_REACTORS
330
3B
102
}
330
3B
100
AcDbScale
 70
     0
300
1:16
140
1.0
141
16.0
290
     0
  0
SCALE
  5
43
102
{ACAD_REACTORS
330
3B
102
}
330
3B
100
AcDbScale
 70
     0
300
1:20
140
1.0
141
20.0
290
     0
  0
SCALE
  5
44
102
{ACAD_REACTORS
330
3B
102
}
330
3B
100
AcDbScale
 70
     0
300
1:30
140
1.0
141
30.0
290
     0
  0
SCALE
  5
45
102
{ACAD_REACTORS
330
3B
102
}
330
3B
100
AcDbScale
 70
     0
300
1:40
140
1.0
141
40.0
290
     0
  0
SCALE
  5
46
102
{ACAD_REACTORS
330
3B
102
}
330
3B
100
AcDbScale
 70
     0
300
1:50
140
1.0
141
50.0
290
     0
  0
SCALE
  5
47
102
{ACAD_REACTORS
330
3B
102
}
330
3B
100
AcDbScale
 70
     0
300
1:100
140
1.0
141
100.0
290
     0
  0
SCALE
  5
48
102
{ACAD_REACTORS
330
3B
102
}
330
3B
100
AcDbScale
 70
     0
300
2:1
140
2.0
141
1.0
290
     0
  0
SCALE
  5
49
102
{ACAD_REACTORS
330
3B
102
}
330
3B
100
AcDbScale
 70
     0
300
4:1
140
4.0
141
1.0
290
     0
  0
SCALE
  5
4A
102
{ACAD_REACTORS
330
3B
102
}
330
3B
100
AcDbScale
 70
     0
300
8:1
140
8.0
141
1.0
290
     0
  0
SCALE
  5
4B
102
{ACAD_REACTORS
330
3B
102
}
330
3B
100
AcDbScale
 70
     0
300
10:1
140
10.0
141
1.0
290
     0
  0
SCALE
  5
4C
102
{ACAD_REACTORS
330
3B
102
}
330
3B
100
AcDbScale
 70
     0
300
100:1
140
100.0
141
1.0
290
     0
  0
SCALE
  5
4D
102
{ACAD_REACTORS
330
3B
102
}
330
3B
100
AcDbScale
 70
     0
300
1/128" = 1'-0"
140
0.0078125
141
12.0
290
     0
  0
SCALE
  5
4E
102
{ACAD_REACTORS
330
3B
102
}
330
3B
100
AcDbScale
 70
     0
300
1/64" = 1'-0"
140
0.015625
141
12.0
290
     0
  0
SCALE
  5
4F
102
{ACAD_REACTORS
330
3B
102
}
330
3B
100
AcDbScale
 70
     0
300
1/32" = 1'-0"
140
0.03125
141
12.0
290
     0
  0
SCALE
  5
50
102
{ACAD_REACTORS
330
3B
102
}
330
3B
100
AcDbScale
 70
     0
300
1/16" = 1'-0"
140
0.0625
141
12.0
290
     0
  0
SCALE
  5
51
102
{ACAD_REACTORS
330
3B
102
}
330
3B
100
AcDbScale
 70
     0
300
3/32" = 1'-0"
140
0.09375
141
12.0
290
     0
  0
SCALE
  5
52
102
{ACAD_REACTORS
330
3B
102
}
330
3B
100
AcDbScale
 70
     0
300
1/8" = 1'-0"
140
0.125
141
12.0
290
     0
  0
SCALE
  5
53
102
{ACAD_REACTORS
330
3B
102
}
330
3B
100
AcDbScale
 70
     0
300
3/16" = 1'-0"
140
0.1875
141
12.0
290
     0
  0
SCALE
  5
54
102
{ACAD_REACTORS
330
3B
102
}
330
3B
100
AcDbScale
 70
     0
300
1/4" = 1'-0"
140
0.25
141
12.0
290
     0
  0
SCALE
  5
55
102
{ACAD_REACTORS
330
3B
102
}
330
3B
100
AcDbScale
 70
     0
300
3/8" = 1'-0"
140
0.375
141
12.0
290
     0
  0
SCALE
  5
56
102
{ACAD_REACTORS
330
3B
102
}
330
3B
100
AcDbScale
 70
     0
300
1/2" = 1'-0"
140
0.5
141
12.0
290
     0
  0
SCALE
  5
57
102
{ACAD_REACTORS
330
3B
102
}
330
3B
100
AcDbScale
 70
     0
300
3/4" = 1'-0"
140
0.75
141
12.0
290
     0
  0
SCALE
  5
58
102
{ACAD_REACTORS
330
3B
102
}
330
3B
100
AcDbScale
 70
     0
300
1" = 1'-0"
140
1.0
141
12.0
290
     0
  0
SCALE
  5
59
102
{ACAD_REACTORS
330
3B
102
}
330
3B
100
AcDbScale
 70
     0
300
1-1/2" = 1'-0"
140
1.5
141
12.0
290
     0
  0
SCALE
  5
5A
102
{ACAD_REACTORS
330
3B
102
}
330
3B
100
AcDbScale
 70
     0
300
3" = 1'-0"
140
3.0
141
12.0
290
     0
  0
SCALE
  5
5B
102
{ACAD_REACTORS
330
3B
102
}
330
3B
100
AcDbScale
 70
     0
300
6" = 1'-0"
140
6.0
141
12.0
290
     0
  0
SCALE
  5
5C
102
{ACAD_REACTORS
330
3B
102
}
330
3B
100
AcDbScale
 70
     0
300
1'-0" = 1'-0"
140
12.0
141
12.0
290
     0
  0
VISUALSTYLE
  5
2F
102
{ACAD_REACTORS
330
2A
102
}
330
2A
100
AcDbVisualStyle
  2
2dWireframe
 70
     4
 71
     0
 72
     2
 73
     0
 90
        0
 40
-0.6
 41
-30.0
 62
     5
 63
     7
 74
     1
 91
        4
 64
     7
 65
   257
 75
     1
175
     1
 42
1.0
 92
        0
 66
   257
 43
1.0
 76
     1
 77
     6
 78
     2
 67
     7
 79
     5
170
     0
171
     0
290
     0
174
     0
 93
        1
 44
0.0
173
     0
291
     0
 45
0.0
1001
ACAD
1000
AcDbSavedByObjectVersion
1070
     0
  0
VISUALSTYLE
  5
31
102
{ACAD_REACTORS
330
2A
102
}
330
2A
100
AcDbVisualStyle
  2
3D Hidden
 70
     6
 71
     1
 72
     2
 73
     2
 90
        0
 40
-0.6
 41
-30.0
 62
     5
 63
     7
 74
     2
 91
        2
 64
     7
 65
   257
 75
     2
175
     1
 42
40.0
 92
        0
 66
   257
 43
1.0
 76
     1
 77
     6
 78
     2
 67
     7
 79
     3
170
     0
171
     0
290
     0
174
     0
 93
        1
 44
0.0
173
     0
291
     0
 45
0.0
1001
ACAD
1000
AcDbSavedByObjectVersion
1070
     0
  0
VISUALSTYLE
  5
30
102
{ACAD_REACTORS
330
2A
102
}
330
2A
100
AcDbVisualStyle
  2
3dWireframe
 70
     5
 71
     0
 72
     2
 73
     0
 90
        0
 40
-0.6
 41
-30.0
 62
     5
 63
     7
 74
     1
 91
        4
 64
     7
 65
   257
 75
     1
175
     1
 42
1.0
 92
        0
 66
   257
 43
1.0
 76
     1
 77
     6
 78
     2
 67
     7
 79
     5
170
     0
171
     0
290
     0
174
     0
 93
        1
 44
0.0
173
     0
291
     0
 45
0.0
1001
ACAD
1000
AcDbSavedByObjectVersion
1070
     0
  0
VISUALSTYLE
  5
32
102
{ACAD_REACTORS
330
2A
102
}
330
2A
100
AcDbVisualStyle
  2
Basic
 70
     7
 71
     1
 72
     0
 73
     1
 90
        0
 40
-0.6
 41
-30.0
 62
     5
 63
     7
 74
     0
 91
        4
 64
     7
 65
   257
 75
     1
175
     1
 42
1.0
 92
        8
 66
     7
 43
1.0
 76
     1
 77
     6
 78
     2
 67
     7
 79
     5
170
     0
171
     0
290
     0
174
     0
 93
        1
 44
0.0
173
     0
291
     1
 45
0.0
1001
ACAD
1000
AcDbSavedByObjectVersion
1070
     0
  0
VISUALSTYLE
  5
36
102
{ACAD_REACTORS
330
2A
102
}
330
2A
100
AcDbVisualStyle
  2
Brighten
 70
    12
 71
     2
 72
     2
 73
     0
 90
        0
 40
-0.6
 41
-30.0
 62
     5
 63
     7
 74
     1
 91
        4
 64
     7
 65
   257
 75
     1
175
     1
 42
1.0
 92
        8
 66
     7
 43
1.0
 76
     1
 77
     6
 78
     2
 67
     7
 79
     5
170
     0
171
     0
290
     0
174
     0
 93
        1
 44
50.0
173
     0
291
     1
 45
0.0
1001
ACAD
1000
AcDbSavedByObjectVersion
1070
     0
  0
VISUALSTYLE
  5
3A
102
{ACAD_REACTORS
330
2A
102
}
330
2A
100
AcDbVisualStyle
  2
ColorChange
 70
    16
 71
     2
 72
     2
 73
     3
 90
        0
 40
-0.6
 41
-30.0
 62
     5
 63
     8
 74
     1
 91
        4
 64
     7
 65
   257
 75
     1
175
     1
 42
1.0
 92
        8
 66
     8
 43
1.0
 76
     1
 77
     6
 78
     2
 67
     7
 79
     5
170
     0
171
     0
290
     0
174
     0
 93
        1
 44
0.0
173
     0
291
     1
 45
0.0
1001
ACAD
1000
AcDbSavedByObjectVersion
1070
     0
  0
VISUALSTYLE
  5
34
102
{ACAD_REACTORS
330
2A
102
}
330
2A
100
AcDbVisualStyle
  2
Conceptual
 70
     9
 71
     3
 72
     2
 73
     0
 90
        0
 40
-0.6
 41
-30.0
 62
     5
 63
     7
 74
     2
 91
        2
 64
     7
 65
   257
 75
     1
175
     1
 42
40.0
 92
        8
 66
     7
 43
1.0
 76
     1
 77
     6
 78
     2
 67
     7
 79
     3
170
     0
171
     0
290
     0
174
     0
 93
        1
 44
0.0
173
     0
291
     0
 45
0.0
1001
ACAD
1000
AcDbSavedByObjectVersion
1070
     0
  0
VISUALSTYLE
  5
35
102
{ACAD_REACTORS
330
2A
102
}
330
2A
100
AcDbVisualStyle
  2
Dim
 70
    11
 71
     2
 72
     2
 73
     0
 90
        0
 40
-0.6
 41
-30.0
 62
     5
 63
     7
 74
     1
 91
        4
 64
     7
 65
   257
 75
     1
175
     1
 42
1.0
 92
        8
 66
     7
 43
1.0
 76
     1
 77
     6
 78
     2
 67
     7
 79
     5
170
     0
171
     0
290
     0
174
     0
 93
        1
 44
-50.0
173
     0
291
     1
 45
0.0
1001
ACAD
1000
AcDbSavedByObjectVersion
1070
     0
  0
VISUALSTYLE
  5
39
102
{ACAD_REACTORS
330
2A
102
}
330
2A
100
AcDbVisualStyle
  2
Facepattern
 70
    15
 71
     2
 72
     2
 73
     0
 90
        0
 40
-0.6
 41
-30.0
 62
     5
 63
     7
 74
     1
 91
        4
 64
     7
 65
   257
 75
     1
175
     1
 42
1.0
 92
        8
 66
     7
 43
1.0
 76
     1
 77
     6
 78
     2
 67
     7
 79
     5
170
     0
171
     0
290
     0
174
     0
 93
        1
 44
0.0
173
     0
291
     1
 45
0.0
1001
ACAD
1000
AcDbSavedByObjectVersion
1070
     0
  0
VISUALSTYLE
  5
2B
102
{ACAD_REACTORS
330
2A
102
}
330
2A
100
AcDbVisualStyle
  2
Flat
 70
     0
 71
     2
 72
     1
 73
     1
 90
        2
 40
-0.6
 41
30.0
 62
     5
 63
     7
 74
     0
 91
        4
 64
     7
 65
   257
 75
     1
175
     1
 42
1.0
 92
        8
 66
     7
 43
1.0
 76
     1
 77
     6
 78
     2
 67
     7
 79
     5
170
     0
171
     0
290
     0
174
     0
 93
       13
 44
0.0
173
     0
291
     1
 45
0.0
1001
ACAD
1000
AcDbSavedByObjectVersion
1070
     0
  0
VISUALSTYLE
  5
2C
102
{ACAD_REACTORS
330
2A
102
}
330
2A
100
AcDbVisualStyle
  2
FlatWithEdges
 70
     1
 71
     2
 72
     1
 73
     1
 90
        2
 40
-0.6
 41
30.0
 62
     5
 63
     7
 74
     1
 91
        4
 64
     7
 65
   257
 75
     1
175
     1
 42
1.0
 92
        0
 66
   257
 43
1.0
 76
     1
 77
     6
 78
     2
 67
     7
 79
     5
170
     0
171
     0
290
     0
174
     0
 93
       13
 44
0.0
173
     0
291
     1
 45
0.0
1001
ACAD
1000
AcDbSavedByObjectVersion
1070
     0
  0
VISUALSTYLE
  5
2D
102
{ACAD_REACTORS
330
2A
102
}
330
2A
100
AcDbVisualStyle
  2
Gouraud
 70
     2
 71
     2
 72
     2
 73
     1
 90
        2
 40
-0.6
 41
30.0
 62
     5
 63
     7
 74
     0
 91
        4
 64
     7
 65
   257
 75
     1
175
     1
 42
1.0
 92
        0
 66
     7
 43
1.0
 76
     1
 77
     6
 78
     2
 67
     7
 79
     5
170
     0
171
     0
290
     0
174
     0
 93
       13
 44
0.0
173
     0
291
     1
 45
0.0
1001
ACAD
1000
AcDbSavedByObjectVersion
1070
     0
  0
VISUALSTYLE
  5
2E
102
{ACAD_REACTORS
330
2A
102
}
330
2A
100
AcDbVisualStyle
  2
GouraudWithEdges
 70
     3
 71
     2
 72
     2
 73
     1
 90
        2
 40
-0.6
 41
30.0
 62
     5
 63
     7
 74
     1
 91
        4
 64
     7
 65
   257
 75
     1
175
     1
 42
1.0
 92
        0
 66
   257
 43
1.0
 76
     1
 77
     6
 78
     2
 67
     7
 79
     5
170
     0
171
     0
290
     0
174
     0
 93
       13
 44
0.0
173
     0
291
     1
 45
0.0
1001
ACAD
1000
AcDbSavedByObjectVersion
1070
     0
  0
VISUALSTYLE
  5
38
102
{ACAD_REACTORS
330
2A
102
}
330
2A
100
AcDbVisualStyle
  2
Linepattern
 70
    14
 71
     2
 72
     2
 73
     0
 90
        0
 40
-0.6
 41
-30.0
 62
     5
 63
     7
 74
     1
 91
        4
 64
     7
 65
   257
 75
     7
175
     7
 42
1.0
 92
        8
 66
     7
 43
1.0
 76
     1
 77
     6
 78
     2
 67
     7
 79
     5
170
     0
171
     0
290
     0
174
     0
 93
        1
 44
0.0
173
     0
291
     1
 45
0.0
1001
ACAD
1000
AcDbSavedByObjectVersion
1070
     0
  0
VISUALSTYLE
  5
33
102
{ACAD_REACTORS
330
2A
102
}
330
2A
100
AcDbVisualStyle
  2
Realistic
 70
     8
 71
     2
 72
     2
 73
     0
 90
        0
 40
-0.6
 41
-30.0
 62
     5
 63
     7
 74
     1
 91
        0
 64
     7
 65
   257
 75
     1
175
     1
 42
1.0
 92
        8
 66
     8
 43
1.0
 76
     1
 77
     6
 78
     2
 67
     7
 79
     5
170
     0
171
     0
290
     0
174
     0
 93
       13
 44
0.0
173
     0
291
     0
 45
0.0
1001
ACAD
1000
AcDbSavedByObjectVersion
1070
     0
  0
VISUALSTYLE
  5
37
102
{ACAD_REACTORS
330
2A
102
}
330
2A
100
AcDbVisualStyle
  2
Thicken
 70
    13
 71
     2
 72
     2
 73
     0
 90
        0
 40
-0.6
 41
-30.0
 62
     5
 63
     7
 74
     1
 91
        4
 64
     7
 65
   257
 75
     1
175
     1
 42
1.0
 92
       12
 66
     7
 43
1.0
 76
     1
 77
     6
 78
     2
 67
     7
 79
     5
170
     0
171
     0
290
     0
174
     0
 93
        1
 44
0.0
173
     0
291
     1
 45
0.0
1001
ACAD
1000
AcDbSavedByObjectVersion
1070
     0
  0
DICTIONARYVAR
  5
2B7
102
{ACAD_REACTORS
330
2B6
102
}
330
2B6
100
DictionaryVariables
280
     0
  1
1:1
  0
ENDSEC
  0
EOF
